<svg fill="none" height="36" viewBox="0 0 37 36" width="37" xmlns="http://www.w3.org/2000/svg"><path d="m27.4155 9.32755c-1.6275-.7467-3.3728-1.29685-5.1976-1.61193-.0332-.00608-.0664.00911-.0835.03951-.2245.39917-.4731.91994-.6472 1.32925-1.9627-.29381-3.9153-.29381-5.8377 0-.1741-.41841-.4318-.93008-.6572-1.32925-.0172-.02938-.0504-.04458-.0836-.03951-1.8238.31408-3.569.86422-5.19753 1.61193-.0141.00608-.02619.01622-.03421.02938-3.31038 4.94527-4.21724 9.76887-3.77236 14.53277.00201.0233.01509.0456.03321.0598 2.1841 1.6038 4.29979 2.5775 6.37619 3.2228.0332.0102.0684-.002.0896-.0294.4911-.6706.929-1.3778 1.3044-2.1215.0221-.0436.001-.0952-.0443-.1125-.6945-.2634-1.3558-.5846-1.9919-.9493-.0503-.0294-.0543-.1013-.008-.1358.1338-.1003.2677-.2046.3955-.31.0232-.0192.0554-.0233.0826-.0111 4.1789 1.9078 8.7031 1.9078 12.8328 0 .0272-.0132.0594-.0091.0835.0101.1279.1054.2617.2107.3966.311.0463.0345.0433.1064-.007.1358-.6361.3718-1.2974.6859-1.9929.9483-.0453.0173-.0654.0699-.0433.1135.3835.7426.8213 1.4498 1.3034 2.1205.0202.0284.0564.0406.0896.0304 2.0865-.6453 4.2021-1.619 6.3862-3.2228.0192-.0142.0312-.0355.0333-.0588.5324-5.5075-.8918-10.2917-3.7754-14.53276-.0071-.01417-.0191-.02431-.0332-.03039zm-13.0835 11.66145c-1.2581 0-2.2948-1.155-2.2948-2.5734s1.0166-2.5734 2.2948-2.5734c1.2883 0 2.315 1.1651 2.2948 2.5734 0 1.4184-1.0166 2.5734-2.2948 2.5734zm8.4848 0c-1.2581 0-2.2948-1.155-2.2948-2.5734s1.0165-2.5734 2.2948-2.5734c1.2883 0 2.3149 1.1651 2.2948 2.5734 0 1.4184-1.0065 2.5734-2.2948 2.5734z" stroke="#1e1e1e" stroke-width="1.286"/></svg>