<svg fill="none" viewBox="0 0 37 36"><path stroke="#1e1e1e" stroke-width="1.286" d="M27.416 9.328a21.058 21.058 0 00-5.198-1.612.079.079 0 00-.084.04c-.224.398-.473.92-.647 1.328a19.441 19.441 0 00-5.838 0c-.174-.418-.431-.93-.657-1.329a.082.082 0 00-.083-.04A21 21 0 009.71 9.329a.074.074 0 00-.034.029c-3.31 4.945-4.217 9.769-3.772 14.533a.088.088 0 00.033.06 21.174 21.174 0 006.376 3.222.083.083 0 00.09-.03c.49-.67.929-1.377 1.304-2.12a.08.08 0 00-.044-.113 13.944 13.944 0 01-1.992-.95.082.082 0 01-.008-.135c.134-.1.268-.205.395-.31a.08.08 0 01.083-.011c4.179 1.907 8.703 1.907 12.833 0a.079.079 0 01.083.01c.128.105.262.21.397.31a.082.082 0 01-.007.137c-.636.371-1.298.685-1.993.948a.082.082 0 00-.043.113c.383.743.82 1.45 1.303 2.12a.08.08 0 00.09.031 21.103 21.103 0 006.386-3.223.082.082 0 00.033-.058c.532-5.508-.892-10.292-3.775-14.533a.065.065 0 00-.034-.03zM14.332 20.989c-1.258 0-2.295-1.155-2.295-2.573s1.017-2.574 2.295-2.574c1.288 0 2.315 1.165 2.295 2.574 0 1.418-1.017 2.573-2.295 2.573zm8.485 0c-1.258 0-2.295-1.155-2.295-2.573s1.017-2.574 2.295-2.574c1.288 0 2.315 1.165 2.295 2.574 0 1.418-1.007 2.573-2.295 2.573z"/></svg>