<svg width="29" height="22" viewBox="0 0 29 22" fill="none" xmlns="http://www.w3.org/2000/svg">
<path d="M24.4888 2.13793C22.6822 1.30898 20.7449 0.698246 18.7193 0.348452C18.6824 0.341701 18.6456 0.358572 18.6266 0.392315C18.3774 0.83546 18.1014 1.41358 17.9082 1.86798C15.7295 1.54181 13.562 1.54181 11.4281 1.86798C11.2348 1.40348 10.9488 0.83546 10.6985 0.392315C10.6795 0.359698 10.6426 0.342827 10.6057 0.348452C8.58126 0.697128 6.64394 1.30786 4.83621 2.13793C4.82056 2.14468 4.80714 2.15594 4.79824 2.17055C1.12355 7.66046 0.116898 13.0154 0.610727 18.304C0.612962 18.3299 0.627486 18.3546 0.647597 18.3704C3.07205 20.1508 5.42055 21.2317 7.72544 21.9482C7.76233 21.9594 7.80142 21.946 7.82489 21.9156C8.37011 21.171 8.85613 20.3859 9.27284 19.5603C9.29743 19.512 9.27396 19.4546 9.2237 19.4355C8.45279 19.1431 7.71874 18.7865 7.01263 18.3816C6.95678 18.349 6.9523 18.2691 7.00368 18.2309C7.15228 18.1195 7.30091 18.0037 7.44279 17.8867C7.46846 17.8653 7.50423 17.8608 7.53441 17.8743C12.1733 19.9923 17.1954 19.9923 21.7795 17.8743C21.8096 17.8597 21.8454 17.8642 21.8722 17.8856C22.0141 18.0026 22.1627 18.1195 22.3124 18.2309C22.3638 18.2691 22.3605 18.349 22.3046 18.3816C21.5985 18.7944 20.8644 19.1431 20.0924 19.4344C20.0422 19.4535 20.0198 19.512 20.0444 19.5603C20.47 20.3848 20.9561 21.1699 21.4912 21.9145C21.5136 21.946 21.5538 21.9594 21.5907 21.9482C23.9067 21.2317 26.2552 20.1508 28.6797 18.3704C28.7009 18.3546 28.7143 18.331 28.7166 18.3051C29.3076 12.191 27.7266 6.8799 24.5257 2.17167C24.5179 2.15594 24.5045 2.14468 24.4888 2.13793ZM9.96558 15.0838C8.56897 15.0838 7.4182 13.8016 7.4182 12.227C7.4182 10.6523 8.54665 9.3701 9.96558 9.3701C11.3956 9.3701 12.5353 10.6636 12.5129 12.227C12.5129 13.8016 11.3845 15.0838 9.96558 15.0838ZM19.3841 15.0838C17.9875 15.0838 16.8367 13.8016 16.8367 12.227C16.8367 10.6523 17.9651 9.3701 19.3841 9.3701C20.8142 9.3701 21.9538 10.6636 21.9314 12.227C21.9314 13.8016 20.8142 15.0838 19.3841 15.0838Z" fill="white"/>
</svg>
