<svg fill="none" viewBox="0 0 37 36"><path stroke="#fff" stroke-width="1.286" d="M27.916 10.366a21.058 21.058 0 00-5.198-1.612.079.079 0 00-.083.04c-.225.398-.473.92-.648 1.328a19.441 19.441 0 00-5.837 0c-.174-.418-.432-.93-.657-1.329a.082.082 0 00-.084-.04c-1.824.315-3.57.865-5.198 1.613a.074.074 0 00-.034.029c-3.31 4.945-4.217 9.769-3.772 14.533a.088.088 0 00.033.06 21.174 21.174 0 006.376 3.222.083.083 0 00.09-.029 15.13 15.13 0 001.304-2.122.08.08 0 00-.044-.112 13.949 13.949 0 01-1.992-.95.082.082 0 01-.008-.135c.134-.1.268-.205.396-.31a.079.079 0 01.082-.011c4.18 1.908 8.703 1.908 12.833 0a.079.079 0 01.083.01c.128.105.262.21.397.31a.082.082 0 01-.007.137 13 13 0 01-1.993.948.081.081 0 00-.043.113c.383.743.821 1.45 1.303 2.121a.08.08 0 00.09.03 21.105 21.105 0 006.386-3.223.082.082 0 00.033-.058c.533-5.508-.892-10.292-3.775-14.533a.065.065 0 00-.033-.03zM14.832 22.027c-1.258 0-2.295-1.155-2.295-2.573 0-1.419 1.017-2.574 2.295-2.574 1.289 0 2.315 1.165 2.295 2.574 0 1.418-1.016 2.573-2.295 2.573zm8.485 0c-1.258 0-2.295-1.155-2.295-2.573 0-1.419 1.017-2.574 2.295-2.574 1.288 0 2.315 1.165 2.295 2.574 0 1.418-1.007 2.573-2.295 2.573z"/></svg>