<svg width="29" height="22" viewBox="0 0 29 22" fill="none" xmlns="http://www.w3.org/2000/svg">
    <path
        d="M24.4887 2.13793C22.682 1.30898 20.7447 0.698246 18.7191 0.348452C18.6822 0.341701 18.6454 0.358572 18.6264 0.392315C18.3772 0.83546 18.1013 1.41358 17.908 1.86798C15.7293 1.54181 13.5619 1.54181 11.4279 1.86798C11.2346 1.40348 10.9486 0.83546 10.6983 0.392315C10.6793 0.359698 10.6424 0.342827 10.6056 0.348452C8.58108 0.697128 6.64376 1.30786 4.83602 2.13793C4.82037 2.14468 4.80696 2.15594 4.79806 2.17055C1.12337 7.66046 0.116714 13.0154 0.610544 18.304C0.612779 18.3299 0.627303 18.3546 0.647414 18.3704C3.07187 20.1508 5.42037 21.2317 7.72526 21.9482C7.76215 21.9594 7.80123 21.946 7.82471 21.9156C8.36993 21.171 8.85595 20.3859 9.27266 19.5603C9.29725 19.512 9.27378 19.4546 9.22351 19.4355C8.45261 19.1431 7.71855 18.7865 7.01244 18.3816C6.95659 18.349 6.95212 18.2691 7.0035 18.2309C7.15209 18.1195 7.30072 18.0037 7.44261 17.8867C7.46828 17.8653 7.50405 17.8608 7.53423 17.8743C12.1731 19.9923 17.1952 19.9923 21.7793 17.8743C21.8095 17.8597 21.8452 17.8642 21.872 17.8856C22.0139 18.0026 22.1625 18.1195 22.3122 18.2309C22.3636 18.2691 22.3603 18.349 22.3044 18.3816C21.5983 18.7944 20.8643 19.1431 20.0922 19.4344C20.042 19.4535 20.0196 19.512 20.0442 19.5603C20.4699 20.3848 20.9559 21.1699 21.491 21.9145C21.5134 21.946 21.5536 21.9594 21.5905 21.9482C23.9066 21.2317 26.255 20.1508 28.6795 18.3704C28.7007 18.3546 28.7141 18.331 28.7164 18.3051C29.3074 12.191 27.7265 6.8799 24.5255 2.17167C24.5177 2.15594 24.5043 2.14468 24.4887 2.13793ZM9.9654 15.0838C8.56878 15.0838 7.41802 13.8016 7.41802 12.227C7.41802 10.6523 8.54647 9.3701 9.9654 9.3701C11.3955 9.3701 12.5351 10.6636 12.5127 12.227C12.5127 13.8016 11.3843 15.0838 9.9654 15.0838ZM19.3839 15.0838C17.9873 15.0838 16.8365 13.8016 16.8365 12.227C16.8365 10.6523 17.965 9.3701 19.3839 9.3701C20.814 9.3701 21.9536 10.6636 21.9313 12.227C21.9313 13.8016 20.814 15.0838 19.3839 15.0838Z"
        fill="#3B3B3B" />
</svg>