<svg fill="none" height="36" viewBox="0 0 37 36" width="37" xmlns="http://www.w3.org/2000/svg"><path d="m27.9157 10.3656c-1.6275-.74673-3.3728-1.29687-5.1975-1.61196-.0333-.00608-.0665.00912-.0836.03951-.2244.39918-.4731.91994-.6472 1.32925-1.9626-.2938-3.9152-.2938-5.8376 0-.1742-.41841-.4318-.93007-.6573-1.32925-.0171-.02938-.0503-.04458-.0835-.03951-1.8238.31408-3.5691.86422-5.1976 1.61196-.0141.0061-.0262.0162-.0342.0294-3.31038 4.9452-4.21723 9.7689-3.77236 14.5327.00201.0233.0151.0456.03321.0598 2.1841 1.6038 4.29975 2.5775 6.37615 3.2228.0332.0102.0685-.002.0896-.0293.4912-.6707.929-1.3779 1.3044-2.1216.0222-.0435.001-.0952-.0443-.1124-.6944-.2635-1.3557-.5846-1.9918-.9494-.0504-.0293-.0544-.1013-.0081-.1357.1339-.1003.2678-.2047.3956-.3101.0231-.0192.0553-.0233.0825-.0111 4.179 1.9078 8.7032 1.9078 12.8328 0 .0272-.0132.0594-.0091.0836.0101.1278.1054.2617.2108.3966.3111.0462.0344.0432.1064-.0071.1357-.6361.3719-1.2974.6859-1.9929.9484-.0452.0172-.0654.0699-.0432.1134.3834.7427.8213 1.4498 1.3034 2.1206.0201.0283.0563.0405.0896.0303 2.0864-.6453 4.2021-1.619 6.3862-3.2228.0191-.0142.0312-.0355.0332-.0588.5324-5.5075-.8918-10.2916-3.7754-14.5327-.007-.0142-.0191-.0243-.0332-.0304zm-13.0834 11.6614c-1.2582 0-2.2949-1.1549-2.2949-2.5734 0-1.4184 1.0166-2.5734 2.2949-2.5734 1.2883 0 2.3149 1.1651 2.2948 2.5734 0 1.4185-1.0166 2.5734-2.2948 2.5734zm8.4847 0c-1.2581 0-2.2948-1.1549-2.2948-2.5734 0-1.4184 1.0166-2.5734 2.2948-2.5734 1.2883 0 2.315 1.1651 2.2948 2.5734 0 1.4185-1.0065 2.5734-2.2948 2.5734z" stroke="#fff" stroke-width="1.286"/></svg>