<svg width="26" height="26" viewBox="0 0 26 26" fill="none" xmlns="http://www.w3.org/2000/svg">
<g clip-path="url(#clip0_882_103298)">
<path d="M0.526855 10.8432V20.7409C0.526855 21.3972 0.787554 22.0266 1.2516 22.4906C1.71565 22.9547 2.34503 23.2154 3.00129 23.2154H22.7967C23.453 23.2154 24.0824 22.9547 24.5464 22.4906C25.0105 22.0266 25.2712 21.3972 25.2712 20.7409V10.8432L12.899 15.7921L0.526855 10.8432Z" fill="white"/>
<path d="M3.00129 3.41974C2.34503 3.41974 1.71565 3.68044 1.2516 4.14448C0.787554 4.60853 0.526855 5.23791 0.526855 5.89417L0.526855 8.3686L12.899 13.3175L25.2712 8.3686V5.89417C25.2712 5.23791 25.0105 4.60853 24.5464 4.14448C24.0824 3.68044 23.453 3.41974 22.7967 3.41974H3.00129Z" fill="white"/>
</g>
<defs>
<clipPath id="clip0_882_103298">
<rect width="24.7443" height="24.7443" fill="white" transform="translate(0.527069 0.945496)"/>
</clipPath>
</defs>
</svg>
