<svg xmlns="http://www.w3.org/2000/svg" width="37" height="36" fill="none" viewBox="0 0 37 36"><path stroke="#fff" stroke-width="1.286" d="M7.55811 14.5262V23.4419C7.55811 24.033 7.79296 24.6 8.211 25.018C8.62904 25.436 9.19603 25.6708 9.78722 25.6708H27.6202C28.2114 25.6708 28.7784 25.436 29.1964 25.018C29.6144 24.6 29.8493 24.033 29.8493 23.4419V14.5262L18.7037 18.984L7.55811 14.5262Z"/><path stroke="#fff" stroke-width="1.286" d="M9.78722 10.3237C9.19603 10.3237 8.62904 10.5586 8.211 10.9766C7.79296 11.3946 7.55811 11.9615 7.55811 12.5527V14.7816L18.7037 19.2394L29.8493 14.7816V12.5527C29.8493 11.9615 29.6144 11.3946 29.1964 10.9766C28.7784 10.5586 28.2114 10.3237 27.6202 10.3237H9.78722Z"/></svg>