<svg xmlns="http://www.w3.org/2000/svg" width="37" height="36" fill="none" viewBox="0 0 37 36"><path stroke="#1E1E1E" stroke-width="1.286" d="M8.05811 14.4882V23.4039C8.05811 23.995 8.29296 24.562 8.711 24.98C9.12904 25.398 9.69603 25.6328 10.2872 25.6328H28.1202C28.7114 25.6328 29.2784 25.398 29.6964 24.98C30.1144 24.562 30.3493 23.995 30.3493 23.4039V14.4882L19.2037 18.946L8.05811 14.4882Z"/><path stroke="#1E1E1E" stroke-width="1.286" d="M10.2872 10.2857C9.69603 10.2857 9.12904 10.5205 8.711 10.9385C8.29296 11.3565 8.05811 11.9235 8.05811 12.5146V14.7436L19.2037 19.2014L30.3493 14.7436V12.5146C30.3493 11.9235 30.1144 11.3565 29.6964 10.9385C29.2784 10.5205 28.7114 10.2857 28.1202 10.2857H10.2872Z"/></svg>