<svg width="24" height="25" viewBox="0 0 24 25" fill="none" xmlns="http://www.w3.org/2000/svg">
<path d="M11.9096 8.40907C9.74735 8.40907 7.98278 10.1736 7.98278 12.3359C7.98278 14.4982 9.74735 16.2627 11.9096 16.2627C14.0719 16.2627 15.8364 14.4982 15.8364 12.3359C15.8364 10.1736 14.0719 8.40907 11.9096 8.40907ZM23.6872 12.3359C23.6872 10.7098 23.7019 9.0984 23.6106 7.47523C23.5192 5.58988 23.0891 3.91663 21.7105 2.53797C20.3289 1.15636 18.6586 0.729215 16.7732 0.637893C15.1471 0.546572 13.5357 0.561301 11.9126 0.561301C10.2864 0.561301 8.67506 0.546572 7.05189 0.637893C5.16654 0.729215 3.49329 1.15931 2.11463 2.53797C0.733025 3.91958 0.305875 5.58988 0.214553 7.47523C0.123232 9.10135 0.137961 10.7127 0.137961 12.3359C0.137961 13.9591 0.123232 15.5734 0.214553 17.1966C0.305875 19.0819 0.735971 20.7552 2.11463 22.1338C3.49624 23.5154 5.16654 23.9426 7.05189 24.0339C8.67801 24.1252 10.2894 24.1105 11.9126 24.1105C13.5387 24.1105 15.1501 24.1252 16.7732 24.0339C18.6586 23.9426 20.3318 23.5125 21.7105 22.1338C23.0921 20.7522 23.5192 19.0819 23.6106 17.1966C23.7048 15.5734 23.6872 13.962 23.6872 12.3359ZM11.9096 18.3779C8.56606 18.3779 5.86766 15.6794 5.86766 12.3359C5.86766 8.99235 8.56606 6.29394 11.9096 6.29394C15.2532 6.29394 17.9516 8.99235 17.9516 12.3359C17.9516 15.6794 15.2532 18.3779 11.9096 18.3779ZM18.199 7.45756C17.4184 7.45756 16.788 6.82714 16.788 6.04649C16.788 5.26584 17.4184 4.63542 18.199 4.63542C18.9797 4.63542 19.6101 5.26584 19.6101 6.04649C19.6103 6.23186 19.574 6.41545 19.5031 6.58676C19.4323 6.75806 19.3284 6.91371 19.1973 7.04478C19.0662 7.17586 18.9106 7.27979 18.7393 7.35062C18.568 7.42145 18.3844 7.45779 18.199 7.45756Z" fill="white"/>
</svg>
