<svg width="24" height="25" viewBox="0 0 24 25" fill="none" xmlns="http://www.w3.org/2000/svg">
<path d="M11.9097 8.40907C9.74747 8.40907 7.9829 10.1736 7.9829 12.3359C7.9829 14.4982 9.74747 16.2627 11.9097 16.2627C14.072 16.2627 15.8366 14.4982 15.8366 12.3359C15.8366 10.1736 14.072 8.40907 11.9097 8.40907ZM23.6873 12.3359C23.6873 10.7098 23.702 9.0984 23.6107 7.47523C23.5194 5.58988 23.0893 3.91663 21.7106 2.53797C20.329 1.15636 18.6587 0.729215 16.7733 0.637893C15.1472 0.546572 13.5358 0.561301 11.9127 0.561301C10.2866 0.561301 8.67518 0.546572 7.05201 0.637893C5.16666 0.729215 3.49342 1.15931 2.11475 2.53797C0.733147 3.91958 0.305997 5.58988 0.214676 7.47523C0.123354 9.10135 0.138083 10.7127 0.138083 12.3359C0.138083 13.9591 0.123354 15.5734 0.214676 17.1966C0.305997 19.0819 0.736093 20.7552 2.11475 22.1338C3.49636 23.5154 5.16666 23.9426 7.05201 24.0339C8.67813 24.1252 10.2895 24.1105 11.9127 24.1105C13.5388 24.1105 15.1502 24.1252 16.7733 24.0339C18.6587 23.9426 20.3319 23.5125 21.7106 22.1338C23.0922 20.7522 23.5194 19.0819 23.6107 17.1966C23.705 15.5734 23.6873 13.962 23.6873 12.3359ZM11.9097 18.3779C8.56618 18.3779 5.86778 15.6794 5.86778 12.3359C5.86778 8.99235 8.56618 6.29394 11.9097 6.29394C15.2533 6.29394 17.9517 8.99235 17.9517 12.3359C17.9517 15.6794 15.2533 18.3779 11.9097 18.3779ZM18.1991 7.45756C17.4185 7.45756 16.7881 6.82714 16.7881 6.04649C16.7881 5.26584 17.4185 4.63542 18.1991 4.63542C18.9798 4.63542 19.6102 5.26584 19.6102 6.04649C19.6104 6.23186 19.5741 6.41545 19.5033 6.58676C19.4324 6.75806 19.3285 6.91371 19.1974 7.04478C19.0664 7.17586 18.9107 7.27979 18.7394 7.35062C18.5681 7.42145 18.3845 7.45779 18.1991 7.45756Z" fill="#3B3B3B"/>
</svg>
