<svg fill="none" height="36" viewBox="0 0 37 36" width="37" xmlns="http://www.w3.org/2000/svg"><g stroke="#fff" stroke-width="1.286"><path d="m18.8138 23.4666c1.3639 0 2.672-.5418 3.6365-1.5063s1.5063-2.2726 1.5063-3.6365c0-1.364-.5418-2.6721-1.5063-3.6366s-2.2726-1.5063-3.6365-1.5063c-1.364 0-2.6721.5418-3.6366 1.5063s-1.5063 2.2726-1.5063 3.6366c0 1.3639.5418 2.672 1.5063 3.6365s2.2726 1.5063 3.6366 1.5063z" stroke-linecap="round" stroke-linejoin="round"/><path d="m7.24268 23.4666v-10.2857c0-1.705.67729-3.3401 1.88288-4.5457 1.20554-1.20559 2.84074-1.88288 4.54564-1.88288h10.2857c1.705 0 3.3401.67729 4.5457 1.88288 1.2056 1.2056 1.8829 2.8407 1.8829 4.5457v10.2857c0 1.705-.6773 3.3401-1.8829 4.5457s-2.8407 1.8829-4.5457 1.8829h-10.2857c-1.7049 0-3.3401-.6773-4.54564-1.8829-1.20559-1.2056-1.88288-2.8407-1.88288-4.5457z"/><path d="m25.8853 11.2658.0133-.0148" stroke-linecap="round" stroke-linejoin="round"/></g></svg>