<svg fill="none" height="36" viewBox="0 0 37 36" width="37" xmlns="http://www.w3.org/2000/svg"><g stroke="#1e1e1e" stroke-width="1.286"><path d="m19.3142 23.1429c1.364 0 2.6721-.5418 3.6366-1.5063s1.5063-2.2726 1.5063-3.6366c0-1.3639-.5418-2.672-1.5063-3.6365s-2.2726-1.5063-3.6366-1.5063c-1.3639 0-2.672.5418-3.6365 1.5063s-1.5063 2.2726-1.5063 3.6365c0 1.364.5418 2.6721 1.5063 3.6366s2.2726 1.5063 3.6365 1.5063z" stroke-linecap="round" stroke-linejoin="round"/><path d="m7.74316 23.1429v-10.2857c0-1.705.6773-3.34013 1.88289-4.54573 1.20555-1.20559 2.84075-1.88288 4.54565-1.88288h10.2857c1.705 0 3.3401.67729 4.5457 1.88288 1.2056 1.2056 1.8829 2.84073 1.8829 4.54573v10.2857c0 1.7049-.6773 3.3401-1.8829 4.5457s-2.8407 1.8829-4.5457 1.8829h-10.2857c-1.7049 0-3.3401-.6773-4.54565-1.8829-1.20559-1.2056-1.88289-2.8408-1.88289-4.5457z"/><path d="m26.3857 10.942.0134-.0147" stroke-linecap="round" stroke-linejoin="round"/></g></svg>