<svg fill="none" viewBox="0 0 36 36"><path fill="#1e1e1e" d="M11.457 14.151H6.314a.643.643 0 00-.643.643v15.428a.643.643 0 00.643.643h5.143a.643.643 0 00.642-.643V14.794a.643.643 0 00-.642-.643zm-.643 15.428H6.957V15.438h3.857zm14.143-15.428a6.33 6.33 0 00-3.858 1.31v-.667a.643.643 0 00-.642-.643h-5.143a.643.643 0 00-.643.643v15.428a.643.643 0 00.643.643h5.143a.643.643 0 00.642-.643v-7.071a1.929 1.929 0 013.858 0v7.071a.643.643 0 00.642.643h5.143a.643.643 0 00.643-.643V20.58a6.436 6.436 0 00-6.428-6.428zm5.142 15.428h-3.857v-6.428a3.215 3.215 0 00-6.428 0v6.428h-3.857V15.438h3.857v1.546a.643.643 0 001.144.403 5.12 5.12 0 019.141 3.194zM9.36 5.154a3.509 3.509 0 00-.455-.003A3.523 3.523 0 005.142 8.66a3.484 3.484 0 003.69 3.507h.035a3.515 3.515 0 00.491-7.013zm-.046 5.731a2.255 2.255 0 01-.446-.004h-.036a2.234 2.234 0 01-2.194-3.16 2.232 2.232 0 012.267-1.284 2.234 2.234 0 11.41 4.448z"/></svg>