<svg fill="none" height="36" viewBox="0 0 37 36" width="37" xmlns="http://www.w3.org/2000/svg"><path d="m11.9568 13.7604h-5.14282c-.17049 0-.334.0678-.45456.1883-.12056.1206-.18829.2841-.18829.4546v15.4286c0 .1705.06773.334.18829.4545.12056.1206.28407.1883.45456.1883h5.14282c.1705 0 .334-.0677.4546-.1883.1206-.1205.1883-.284.1883-.4545v-15.4286c0-.1705-.0677-.334-.1883-.4546-.1206-.1205-.2841-.1883-.4546-.1883zm-.6428 15.4286h-3.85716v-14.1428h3.85716zm14.1428-15.4286c-1.395 0-2.7514.4603-3.8571 1.3102v-.6673c0-.1705-.0677-.334-.1883-.4546-.1206-.1205-.2841-.1883-.4546-.1883h-5.1428c-.1705 0-.334.0678-.4546.1883-.1206.1206-.1883.2841-.1883.4546v15.4286c0 .1705.0677.334.1883.4545.1206.1206.2841.1883.4546.1883h5.1428c.1705 0 .334-.0677.4546-.1883.1206-.1205.1883-.284.1883-.4545v-7.0715c0-.5114.2032-1.002.5649-1.3637.3616-.3616.8522-.5648 1.3637-.5648.5114 0 1.002.2032 1.3637.5648.3616.3617.5648.8523.5648 1.3637v7.0715c0 .1705.0678.334.1883.4545.1206.1206.2841.1883.4546.1883h5.1428c.1705 0 .334-.0677.4546-.1883.1206-.1205.1883-.284.1883-.4545v-9.6429c-.002-1.7043-.68-3.3383-1.8851-4.5434-1.2052-1.2052-2.8391-1.8831-4.5435-1.8852zm5.1429 15.4286h-3.8572v-6.4286c0-.8524-.3386-1.67-.9414-2.2728s-1.4204-.9414-2.2728-.9414c-.8525 0-1.6701.3386-2.2729.9414s-.9414 1.4204-.9414 2.2728v6.4286h-3.8572v-14.1428h3.8572v1.5467c-.0001.1331.0413.263.1182.3717.077.1086.1857.1907.3114.2349.1256.0441.2618.0482.3898.0117.128-.0366.2415-.112.3249-.2159.6602-.8369 1.5652-1.4469 2.5886-1.7449 1.0235-.2981 2.1145-.2693 3.1208.0823 1.0064.3516 1.8779 1.0084 2.4931 1.879.6152.8705.9434 1.9113.9389 2.9773zm-20.74115-24.42598c-.15107-.01065-.30267-.01151-.45385-.00257-.48116-.03274-.96391.03366-1.41836.19509s-.87091.41445-1.22359.74338c-.35268.32894-.63407.72679-.82673 1.1689s-.2925.91907-.29332 1.40134c-.00399.47723.0901.95019.27643 1.38956.18634.43938.46095.83578.8068 1.16458.34585.3289.75558.5832 1.20377.7472s.92529.2341 1.40171.2061h.036c.46052.0322.92289-.0265 1.36069-.173.4378-.1464.8425-.3776 1.1909-.6805.3484-.3028.6338-.6713.8399-1.08443.206-.41312.3286-.86278.3609-1.32329.0322-.46052-.0266-.92288-.173-1.36069-.1464-.4378-.3777-.84247-.6805-1.19091s-.6713-.63382-1.0845-.83985c-.4131-.20602-.8627-.32866-1.32325-.36091zm-.045 5.73168c-.14847.0135-.29792.0122-.44614-.0038h-.036c-.30943.0232-.62032-.0183-.91281-.1219-.29248-.1037-.56015-.2672-.78589-.48006-.22575-.21291-.40463-.47055-.52521-.75647s-.18021-.59385-.1751-.90411c.00512-.31027.07487-.61606.20481-.89785s.31721-.53339.54986-.73874c.23264-.20534.50555-.35992.8013-.45387.29574-.09394.60783-.12519.91633-.09174.58991-.05422 1.1772.12813 1.6327.50693.4555.37879.7418.92301.796 1.51293s-.1281 1.17721-.5069 1.63268c-.3788.4555-.923.7418-1.51295.796z" fill="#fff"/></svg>