<svg fill="none" height="36" viewBox="0 0 36 36" width="36" xmlns="http://www.w3.org/2000/svg"><path d="m11.4566 14.151h-5.14286c-.1705 0-.33401.0677-.45457.1882-.12056.1206-.18829.2841-.18829.4546v15.4286c0 .1705.06773.334.18829.4546.12056.1205.28407.1882.45457.1882h5.14286c.1705 0 .334-.0677.4546-.1882.1205-.1206.1882-.2841.1882-.4546v-15.4286c0-.1705-.0677-.334-.1882-.4546-.1206-.1205-.2841-.1882-.4546-.1882zm-.6429 15.4285h-3.8571v-14.1428h3.8571zm14.1429-15.4285c-1.395 0-2.7514.4602-3.8572 1.3101v-.6673c0-.1705-.0677-.334-.1882-.4546-.1206-.1205-.2841-.1882-.4546-.1882h-5.1429c-.1705 0-.334.0677-.4545.1882-.1206.1206-.1883.2841-.1883.4546v15.4286c0 .1705.0677.334.1883.4546.1205.1205.284.1882.4545.1882h5.1429c.1705 0 .334-.0677.4546-.1882.1205-.1206.1882-.2841.1882-.4546v-7.0714c0-.5115.2032-1.0021.5649-1.3638.3617-.3616.8522-.5648 1.3637-.5648s1.002.2032 1.3637.5648c.3617.3617.5649.8523.5649 1.3638v7.0714c0 .1705.0677.334.1883.4546.1205.1205.284.1882.4545.1882h5.1429c.1705 0 .334-.0677.4546-.1882.1205-.1206.1882-.2841.1882-.4546v-9.6429c-.002-1.7043-.6799-3.3383-1.8851-4.5434-1.2051-1.2052-2.8391-1.8831-4.5434-1.8851zm5.1428 15.4285h-3.8571v-6.4285c0-.8525-.3387-1.6701-.9414-2.2729-.6028-.6028-1.4204-.9414-2.2729-.9414s-1.67.3386-2.2728.9414-.9415 1.4204-.9415 2.2729v6.4285h-3.8571v-14.1428h3.8571v1.5467c0 .1331.0413.263.1183.3717.0769.1086.1857.1907.3113.2349.1256.0441.2618.0482.3899.0117.128-.0366.2415-.112.3248-.2159.6603-.8369 1.5652-1.4469 2.5887-1.7449 1.0235-.2981 2.1144-.2693 3.1208.0823 1.0063.3516 1.8779 1.0084 2.4931 1.879.6152.8705.9434 1.9113.9388 2.9773zm-20.74109-24.42598c-.15107-.01065-.30267-.01151-.45386-.00257-.48115-.03274-.96391.03366-1.41835.19509-.45445.16143-.87091.41445-1.22359.74339-.35268.32893-.63407.72678-.82673 1.16889-.19267.44211-.2925.91908-.29332 1.40134-.004.47723.09009.95019.27643 1.38954.18633.4394.46094.8358.8068 1.1646.34585.3289.75558.5832 1.20377.7472s.92529.2341 1.40171.2061h.036c.46051.0322.92287-.0265 1.36063-.173.4379-.1464.8425-.3776 1.191-.6805.3484-.3028.6338-.6713.8398-1.0844.206-.41315.3287-.8628.3609-1.32332.0323-.46052-.0265-.92288-.1729-1.36068-.1465-.43781-.3777-.84248-.6805-1.19092-.3029-.34844-.6714-.63382-1.0845-.83985-.4131-.20602-.86277-.32866-1.32329-.36091zm-.045 5.73168c-.14848.0135-.29792.0122-.44614-.0038h-.036c-.30944.0232-.62032-.0183-.91281-.1219-.29249-.1037-.56015-.2672-.7859-.4801s-.40462-.4705-.5252-.75643c-.12058-.28592-.18022-.59384-.1751-.90411.00511-.31026.07487-.61605.20481-.89785.12994-.28179.31721-.53339.54986-.73874.23264-.20534.50555-.35992.80129-.45387.29575-.09394.60783-.12519.91633-.09174.58992-.05421 1.17725.12813 1.63265.50693.4555.3788.7418.92301.7961 1.51293.0542.58992-.1282 1.17721-.507 1.63268-.3788.4555-.92297.7418-1.51289.796z" fill="#1e1e1e"/></svg>