<svg width="23" height="24" viewBox="0 0 23 24" fill="none" xmlns="http://www.w3.org/2000/svg">
<path d="M22.8877 2.12443V21.5428C22.8877 21.9868 22.7113 22.4125 22.3974 22.7265C22.0834 23.0404 21.6577 23.2168 21.2137 23.2168H1.79533C1.35136 23.2168 0.925575 23.0404 0.61164 22.7265C0.297705 22.4125 0.121338 21.9868 0.121338 21.5428L0.121338 2.12443C0.121338 1.68046 0.297705 1.25468 0.61164 0.940741C0.925575 0.626806 1.35136 0.450439 1.79533 0.450439L21.2137 0.450439C21.6577 0.450439 22.0834 0.626806 22.3974 0.940741C22.7113 1.25468 22.8877 1.68046 22.8877 2.12443ZM6.81732 9.15522H3.46933V19.8688H6.81732V9.15522ZM7.11864 5.47243C7.1204 5.21918 7.07227 4.96806 6.97698 4.73342C6.8817 4.49877 6.74112 4.28519 6.56329 4.10487C6.38546 3.92456 6.17386 3.78103 5.94056 3.6825C5.70726 3.58396 5.45684 3.53234 5.20359 3.53059H5.14332C4.62832 3.53059 4.1344 3.73518 3.77024 4.09934C3.40608 4.46351 3.20149 4.95742 3.20149 5.47243C3.20149 5.98743 3.40608 6.48135 3.77024 6.84551C4.1344 7.20967 4.62832 7.41426 5.14332 7.41426C5.39659 7.42049 5.6486 7.37676 5.88496 7.28556C6.12132 7.19436 6.33739 7.05748 6.52083 6.88275C6.70427 6.70801 6.85148 6.49885 6.95406 6.2672C7.05663 6.03555 7.11256 5.78596 7.11864 5.53269V5.47243ZM19.5397 13.3603C19.5397 10.1395 17.4907 8.88738 15.4551 8.88738C14.7886 8.854 14.1251 8.99596 13.5305 9.29909C12.936 9.60221 12.4314 10.0559 12.067 10.6149H11.9732V9.15522H8.82611V19.8688H12.1741V14.1705C12.1257 13.5869 12.3095 13.0078 12.6857 12.5589C13.0618 12.1101 13.5998 11.8278 14.1829 11.7733H14.3101C15.3748 11.7733 16.1649 12.4429 16.1649 14.1303V19.8688H19.5129L19.5397 13.3603Z" fill="#3B3B3B"/>
</svg>
