<svg fill="none" viewBox="0 0 37 36"><path fill="#fff" d="M11.957 13.76H6.814a.643.643 0 00-.643.643v15.429a.643.643 0 00.643.643h5.143a.643.643 0 00.643-.643V14.403a.643.643 0 00-.643-.643zm-.643 15.429H7.457V15.046h3.857zM25.457 13.76a6.33 6.33 0 00-3.857 1.31v-.667a.643.643 0 00-.643-.643h-5.143a.643.643 0 00-.643.643v15.429a.642.642 0 00.643.643h5.143a.643.643 0 00.643-.643V22.76a1.929 1.929 0 013.857 0v7.072a.643.643 0 00.643.643h5.143a.643.643 0 00.642-.643v-9.643a6.436 6.436 0 00-6.428-6.429zM30.6 29.19h-3.857v-6.43a3.214 3.214 0 10-6.429 0v6.429h-3.857V15.046h3.857v1.547a.643.643 0 001.144.402A5.12 5.12 0 0130.6 20.19zM9.859 4.763a3.509 3.509 0 00-.454-.003 3.523 3.523 0 00-3.762 3.51 3.484 3.484 0 003.688 3.507h.036a3.515 3.515 0 00.492-7.014zm-.045 5.732a2.255 2.255 0 01-.447-.004h-.036a2.234 2.234 0 01-2.194-3.16 2.232 2.232 0 012.268-1.285 2.234 2.234 0 01.409 4.449z"/></svg>