<svg width="23" height="24" viewBox="0 0 23 24" fill="none" xmlns="http://www.w3.org/2000/svg">
<path d="M22.8878 2.12443V21.5428C22.8878 21.9868 22.7115 22.4125 22.3975 22.7265C22.0836 23.0404 21.6578 23.2168 21.2138 23.2168H1.79549C1.35151 23.2168 0.925727 23.0404 0.611792 22.7265C0.297857 22.4125 0.12149 21.9868 0.12149 21.5428L0.12149 2.12443C0.12149 1.68046 0.297857 1.25468 0.611792 0.940741C0.925727 0.626806 1.35151 0.450439 1.79549 0.450439L21.2138 0.450439C21.6578 0.450439 22.0836 0.626806 22.3975 0.940741C22.7115 1.25468 22.8878 1.68046 22.8878 2.12443ZM6.81747 9.15522H3.46948V19.8688H6.81747V9.15522ZM7.11879 5.47243C7.12056 5.21918 7.07242 4.96806 6.97713 4.73342C6.88185 4.49877 6.74128 4.28519 6.56345 4.10487C6.38562 3.92456 6.17401 3.78103 5.94071 3.6825C5.70741 3.58396 5.45699 3.53234 5.20374 3.53059H5.14348C4.62847 3.53059 4.13456 3.73518 3.77039 4.09934C3.40623 4.46351 3.20164 4.95742 3.20164 5.47243C3.20164 5.98743 3.40623 6.48135 3.77039 6.84551C4.13456 7.20967 4.62847 7.41426 5.14348 7.41426C5.39674 7.42049 5.64875 7.37676 5.88511 7.28556C6.12147 7.19436 6.33754 7.05748 6.52098 6.88275C6.70442 6.70801 6.85164 6.49885 6.95421 6.2672C7.05679 6.03555 7.11271 5.78596 7.11879 5.53269V5.47243ZM19.5398 13.3603C19.5398 10.1395 17.4909 8.88738 15.4553 8.88738C14.7888 8.854 14.1252 8.99596 13.5307 9.29909C12.9362 9.60221 12.4316 10.0559 12.0671 10.6149H11.9734V9.15522H8.82627V19.8688H12.1743V14.1705C12.1259 13.5869 12.3097 13.0078 12.6858 12.5589C13.0619 12.1101 13.6 11.8278 14.1831 11.7733H14.3103C15.3749 11.7733 16.1651 12.4429 16.1651 14.1303V19.8688H19.5131L19.5398 13.3603Z" fill="white"/>
</svg>
