<svg fill="none" height="36" viewBox="0 0 37 36" width="37" xmlns="http://www.w3.org/2000/svg"><path d="m30.8527 12.4622c-.1409-.5248-.4172-1.0033-.8011-1.3877-.384-.3845-.8622-.6613-1.3868-.8029-1.9311-.51928-9.6718-.51928-9.6718-.51928s-7.7407 0-9.67175.51658c-.52483.1411-1.00329.4178-1.38734.8023s-.66016.8632-.80061 1.3882c-.5166 1.9336-.5166 5.9666-.5166 5.9666s0 4.0331.5166 5.9639c.28454 1.0663 1.12437 1.906 2.18795 2.1906 1.93105.5193 9.67175.5193 9.67175.5193s7.7407 0 9.6718-.5193c1.0663-.2846 1.9034-1.1243 2.1879-2.1906.5166-1.9308.5166-5.9639.5166-5.9639s0-4.033-.5166-5.9638zm-14.3184 9.6654v-7.4031l6.4092 3.6739z" stroke="#fff" stroke-width="1.286"/></svg>