<svg width="28" height="21" viewBox="0 0 28 21" fill="none" xmlns="http://www.w3.org/2000/svg">
<path d="M27.0937 3.81521C26.9373 3.23267 26.6306 2.70144 26.2044 2.27466C25.7782 1.84789 25.2473 1.54055 24.665 1.3834C22.5214 0.806885 13.9289 0.806885 13.9289 0.806885C13.9289 0.806885 5.33628 0.806885 3.19274 1.38034C2.61015 1.53697 2.07903 1.84414 1.65272 2.271C1.2264 2.69785 0.919906 3.22935 0.764003 3.81214C0.190552 5.95875 0.190552 10.436 0.190552 10.436C0.190552 10.436 0.190552 14.9132 0.764003 17.0567C1.07986 18.2404 2.0121 19.1727 3.19274 19.4885C5.33628 20.065 13.9289 20.065 13.9289 20.065C13.9289 20.065 22.5214 20.065 24.665 19.4885C25.8487 19.1727 26.7779 18.2404 27.0937 17.0567C27.6672 14.9132 27.6672 10.436 27.6672 10.436C27.6672 10.436 27.6672 5.95875 27.0937 3.81521ZM11.1996 14.5452V6.32674L18.3141 10.4053L11.1996 14.5452Z" fill="white"/>
</svg>
