<svg fill="none" height="36" viewBox="0 0 37 36" width="37" xmlns="http://www.w3.org/2000/svg"><path d="m30.3522 11.7104c-.1409-.5247-.4171-1.0033-.8011-1.3877-.384-.38443-.8622-.66128-1.3868-.80283-1.9311-.51932-9.6718-.51932-9.6718-.51932s-7.7407 0-9.67173.51656c-.52484.14109-1.0033.41779-1.38735.80229s-.66016.8633-.80061 1.3882c-.5166 1.9337-.5166 5.9667-.5166 5.9667s0 4.033.5166 5.9639c.28455 1.0662 1.12437 1.906 2.18796 2.1905 1.93103.5193 9.67173.5193 9.67173.5193s7.7407 0 9.6718-.5193c1.0663-.2845 1.9034-1.1243 2.1879-2.1905.5166-1.9309.5166-5.9639.5166-5.9639s0-4.033-.5166-5.9639zm-14.3184 9.6654v-7.4031l6.4092 3.674z" stroke="#1e1e1e" stroke-width="1.286"/></svg>