<svg width="28" height="21" viewBox="0 0 28 21" fill="none" xmlns="http://www.w3.org/2000/svg">
<path d="M27.0936 3.81521C26.9372 3.23267 26.6305 2.70144 26.2043 2.27466C25.778 1.84789 25.2472 1.54055 24.6649 1.3834C22.5213 0.806885 13.9287 0.806885 13.9287 0.806885C13.9287 0.806885 5.33616 0.806885 3.19262 1.38034C2.61003 1.53697 2.07891 1.84414 1.6526 2.271C1.22628 2.69785 0.919784 3.22935 0.763881 3.81214C0.19043 5.95875 0.19043 10.436 0.19043 10.436C0.19043 10.436 0.19043 14.9132 0.763881 17.0567C1.07974 18.2404 2.01198 19.1727 3.19262 19.4885C5.33616 20.065 13.9287 20.065 13.9287 20.065C13.9287 20.065 22.5213 20.065 24.6649 19.4885C25.8486 19.1727 26.7777 18.2404 27.0936 17.0567C27.667 14.9132 27.667 10.436 27.667 10.436C27.667 10.436 27.667 5.95875 27.0936 3.81521ZM11.1995 14.5452V6.32674L18.314 10.4053L11.1995 14.5452Z" fill="#3B3B3B"/>
</svg>
