<svg xmlns="http://www.w3.org/2000/svg" width="290" height="291" fill="none" viewBox="0 0 290 291"><path fill="#000" d="M139.264 259.443H141.719C141.789 259.845 141.918 260.202 142.106 260.512C142.294 260.827 142.528 261.094 142.808 261.313C143.088 261.532 143.408 261.696 143.767 261.805C144.121 261.919 144.504 261.976 144.915 261.976C145.646 261.976 146.293 261.792 146.858 261.425C147.422 261.062 147.864 260.528 148.183 259.823C148.503 259.123 148.662 258.268 148.662 257.257C148.662 256.229 148.503 255.363 148.183 254.658C147.86 253.958 147.418 253.429 146.858 253.07C146.293 252.716 145.648 252.539 144.922 252.539C144.519 252.539 144.143 252.591 143.793 252.696C143.438 252.805 143.121 252.965 142.841 253.175C142.557 253.385 142.318 253.643 142.126 253.95C141.929 254.256 141.793 254.606 141.719 255L139.264 254.986C139.356 254.348 139.555 253.748 139.862 253.188C140.164 252.628 140.56 252.134 141.05 251.705C141.54 251.281 142.113 250.948 142.769 250.708C143.425 250.471 144.154 250.353 144.954 250.353C146.136 250.353 147.19 250.627 148.118 251.173C149.045 251.72 149.776 252.51 150.31 253.543C150.844 254.575 151.11 255.813 151.11 257.257C151.11 258.705 150.841 259.944 150.303 260.972C149.765 262.004 149.032 262.794 148.105 263.341C147.177 263.888 146.127 264.161 144.954 264.161C144.206 264.161 143.511 264.056 142.867 263.846C142.224 263.636 141.651 263.328 141.148 262.921C140.645 262.518 140.231 262.024 139.908 261.438C139.579 260.856 139.365 260.191 139.264 259.443Z"/><path fill="#000" d="M125.3 255.776C125.469 254.338 125.882 253.137 126.541 252.175C127.195 251.216 128.016 250.519 129.005 250.084C129.99 249.649 131.067 249.499 132.236 249.636C133.405 249.772 134.42 250.167 135.283 250.818C136.14 251.473 136.778 252.343 137.198 253.427C137.612 254.515 137.736 255.776 137.568 257.21C137.4 258.649 136.989 259.847 136.335 260.806C135.677 261.769 134.855 262.468 133.87 262.903C132.881 263.338 131.802 263.487 130.633 263.351C129.464 263.214 128.45 262.82 127.593 262.169C126.731 261.518 126.092 260.648 125.678 259.56C125.258 258.476 125.132 257.215 125.3 255.776ZM127.732 256.061C127.614 257.073 127.672 257.946 127.908 258.678C128.139 259.414 128.512 259.993 129.027 260.414C129.541 260.84 130.161 261.095 130.887 261.18C131.612 261.265 132.274 261.16 132.873 260.864C133.471 260.573 133.969 260.096 134.368 259.433C134.762 258.774 135.019 257.939 135.137 256.926C135.255 255.914 135.199 255.039 134.968 254.303C134.732 253.571 134.357 252.991 133.843 252.566C133.328 252.144 132.708 251.891 131.982 251.807C131.256 251.722 130.595 251.825 129.997 252.116C129.398 252.412 128.902 252.889 128.508 253.548C128.109 254.21 127.85 255.048 127.732 256.061Z"/><path fill="#000" d="M123.917 248.515L120.817 261.593L118.448 261.032L121.077 249.939L115.317 248.574L115.788 246.588L123.917 248.515Z"/><path fill="#000" d="M112.02 245.355L107.423 257.985L105.135 257.153L109.034 246.44L103.471 244.416L104.169 242.498L112.02 245.355Z"/><path fill="#000" d="M100.326 240.713L102.648 241.879L92.3874 251.766L89.7013 250.417L91.4991 236.28L93.8216 237.446L92.2345 248.605L92.3283 248.652L100.326 240.713ZM97.8842 245.384L91.5502 242.203L92.428 240.455L98.7619 243.636L97.8842 245.384Z"/><path fill="#000" d="M90.9231 235.807L83.5372 247.036L79.2384 244.209C78.4269 243.675 77.8366 243.104 77.4676 242.494C77.0924 241.886 76.9157 241.275 76.9374 240.661C76.9554 240.044 77.1471 239.458 77.5125 238.903C77.8131 238.446 78.1581 238.112 78.5475 237.902C78.9345 237.696 79.3422 237.59 79.7705 237.583C80.1989 237.577 80.6247 237.65 81.0479 237.803L81.12 237.693C80.736 237.409 80.4346 237.036 80.2157 236.572C79.9907 236.11 79.8935 235.601 79.924 235.045C79.9545 234.489 80.1573 233.926 80.5324 233.356C80.9147 232.775 81.3992 232.344 81.986 232.065C82.5704 231.79 83.2337 231.705 83.9758 231.811C84.7179 231.917 85.5185 232.252 86.3775 232.817L90.9231 235.807ZM87.7708 236.168L85.583 234.73C84.8446 234.244 84.2202 234.035 83.7097 234.102C83.1932 234.171 82.7883 234.428 82.495 234.874C82.2762 235.207 82.1613 235.561 82.1503 235.936C82.1369 236.315 82.2314 236.68 82.4338 237.034C82.6338 237.39 82.944 237.707 83.3644 237.983L85.607 239.458L87.7708 236.168ZM84.6441 240.922L82.6318 239.599C82.2809 239.368 81.9226 239.224 81.557 239.167C81.1889 239.113 80.8464 239.152 80.5293 239.284C80.2061 239.417 79.9363 239.648 79.7199 239.977C79.4338 240.412 79.3517 240.872 79.4737 241.355C79.5919 241.836 79.9508 242.274 80.5503 242.668L82.6065 244.02L84.6441 240.922Z"/><path fill="#000" d="M67.5758 226.642C68.5067 225.533 69.5118 224.757 70.5911 224.314C71.6643 223.873 72.7336 223.742 73.799 223.922C74.8611 224.099 75.843 224.566 76.7445 225.323C77.6461 226.079 78.2781 226.966 78.6405 227.984C78.9967 229.003 79.0521 230.08 78.8068 231.217C78.5553 232.354 77.9656 233.475 77.0375 234.581C76.1066 235.691 75.1046 236.466 74.0314 236.908C72.9521 237.35 71.8814 237.483 70.8193 237.305C69.7538 237.125 68.7703 236.657 67.8687 235.9C66.9671 235.144 66.3369 234.258 65.9779 233.243C65.6155 232.225 65.5601 231.147 65.8115 230.011C66.0568 228.874 66.6449 227.751 67.5758 226.642ZM69.451 228.215C68.7958 228.996 68.3655 229.758 68.1602 230.499C67.9487 231.241 67.9422 231.93 68.1406 232.565C68.3361 233.203 68.7138 233.757 69.2735 234.226C69.8332 234.696 70.4443 234.972 71.1068 235.054C71.7664 235.139 72.4449 235.014 73.1424 234.68C73.8337 234.346 74.507 233.789 75.1622 233.008C75.8175 232.227 76.2509 231.465 76.4624 230.723C76.6677 229.982 76.6725 229.292 76.4769 228.654C76.2786 228.019 75.8995 227.467 75.3398 226.997C74.78 226.527 74.1704 226.25 73.5108 226.165C72.8483 226.083 72.1714 226.209 71.4802 226.543C70.7827 226.877 70.1063 227.435 69.451 228.215Z"/><path fill="#000" d="M71.3529 220.814L61.5765 230.038L58.1176 226.372C57.409 225.621 56.945 224.868 56.7256 224.112C56.5031 223.354 56.5043 222.622 56.7291 221.916C56.9477 221.211 57.3689 220.564 57.9927 219.975C58.6196 219.384 59.2899 219.004 60.0036 218.836C60.7111 218.668 61.4337 218.723 62.1715 219.001C62.9062 219.283 63.6278 219.799 64.3364 220.55L66.7999 223.161L65.3296 224.548L63.0912 222.176C62.6769 221.737 62.2772 221.434 61.892 221.268C61.5037 221.105 61.1287 221.068 60.7671 221.156C60.3993 221.245 60.042 221.453 59.6951 221.78C59.3482 222.107 59.1168 222.455 59.0008 222.823C58.8817 223.194 58.8906 223.579 59.0275 223.98C59.1613 224.383 59.4368 224.806 59.8542 225.248L61.3854 226.871L69.6821 219.043L71.3529 220.814ZM62.158 219.943L64.3046 213.344L66.1692 215.32L63.982 221.877L62.158 219.943Z"/><path fill="#000" d="M62.0429 210.418L63.5949 212.503L49.9881 216.733L48.1931 214.322L56.1447 202.495L57.6967 204.58L51.2702 213.84L51.3329 213.924L62.0429 210.418ZM57.7648 213.496L53.5322 207.811L55.1009 206.643L59.3335 212.329L57.7648 213.496Z"/><path fill="#000" d="M46.2791 208.049L44.5115 209.069L39.1496 199.782L40.9172 198.762L42.9943 202.36L52.8668 196.66L54.0744 198.751L44.2019 204.451L46.2791 208.049Z"/><path fill="#000" d="M35.1203 190.907L47.4618 185.583L48.4262 187.819L36.0847 193.143L35.1203 190.907Z"/><path fill="#000" d="M35.3567 170.58C36.7441 170.165 38.0102 170.069 39.1549 170.292C40.2943 170.513 41.2595 170.991 42.0508 171.727C42.8407 172.459 43.4045 173.389 43.742 174.516C44.0796 175.644 44.12 176.732 43.8634 177.782C43.6013 178.829 43.0555 179.759 42.2261 180.574C41.3913 181.386 40.2823 181.998 38.8991 182.413C37.5117 182.828 36.2484 182.925 35.1091 182.705C33.9643 182.481 32.9969 182.003 32.207 181.272C31.4157 180.536 30.8514 179.604 30.5138 178.476C30.1763 177.349 30.1364 176.262 30.3943 175.217C30.651 174.167 31.1967 173.237 32.0316 172.425C32.861 171.61 33.9693 170.995 35.3567 170.58ZM36.0588 172.925C35.0822 173.218 34.3044 173.617 33.7253 174.124C33.1409 174.628 32.7571 175.199 32.574 175.839C32.3867 176.479 32.3979 177.15 32.6074 177.85C32.817 178.55 33.176 179.116 33.6845 179.548C34.1889 179.982 34.8242 180.251 35.5907 180.354C36.3516 180.455 37.2204 180.36 38.197 180.067C39.1736 179.775 39.9542 179.377 40.5387 178.873C41.1177 178.366 41.5008 177.793 41.6881 177.152C41.8712 176.513 41.8579 175.843 41.6484 175.143C41.4388 174.443 41.0819 173.876 40.5776 173.443C40.0691 173.01 39.4343 172.744 38.6733 172.643C37.9069 172.539 37.0354 172.633 36.0588 172.925Z"/><path fill="#000" d="M26.6018 159.481L39.8384 157.147L40.2145 159.28L32.2981 167.106L32.3175 167.216L41.3336 165.627L41.7564 168.024L28.5198 170.358L28.1415 168.213L36.0655 160.391L36.0449 160.275L27.0224 161.866L26.6018 159.481Z"/><path fill="#000" d="M39.652 138.057C39.6289 138.454 39.4693 138.787 39.1732 139.055C38.8771 139.322 38.5283 139.442 38.1267 139.414C37.7333 139.396 37.4051 139.237 37.1421 138.936C36.8791 138.636 36.7592 138.287 36.7823 137.89C36.8047 137.505 36.964 137.179 37.26 136.912C37.5564 136.64 37.9012 136.513 38.2946 136.532C38.5608 136.552 38.7991 136.636 39.0096 136.784C39.2204 136.927 39.3849 137.112 39.5032 137.338C39.6174 137.56 39.667 137.799 39.652 138.057Z"/><path fill="#000" d="M43.5049 115.239L42.1987 119.602L29.3225 115.747L30.6552 111.296C31.0379 110.018 31.6244 108.997 32.4148 108.233C33.2022 107.464 34.1499 106.976 35.2578 106.769C36.3657 106.561 37.5882 106.658 38.9253 107.058C40.2665 107.46 41.3445 108.054 42.1592 108.842C42.9752 109.625 43.501 110.561 43.7368 111.65C43.9737 112.735 43.8965 113.931 43.5049 115.239ZM40.8788 116.665L41.4529 114.748C41.7214 113.851 41.7819 113.054 41.6345 112.356C41.4828 111.658 41.1252 111.06 40.5617 110.562C39.9939 110.064 39.2176 109.667 38.2326 109.372C37.2476 109.077 36.3851 108.983 35.6451 109.09C34.9009 109.196 34.2789 109.497 33.7793 109.991C33.2766 110.48 32.8948 111.16 32.6338 112.032L32.039 114.019L40.8788 116.665Z"/><path fill="#000" d="M36.0905 96.4478L48.432 101.771L47.4676 104.007L35.1261 98.6834L36.0905 96.4478Z"/><path fill="#000" d="M40.3465 87.7478L51.2575 90.0081L51.3264 89.8887L43.9101 81.5753L45.2489 79.2564L54.5198 90.0804L53.0169 92.6835L39.0109 90.061L40.3465 87.7478Z"/><path fill="#000" d="M57.6697 85.0601L46.8885 77.0338L52.1087 70.0218L53.7459 71.2407L49.9797 76.2996L52.9066 78.4786L56.4024 73.7829L58.0396 75.0017L54.5438 79.6974L57.4865 81.8882L61.2841 76.7872L62.9212 78.006L57.6697 85.0601Z"/><path fill="#000" d="M64.9237 75.6033L55.1472 66.3797L58.6061 62.7135C59.3147 61.9624 60.0397 61.4554 60.781 61.1924C61.5254 60.9263 62.2562 60.8849 62.9734 61.0683C63.6904 61.2455 64.3608 61.6284 64.9845 62.2168C65.6115 62.8083 66.0296 63.4554 66.2388 64.1581C66.4479 64.8546 66.4349 65.5792 66.1999 66.332C65.9618 67.0817 65.4884 67.8321 64.7798 68.5832L62.3163 71.1944L60.846 69.8072L63.0843 67.4347C63.4987 66.9955 63.7775 66.5789 63.9208 66.1847C64.0609 65.7876 64.0762 65.4111 63.9668 65.0552C63.8572 64.6932 63.629 64.3486 63.2821 64.0213C62.9352 63.694 62.5747 63.4832 62.2006 63.3889C61.8232 63.2915 61.4388 63.3228 61.0473 63.4828C60.6526 63.6397 60.2466 63.9394 59.8292 64.3817L58.298 66.0048L66.5946 73.8323L64.9237 75.6033ZM65.2587 66.3733L71.972 68.1325L70.1075 70.1088L63.4347 68.3066L65.2587 66.3733Z"/><path fill="#000" d="M72.8374 54.5969C72.4221 54.1973 71.9375 54.0213 71.3836 54.0691C70.8331 54.1141 70.2813 54.3687 69.7283 54.8327C69.3395 55.1589 69.0553 55.4974 68.8755 55.8481C68.6957 56.1989 68.6165 56.5367 68.6378 56.8615C68.659 57.1863 68.7763 57.4792 68.9895 57.7401C69.1695 57.9546 69.3742 58.0998 69.6035 58.1758C69.8363 58.249 70.0845 58.2691 70.3482 58.2363C70.6092 58.2001 70.8745 58.1317 71.1441 58.0311C71.4138 57.9305 71.6753 57.8167 71.9287 57.6898L73.0964 57.1212C73.5611 56.8854 74.0375 56.6942 74.5255 56.5474C75.0168 56.3979 75.5034 56.3209 75.9851 56.3164C76.4703 56.3092 76.9358 56.4012 77.3818 56.5924C77.8278 56.7835 78.2378 57.102 78.6119 57.5478C79.1181 58.1511 79.4097 58.8117 79.4866 59.5296C79.5608 60.2442 79.4145 60.9752 79.0479 61.7226C78.6818 62.4638 78.0865 63.1804 77.262 63.8722C76.4609 64.5444 75.6614 65.0039 74.8634 65.2509C74.0688 65.495 73.3059 65.5184 72.5747 65.3208C71.8469 65.1205 71.1827 64.6897 70.5822 64.0285L72.4172 62.4887C72.7449 62.8249 73.1058 63.0304 73.4999 63.1052C73.894 63.1801 74.2961 63.1454 74.7062 63.0011C75.1197 62.8541 75.5208 62.6174 75.9096 62.2912C76.3152 61.9509 76.6198 61.5925 76.8236 61.2159C77.0279 60.8331 77.1258 60.4597 77.1172 60.0956C77.1059 59.7281 76.9782 59.3955 76.734 59.0978C76.5057 58.8325 76.2413 58.6774 75.9409 58.6324C75.6377 58.5842 75.2978 58.6181 74.9211 58.7342C74.5451 58.8442 74.1333 59.0069 73.6859 59.2224L72.2614 59.9037C71.2306 60.3974 70.2833 60.6297 69.4193 60.6007C68.5559 60.5655 67.8149 60.1793 67.1962 59.4419C66.6871 58.8353 66.4056 58.1662 66.3516 57.4348C66.3009 56.7005 66.455 55.9687 66.8139 55.2392C67.1699 54.5064 67.7082 53.8376 68.4288 53.233C69.1595 52.6199 69.9065 52.2101 70.6699 52.0036C71.4339 51.7909 72.1618 51.777 72.8537 51.9617C73.5428 52.1431 74.1357 52.5195 74.6322 53.0909L72.8374 54.5969Z"/><path fill="#000" d="M80.5943 44.5031L87.9801 55.7327L85.9458 57.0707L78.56 45.8411L80.5943 44.5031Z"/><path fill="#000" d="M87.7015 42.4745L86.7855 40.6506L96.3686 35.8378L97.2846 37.6617L93.5722 39.5262L98.6883 49.7133L96.5301 50.7972L91.4139 40.6101L87.7015 42.4745Z"/><path fill="#000" d="M98.5811 34.8366L101.165 33.8961L106.288 38.3589L106.412 38.314L107.468 31.6021L110.052 30.6616L108.339 40.2524L110.054 44.964L107.773 45.7946L106.058 41.0829L98.5811 34.8366Z"/><path fill="#000" d="M133.428 39.7887C133.032 39.8349 132.677 39.7355 132.362 39.4904C132.047 39.2453 131.868 38.9226 131.826 38.5223C131.776 38.1317 131.876 37.7808 132.126 37.4697C132.376 37.1585 132.699 36.9798 133.094 36.9336C133.476 36.8889 133.825 36.9891 134.14 37.2342C134.459 37.4788 134.644 37.7964 134.694 38.187C134.721 38.4526 134.68 38.7019 134.57 38.935C134.465 39.1675 134.312 39.3616 134.11 39.5174C133.911 39.6683 133.684 39.7587 133.428 39.7887Z"/><path fill="#000" d="M160.156 26.5076L158.595 39.8575L156.177 39.5749L157.737 26.225L160.156 26.5076Z"/><path fill="#000" d="M178.55 30.1849L175.451 43.2634L173.343 42.7639L169.292 32.395L169.184 32.3692L167.072 41.2777L164.703 40.7162L167.803 27.6377L169.923 28.1402L173.966 38.514L174.081 38.5412L176.194 29.6264L178.55 30.1849Z"/><path fill="#000" d="M189.932 39.0513L187.625 38.2118C187.697 37.8096 187.698 37.4304 187.627 37.0742C187.558 36.7138 187.43 36.3829 187.241 36.0816C187.053 35.7802 186.809 35.5168 186.509 35.2913C186.215 35.0632 185.875 34.8789 185.488 34.7382C184.802 34.4883 184.131 34.4395 183.474 34.5918C182.82 34.74 182.222 35.0905 181.681 35.6432C181.141 36.1917 180.699 36.9409 180.353 37.8906C180.002 38.8568 179.855 39.7255 179.914 40.4967C179.979 41.2652 180.213 41.9138 180.617 42.4425C181.026 42.9686 181.572 43.3558 182.255 43.6042C182.633 43.7419 183.004 43.8212 183.369 43.8423C183.74 43.8607 184.092 43.8191 184.427 43.7176C184.766 43.6175 185.079 43.4565 185.364 43.2345C185.654 43.014 185.901 42.7315 186.106 42.3869L188.408 43.2388C188.103 43.8076 187.711 44.3028 187.232 44.7243C186.756 45.1473 186.215 45.4765 185.608 45.7118C185.002 45.943 184.35 46.0594 183.651 46.0611C182.954 46.0586 182.229 45.9205 181.476 45.6466C180.366 45.2426 179.469 44.625 178.784 43.7938C178.1 42.9627 177.683 41.9707 177.535 40.8178C177.386 39.665 177.559 38.4101 178.053 37.0534C178.548 35.6925 179.225 34.621 180.082 33.8389C180.941 33.0527 181.899 32.5612 182.958 32.3645C184.017 32.1679 185.097 32.27 186.199 32.6711C186.902 32.927 187.52 33.2636 188.052 33.6809C188.585 34.0982 189.018 34.5841 189.352 35.1385C189.687 35.6889 189.906 36.2949 190.01 36.9565C190.119 37.6156 190.093 38.3138 189.932 39.0513Z"/><path fill="#000" d="M189.622 48.7683L195.654 36.7572L197.83 37.85L192.714 48.0371L198.004 50.6939L197.088 52.5179L189.622 48.7683Z"/><path fill="#000" d="M213.645 47.165L215.679 48.503L210.854 55.8395C210.325 56.6437 209.67 57.226 208.888 57.5864C208.11 57.9493 207.266 58.0777 206.357 57.9717C205.45 57.8621 204.539 57.5067 203.625 56.9057C202.708 56.3022 202.019 55.6057 201.559 54.8161C201.101 54.0229 200.885 53.1973 200.91 52.3392C200.935 51.4811 201.212 50.6499 201.741 49.8457L206.566 42.5092L208.601 43.8472L203.887 51.0137C203.579 51.4816 203.408 51.9657 203.372 52.4658C203.34 52.9684 203.444 53.4477 203.683 53.9037C203.925 54.3561 204.304 54.7517 204.819 55.0907C205.334 55.4297 205.848 55.6207 206.359 55.6636C206.876 55.7053 207.357 55.6107 207.802 55.3798C208.247 55.1489 208.624 54.7995 208.932 54.3316L213.645 47.165Z"/><path fill="#000" d="M221.383 57.9774C221.704 57.4989 221.793 56.9911 221.65 56.454C221.51 55.9196 221.164 55.4204 220.611 54.9564C220.222 54.6302 219.839 54.409 219.463 54.2929C219.086 54.1768 218.74 54.1574 218.423 54.2347C218.107 54.3121 217.839 54.4784 217.619 54.7337C217.439 54.9482 217.332 55.175 217.297 55.414C217.265 55.6559 217.288 55.9039 217.367 56.1579C217.447 56.4086 217.561 56.658 217.707 56.9061C217.853 57.1542 218.01 57.392 218.179 57.6195L218.942 58.6707C219.255 59.0875 219.526 59.5234 219.755 59.9785C219.988 60.4364 220.148 60.9022 220.236 61.3758C220.327 61.8523 220.318 62.3268 220.207 62.7992C220.096 63.2716 219.854 63.7307 219.48 64.1765C218.973 64.7798 218.373 65.1817 217.68 65.3821C216.989 65.5792 216.244 65.5621 215.444 65.3308C214.65 65.099 213.841 64.6372 213.017 63.9453C212.216 63.2732 211.624 62.5656 211.243 61.8226C210.864 61.0824 210.709 60.3351 210.776 59.5808C210.847 58.8292 211.156 58.1004 211.703 57.3941L213.538 58.9339C213.264 59.315 213.124 59.7061 213.119 60.1072C213.114 60.5083 213.218 60.8983 213.431 61.2771C213.648 61.6588 213.95 62.0127 214.339 62.339C214.745 62.6793 215.15 62.917 215.557 63.0523C215.969 63.187 216.354 63.2186 216.711 63.147C217.071 63.072 217.376 62.8885 217.627 62.5963C217.849 62.3254 217.956 62.0381 217.948 61.7344C217.942 61.4274 217.85 61.0986 217.67 60.7478C217.497 60.3966 217.265 60.0193 216.975 59.6161L216.057 58.3315C215.392 57.4022 214.998 56.5096 214.877 55.6537C214.761 54.7973 215.013 54.0005 215.632 53.2631C216.141 52.6565 216.751 52.263 217.462 52.0828C218.176 51.9054 218.924 51.9301 219.704 52.1568C220.488 52.3802 221.24 52.7942 221.961 53.3989C222.691 54.012 223.225 54.6765 223.56 55.3924C223.903 56.1079 224.043 56.8223 223.981 57.5358C223.922 58.2459 223.654 58.8951 223.178 59.4834L221.383 57.9774Z"/><path fill="#000" d="M232.67 63.8634L222.894 73.0871L221.223 71.316L230.999 62.0924L232.67 63.8634Z"/><path fill="#000" d="M238.973 71.217L232.576 80.3404L232.658 80.451L243.229 76.934L244.828 79.0818L231.217 83.3073L229.422 80.8963L237.378 69.0745L238.973 71.217Z"/><path fill="#000" d="M248.976 86.2412L237.336 92.9616L236.118 90.853L247.758 84.1326L248.976 86.2412Z"/><path fill="#000" d="M250.587 93.4544L252.461 92.6459L256.709 102.493L254.835 103.301L253.189 99.4865L242.722 104.002L241.765 101.784L252.232 97.2689L250.587 93.4544Z"/><path fill="#000" d="M257.579 104.759L258.368 107.394L253.615 112.249L253.653 112.375L260.292 113.819L261.08 116.453L251.605 114.186L246.802 115.624L246.106 113.298L250.909 111.86L257.579 104.759Z"/><path fill="#000" d="M250.609 139.26C250.586 138.863 250.706 138.514 250.969 138.213C251.232 137.913 251.565 137.754 251.967 137.735C252.36 137.707 252.704 137.828 253 138.095C253.296 138.363 253.456 138.695 253.479 139.093C253.502 139.477 253.381 139.819 253.118 140.12C252.855 140.424 252.528 140.59 252.135 140.617C251.868 140.629 251.622 140.573 251.395 140.45C251.169 140.332 250.984 140.167 250.841 139.957C250.702 139.75 250.624 139.518 250.609 139.26Z"/><path fill="#000" d="M262.314 166.714L249.078 164.38L249.5 161.983L262.737 164.317L262.314 166.714Z"/><path fill="#000" d="M257.573 184.864L244.697 181.009L245.318 178.934L255.905 175.493L255.937 175.386L247.167 172.76L247.865 170.428L260.741 174.283L260.116 176.37L249.525 179.803L249.491 179.917L258.268 182.544L257.573 184.864Z"/><path fill="#000" d="M252.162 197.651L239.82 192.327L240.678 190.339L251.593 188.15L251.637 188.047L243.231 184.421L244.195 182.185L256.537 187.509L255.674 189.51L244.755 191.69L244.709 191.799L253.121 195.427L252.162 197.651Z"/><path fill="#000" d="M239.154 206.933C237.9 206.209 236.961 205.354 236.338 204.368C235.717 203.387 235.402 202.357 235.395 201.277C235.385 200.2 235.674 199.152 236.263 198.133C236.851 197.113 237.615 196.337 238.555 195.803C239.496 195.276 240.547 195.034 241.709 195.078C242.872 195.128 244.079 195.514 245.33 196.236C246.584 196.96 247.522 197.813 248.143 198.793C248.766 199.779 249.082 200.81 249.092 201.887C249.1 202.968 248.809 204.017 248.221 205.037C247.632 206.056 246.869 206.83 245.932 207.36C244.992 207.894 243.941 208.136 242.778 208.085C241.616 208.041 240.408 207.657 239.154 206.933ZM240.378 204.813C241.261 205.323 242.085 205.614 242.851 205.688C243.619 205.767 244.298 205.654 244.888 205.348C245.483 205.045 245.963 204.577 246.328 203.944C246.694 203.311 246.859 202.662 246.825 201.995C246.794 201.331 246.553 200.684 246.103 200.055C245.654 199.432 244.988 198.866 244.106 198.356C243.223 197.847 242.398 197.552 241.63 197.473C240.864 197.399 240.184 197.514 239.589 197.818C238.999 198.123 238.521 198.592 238.155 199.225C237.79 199.858 237.623 200.507 237.653 201.171C237.688 201.838 237.929 202.482 238.378 203.105C238.828 203.734 239.495 204.303 240.378 204.813Z"/><path fill="#000" d="M242.513 213.631L231.938 210.119L231.856 210.229L238.257 219.348L236.658 221.495L228.707 209.668L230.501 207.257L244.108 211.488L242.513 213.631Z"/><path fill="#000" d="M224.137 215.199L225.921 213.308L232.45 225.974L230.387 228.16L217.359 222.383L219.142 220.493L229.377 225.214L229.45 225.137L224.137 215.199ZM227.912 218.877L223.048 224.033L221.625 222.691L226.489 217.535L227.912 218.877Z"/><path fill="#000" d="M224.542 231.135L225.854 232.698L217.639 239.591L216.327 238.028L219.509 235.358L212.182 226.625L214.032 225.072L221.359 233.805L224.542 231.135Z"/><path fill="#000" d="M209.598 245.101L202.212 233.871L204.246 232.533L211.632 243.763L209.598 245.101Z"/><path fill="#000" d="M189.539 248.397C188.889 247.103 188.574 245.873 188.596 244.707C188.615 243.546 188.919 242.513 189.506 241.606C190.089 240.701 190.907 239.984 191.959 239.456C193.011 238.928 194.076 238.699 195.154 238.769C196.23 238.846 197.241 239.221 198.188 239.897C199.132 240.578 199.928 241.564 200.576 242.854C201.226 244.148 201.541 245.375 201.522 246.536C201.5 247.702 201.198 248.738 200.615 249.643C200.027 250.55 199.208 251.267 198.156 251.795C197.104 252.324 196.041 252.551 194.967 252.479C193.889 252.409 192.877 252.033 191.933 251.352C190.987 250.676 190.189 249.691 189.539 248.397ZM191.726 247.299C192.184 248.21 192.712 248.906 193.312 249.388C193.91 249.877 194.539 250.155 195.201 250.225C195.864 250.298 196.522 250.17 197.175 249.842C197.828 249.514 198.323 249.063 198.661 248.487C199 247.915 199.155 247.242 199.124 246.47C199.091 245.703 198.846 244.864 198.389 243.953C197.931 243.042 197.403 242.342 196.806 241.854C196.206 241.372 195.575 241.094 194.911 241.021C194.25 240.952 193.593 241.081 192.94 241.409C192.287 241.737 191.79 242.187 191.451 242.759C191.114 243.335 190.961 244.006 190.994 244.773C191.025 245.546 191.269 246.388 191.726 247.299Z"/><path fill="#000" d="M180.128 258.946L175.531 246.316L177.566 245.575L186.649 252.012L186.754 251.974L183.622 243.371L185.91 242.538L190.507 255.169L188.46 255.914L179.381 249.468L179.27 249.509L182.404 258.118L180.128 258.946Z"/><path fill="#000" d="M162.426 250.334C162.822 250.288 163.177 250.388 163.492 250.633C163.807 250.878 163.986 251.2 164.028 251.601C164.078 251.991 163.978 252.342 163.728 252.653C163.478 252.965 163.155 253.143 162.76 253.189C162.378 253.234 162.029 253.134 161.714 252.889C161.395 252.644 161.21 252.327 161.16 251.936C161.133 251.67 161.174 251.421 161.284 251.188C161.389 250.956 161.542 250.761 161.744 250.606C161.943 250.455 162.17 250.364 162.426 250.334Z"/></svg>