<svg fill="none" height="291" viewBox="0 0 290 291" width="290" xmlns="http://www.w3.org/2000/svg"><g fill="#000"><path d="m139.264 259.443h2.455c.07.402.199.759.387 1.069.188.315.422.582.702.801s.6.383.959.492c.354.114.737.171 1.148.171.731 0 1.378-.184 1.943-.551.564-.363 1.006-.897 1.325-1.602.32-.7.479-1.555.479-2.566 0-1.028-.159-1.894-.479-2.599-.323-.7-.765-1.229-1.325-1.588-.565-.354-1.21-.531-1.936-.531-.403 0-.779.052-1.129.157-.355.109-.672.269-.952.479-.284.21-.523.468-.715.775-.197.306-.333.656-.407 1.05l-2.455-.014c.092-.638.291-1.238.598-1.798.302-.56.698-1.054 1.188-1.483.49-.424 1.063-.757 1.719-.997.656-.237 1.385-.355 2.185-.355 1.182 0 2.236.274 3.164.82.927.547 1.658 1.337 2.192 2.37.534 1.032.8 2.27.8 3.714 0 1.448-.269 2.687-.807 3.715-.538 1.032-1.271 1.822-2.198 2.369-.928.547-1.978.82-3.151.82-.748 0-1.443-.105-2.087-.315-.643-.21-1.216-.518-1.719-.925-.503-.403-.917-.897-1.24-1.483-.329-.582-.543-1.247-.644-1.995z"/><path d="m125.3 255.776c.169-1.438.582-2.639 1.241-3.601.654-.959 1.475-1.656 2.464-2.091.985-.435 2.062-.585 3.231-.448 1.169.136 2.184.531 3.047 1.182.857.655 1.495 1.525 1.915 2.609.414 1.088.538 2.349.37 3.783-.168 1.439-.579 2.637-1.233 3.596-.658.963-1.48 1.662-2.465 2.097-.989.435-2.068.584-3.237.448-1.169-.137-2.183-.531-3.04-1.182-.862-.651-1.501-1.521-1.915-2.609-.42-1.084-.546-2.345-.378-3.784zm2.432.285c-.118 1.012-.06 1.885.176 2.617.231.736.604 1.315 1.119 1.736.514.426 1.134.681 1.86.766.725.085 1.387-.02 1.986-.316.598-.291 1.096-.768 1.495-1.431.394-.659.651-1.494.769-2.507.118-1.012.062-1.887-.169-2.623-.236-.732-.611-1.312-1.125-1.737-.515-.422-1.135-.675-1.861-.759-.726-.085-1.387.018-1.985.309-.599.296-1.095.773-1.489 1.432-.399.662-.658 1.5-.776 2.513z"/><path d="m123.917 248.515-3.1 13.078-2.369-.561 2.629-11.093-5.76-1.365.471-1.986z"/><path d="m112.02 245.355-4.597 12.63-2.288-.832 3.899-10.713-5.563-2.024.698-1.918z"/><path d="m100.326 240.713 2.322 1.166-10.2606 9.887-2.6861-1.349 1.7978-14.137 2.3225 1.166-1.5871 11.159.0938.047zm-2.4418 4.671-6.334-3.181.8778-1.748 6.3339 3.181z"/><path d="m90.9231 235.807-7.3859 11.229-4.2988-2.827c-.8115-.534-1.4018-1.105-1.7708-1.715-.3752-.608-.5519-1.219-.5302-1.833.018-.617.2097-1.203.5751-1.758.3006-.457.6456-.791 1.035-1.001.387-.206.7947-.312 1.223-.319.4284-.006.8542.067 1.2774.22l.0721-.11c-.384-.284-.6854-.657-.9043-1.121-.225-.462-.3222-.971-.2917-1.527s.2333-1.119.6084-1.689c.3823-.581.8668-1.012 1.4536-1.291.5844-.275 1.2477-.36 1.9898-.254s1.5427.441 2.4017 1.006zm-3.1523.361-2.1878-1.438c-.7384-.486-1.3628-.695-1.8733-.628-.5165.069-.9214.326-1.2147.772-.2188.333-.3337.687-.3447 1.062-.0134.379.0811.744.2835 1.098.2.356.5102.673.9306.949l2.2426 1.475zm-3.1267 4.754-2.0123-1.323c-.3509-.231-.7092-.375-1.0748-.432-.3681-.054-.7106-.015-1.0277.117-.3232.133-.593.364-.8094.693-.2861.435-.3682.895-.2462 1.378.1182.481.4771.919 1.0766 1.313l2.0562 1.352z"/><path d="m67.5758 226.642c.9309-1.109 1.936-1.885 3.0153-2.328 1.0732-.441 2.1425-.572 3.2079-.392 1.0621.177 2.044.644 2.9455 1.401.9016.756 1.5336 1.643 1.896 2.661.3562 1.019.4116 2.096.1663 3.233-.2515 1.137-.8412 2.258-1.7693 3.364-.9309 1.11-1.9329 1.885-3.0061 2.327-1.0793.442-2.15.575-3.2121.397-1.0655-.18-2.049-.648-2.9506-1.405-.9016-.756-1.5318-1.642-1.8908-2.657-.3624-1.018-.4178-2.096-.1664-3.232.2453-1.137.8334-2.26 1.7643-3.369zm1.8752 1.573c-.6552.781-1.0855 1.543-1.2908 2.284-.2115.742-.218 1.431-.0196 2.066.1955.638.5732 1.192 1.1329 1.661.5597.47 1.1708.746 1.8333.828.6596.085 1.3381-.04 2.0356-.374.6913-.334 1.3646-.891 2.0198-1.672.6553-.781 1.0887-1.543 1.3002-2.285.2053-.741.2101-1.431.0145-2.069-.1983-.635-.5774-1.187-1.1371-1.657-.5598-.47-1.1694-.747-1.829-.832-.6625-.082-1.3394.044-2.0306.378-.6975.334-1.3739.892-2.0292 1.672z"/><path d="m71.3529 220.814-9.7764 9.224-3.4589-3.666c-.7086-.751-1.1726-1.504-1.392-2.26-.2225-.758-.2213-1.49.0035-2.196.2186-.705.6398-1.352 1.2636-1.941.6269-.591 1.2972-.971 2.0109-1.139.7075-.168 1.4301-.113 2.1679.165.7347.282 1.4563.798 2.1649 1.549l2.4635 2.611-1.4703 1.387-2.2384-2.372c-.4143-.439-.814-.742-1.1992-.908-.3883-.163-.7633-.2-1.1249-.112-.3678.089-.7251.297-1.072.624s-.5783.675-.6943 1.043c-.1191.371-.1102.756.0267 1.157.1338.403.4093.826.8267 1.268l1.5312 1.623 8.2967-7.828zm-9.1949-.871 2.1466-6.599 1.8646 1.976-2.1872 6.557z"/><path d="m62.0429 210.418 1.552 2.085-13.6068 4.23-1.795-2.411 7.9516-11.827 1.552 2.085-6.4265 9.26.0627.084zm-4.2781 3.078-4.2326-5.685 1.5687-1.168 4.2326 5.686z"/><path d="m46.2791 208.049-1.7676 1.02-5.3619-9.287 1.7676-1.02 2.0771 3.598 9.8725-5.7 1.2076 2.091-9.8725 5.7z"/><path d="m35.1203 190.907 12.3415-5.324.9644 2.236-12.3415 5.324z"/><path d="m35.3567 170.58c1.3874-.415 2.6535-.511 3.7982-.288 1.1394.221 2.1046.699 2.8959 1.435.7899.732 1.3537 1.662 1.6912 2.789.3376 1.128.378 2.216.1214 3.266-.2621 1.047-.8079 1.977-1.6373 2.792-.8348.812-1.9438 1.424-3.327 1.839-1.3874.415-2.6507.512-3.79.292-1.1448-.224-2.1122-.702-2.9021-1.433-.7913-.736-1.3556-1.668-1.6932-2.796-.3375-1.127-.3774-2.214-.1195-3.259.2567-1.05.8024-1.98 1.6373-2.792.8294-.815 1.9377-1.43 3.3251-1.845zm.7021 2.345c-.9766.293-1.7544.692-2.3335 1.199-.5844.504-.9682 1.075-1.1513 1.715-.1873.64-.1761 1.311.0334 2.011.2096.7.5686 1.266 1.0771 1.698.5044.434 1.1397.703 1.9062.806.7609.101 1.6297.006 2.6063-.287.9766-.292 1.7572-.69 2.3417-1.194.579-.507.9621-1.08 1.1494-1.721.1831-.639.1698-1.309-.0397-2.009-.2096-.7-.5665-1.267-1.0708-1.7-.5085-.433-1.1433-.699-1.9043-.8-.7664-.104-1.6379-.01-2.6145.282z"/><path d="m26.6018 159.481 13.2366-2.334.3761 2.133-7.9164 7.826.0194.11 9.0161-1.589.4228 2.397-13.2366 2.334-.3783-2.145 7.924-7.822-.0206-.116-9.0225 1.591z"/><path d="m39.652 138.057c-.0231.397-.1827.73-.4788.998-.2961.267-.6449.387-1.0465.359-.3934-.018-.7216-.177-.9846-.478-.263-.3-.3829-.649-.3598-1.046.0224-.385.1817-.711.4777-.978.2964-.272.6412-.399 1.0346-.38.2662.02.5045.104.715.252.2108.143.3753.328.4936.554.1142.222.1638.461.1488.719z"/><path d="m43.5049 115.239-1.3062 4.363-12.8762-3.855 1.3327-4.451c.3827-1.278.9692-2.299 1.7596-3.063.7874-.769 1.7351-1.257 2.843-1.464 1.1079-.208 2.3304-.111 3.6675.289 1.3412.402 2.4192.996 3.2339 1.784.816.783 1.3418 1.719 1.5776 2.808.2369 1.085.1597 2.281-.2319 3.589zm-2.6261 1.426.5741-1.917c.2685-.897.329-1.694.1816-2.392-.1517-.698-.5093-1.296-1.0728-1.794-.5678-.498-1.3441-.895-2.3291-1.19s-1.8475-.389-2.5875-.282c-.7442.106-1.3662.407-1.8658.901-.5027.489-.8845 1.169-1.1455 2.041l-.5948 1.987z"/><path d="m36.0905 96.4478 12.3415 5.3232-.9644 2.236-12.3415-5.3236z"/><path d="m40.3465 87.7478 10.911 2.2603.0689-.1194-7.4163-8.3134 1.3388-2.3189 9.2709 10.824-1.5029 2.6031-14.006-2.6225z"/><path d="m57.6697 85.0601-10.7812-8.0263 5.2202-7.012 1.6372 1.2189-3.7662 5.0589 2.9269 2.179 3.4958-4.6957 1.6372 1.2188-3.4958 4.6957 2.9427 2.1908 3.7976-5.101 1.6371 1.2188z"/><path d="m64.9237 75.6033-9.7765-9.2236 3.4589-3.6662c.7086-.7511 1.4336-1.2581 2.1749-1.5211.7444-.2661 1.4752-.3075 2.1924-.1241.717.1772 1.3874.5601 2.0111 1.1485.627.5915 1.0451 1.2386 1.2543 1.9413.2091.6965.1961 1.4211-.0389 2.1739-.2381.7497-.7115 1.5001-1.4201 2.2512l-2.4635 2.6112-1.4703-1.3872 2.2383-2.3725c.4144-.4392.6932-.8558.8365-1.25.1401-.3971.1554-.7736.046-1.1295-.1096-.362-.3378-.7066-.6847-1.0339s-.7074-.5381-1.0815-.6324c-.3774-.0974-.7618-.0661-1.1533.0939-.3947.1569-.8007.4566-1.2181.8989l-1.5312 1.6231 8.2966 7.8275zm.335-9.23 6.7133 1.7592-1.8645 1.9763-6.6728-1.8022z"/><path d="m72.8374 54.5969c-.4153-.3996-.8999-.5756-1.4538-.5278-.5505.045-1.1023.2996-1.6553.7636-.3888.3262-.673.6647-.8528 1.0154-.1798.3508-.259.6886-.2377 1.0134.0212.3248.1385.6177.3517.8786.18.2145.3847.3597.614.4357.2328.0732.481.0933.7447.0605.261-.0362.5263-.1046.7959-.2052.2697-.1006.5312-.2144.7846-.3413l1.1677-.5686c.4647-.2358.9411-.427 1.4291-.5738.4913-.1495.9779-.2265 1.4596-.231.4852-.0072.9507.0848 1.3967.276.446.1911.856.5096 1.2301.9554.5062.6033.7978 1.2639.8747 1.9818.0742.7146-.0721 1.4456-.4387 2.193-.3661.7412-.9614 1.4578-1.7859 2.1496-.8011.6722-1.6006 1.1317-2.3986 1.3787-.7946.2441-1.5575.2675-2.2887.0699-.7278-.2003-1.392-.6311-1.9925-1.2923l1.835-1.5398c.3277.3362.6886.5417 1.0827.6165.3941.0749.7962.0402 1.2063-.1041.4135-.147.8146-.3837 1.2034-.7099.4056-.3403.7102-.6987.914-1.0753.2043-.3828.3022-.7562.2936-1.1203-.0113-.3675-.139-.7001-.3832-.9978-.2283-.2653-.4927-.4204-.7931-.4654-.3032-.0482-.6431-.0143-1.0198.1018-.376.11-.7878.2727-1.2352.4882l-1.4245.6813c-1.0308.4937-1.9781.726-2.8421.697-.8634-.0352-1.6044-.4214-2.2231-1.1588-.5091-.6066-.7906-1.2757-.8446-2.0071-.0507-.7343.1034-1.4661.4623-2.1956.356-.7328.8943-1.4016 1.6149-2.0062.7307-.6131 1.4777-1.0229 2.2411-1.2294.764-.2127 1.4919-.2266 2.1838-.0419.6891.1814 1.282.5578 1.7785 1.1292z"/><path d="m80.5943 44.5031 7.3858 11.2296-2.0343 1.338-7.3858-11.2296z"/><path d="m87.7015 42.4745-.916-1.8239 9.5831-4.8128.916 1.8239-3.7124 1.8645 5.1161 10.1871-2.1582 1.0839-5.1162-10.1871z"/><path d="m98.5811 34.8366 2.5839-.9405 5.123 4.4628.124-.0449 1.056-6.7119 2.584-.9405-1.713 9.5908 1.715 4.7116-2.281.8306-1.715-4.7117z"/><path d="m133.428 39.7887c-.396.0462-.751-.0532-1.066-.2983s-.494-.5678-.536-.9681c-.05-.3906.05-.7415.3-1.0526.25-.3112.573-.4899.968-.5361.382-.0447.731.0555 1.046.3006.319.2446.504.5622.554.9528.027.2656-.014.5149-.124.748-.105.2325-.258.4266-.46.5824-.199.1509-.426.2413-.682.2713z"/><path d="m160.156 26.5076-1.561 13.3499-2.418-.2826 1.56-13.3499z"/><path d="m178.55 30.1849-3.099 13.0785-2.108-.4995-4.051-10.3689-.108-.0258-2.112 8.9085-2.369-.5615 3.1-13.0785 2.12.5025 4.043 10.3738.115.0272 2.113-8.9148z"/><path d="m189.932 39.0513-2.307-.8395c.072-.4022.073-.7814.002-1.1376-.069-.3604-.197-.6913-.386-.9926-.188-.3014-.432-.5648-.732-.7903-.294-.2281-.634-.4124-1.021-.5531-.686-.2499-1.357-.2987-2.014-.1464-.654.1482-1.252.4987-1.793 1.0514-.54.5485-.982 1.2977-1.328 2.2474-.351.9662-.498 1.8349-.439 2.6061.065.7685.299 1.4171.703 1.9458.409.5261.955.9133 1.638 1.1617.378.1377.749.217 1.114.2381.371.0184.723-.0232 1.058-.1247.339-.1001.652-.2611.937-.4831.29-.2205.537-.503.742-.8476l2.302.8519c-.305.5688-.697 1.064-1.176 1.4855-.476.423-1.017.7522-1.624.9875-.606.2312-1.258.3476-1.957.3493-.697-.0025-1.422-.1406-2.175-.4145-1.11-.404-2.007-1.0216-2.692-1.8528-.684-.8311-1.101-1.8231-1.249-2.976-.149-1.1528.024-2.4077.518-3.7644.495-1.3609 1.172-2.4324 2.029-3.2145.859-.7862 1.817-1.2777 2.876-1.4744 1.059-.1966 2.139-.0945 3.241.3066.703.2559 1.321.5925 1.853 1.0098.533.4173.966.9032 1.3 1.4576.335.5504.554 1.1564.658 1.818.109.6591.083 1.3573-.078 2.0948z"/><path d="m189.622 48.7683 6.032-12.0111 2.176 1.0928-5.116 10.1871 5.29 2.6568-.916 1.824z"/><path d="m213.645 47.165 2.034 1.338-4.825 7.3365c-.529.8042-1.184 1.3865-1.966 1.7469-.778.3629-1.622.4913-2.531.3853-.907-.1096-1.818-.465-2.732-1.066-.917-.6035-1.606-1.3-2.066-2.0896-.458-.7932-.674-1.6188-.649-2.4769s.302-1.6893.831-2.4935l4.825-7.3365 2.035 1.338-4.714 7.1665c-.308.4679-.479.952-.515 1.4521-.032.5026.072.9819.311 1.4379.242.4524.621.848 1.136 1.187s1.029.53 1.54.5729c.517.0417.998-.0529 1.443-.2838s.822-.5803 1.13-1.0482z"/><path d="m221.383 57.9774c.321-.4785.41-.9863.267-1.5234-.14-.5344-.486-1.0336-1.039-1.4976-.389-.3262-.772-.5474-1.148-.6635-.377-.1161-.723-.1355-1.04-.0582-.316.0774-.584.2437-.804.499-.18.2145-.287.4413-.322.6803-.032.2419-.009.4899.07.7439.08.2507.194.5001.34.7482s.303.4859.472.7134l.763 1.0512c.313.4168.584.8527.813 1.3078.233.4579.393.9237.481 1.3973.091.4765.082.951-.029 1.4234s-.353.9315-.727 1.3773c-.507.6033-1.107 1.0052-1.8 1.2056-.691.1971-1.436.18-2.236-.0513-.794-.2318-1.603-.6936-2.427-1.3855-.801-.6721-1.393-1.3797-1.774-2.1227-.379-.7402-.534-1.4875-.467-2.2418.071-.7516.38-1.4804.927-2.1867l1.835 1.5398c-.274.3811-.414.7722-.419 1.1733s.099.7911.312 1.1699c.217.3817.519.7356.908 1.0619.406.3403.811.578 1.218.7133.412.1347.797.1663 1.154.0947.36-.075.665-.2585.916-.5507.222-.2709.329-.5582.321-.8619-.006-.307-.098-.6358-.278-.9866-.173-.3512-.405-.7285-.695-1.1317l-.918-1.2846c-.665-.9293-1.059-1.8219-1.18-2.6778-.116-.8564.136-1.6532.755-2.3906.509-.6066 1.119-1.0001 1.83-1.1803.714-.1774 1.462-.1527 2.242.074.784.2234 1.536.6374 2.257 1.2421.73.6131 1.264 1.2776 1.599 1.9935.343.7155.483 1.4299.421 2.1434-.059.7101-.327 1.3593-.803 1.9476z"/><path d="m232.67 63.8634-9.776 9.2237-1.671-1.7711 9.776-9.2236z"/><path d="m238.973 71.217-6.397 9.1234.082.1106 10.571-3.517 1.599 2.1478-13.611 4.2255-1.795-2.411 7.956-11.8218z"/><path d="m248.976 86.2412-11.64 6.7204-1.218-2.1086 11.64-6.7204z"/><path d="m250.587 93.4544 1.874-.8085 4.248 9.8471-1.874.808-1.646-3.8145-10.467 4.5155-.957-2.218 10.467-4.5151z"/><path d="m257.579 104.759.789 2.635-4.753 4.855.038.126 6.639 1.444.788 2.634-9.475-2.267-4.803 1.438-.696-2.326 4.803-1.438z"/><path d="m250.609 139.26c-.023-.397.097-.746.36-1.047.263-.3.596-.459.998-.478.393-.028.737.093 1.033.36.296.268.456.6.479.998.023.384-.098.726-.361 1.027-.263.304-.59.47-.983.497-.267.012-.513-.044-.74-.167-.226-.118-.411-.283-.554-.493-.139-.207-.217-.439-.232-.697z"/><path d="m262.314 166.714-13.236-2.334.422-2.397 13.237 2.334z"/><path d="m257.573 184.864-12.876-3.855.621-2.075 10.587-3.441.032-.107-8.77-2.626.698-2.332 12.876 3.855-.625 2.087-10.591 3.433-.034.114 8.777 2.627z"/><path d="m252.162 197.651-12.342-5.324.858-1.988 10.915-2.189.044-.103-8.406-3.626.964-2.236 12.342 5.324-.863 2.001-10.919 2.18-.046.109 8.412 3.628z"/><path d="m239.154 206.933c-1.254-.724-2.193-1.579-2.816-2.565-.621-.981-.936-2.011-.943-3.091-.01-1.077.279-2.125.868-3.144.588-1.02 1.352-1.796 2.292-2.33.941-.527 1.992-.769 3.154-.725 1.163.05 2.37.436 3.621 1.158 1.254.724 2.192 1.577 2.813 2.557.623.986.939 2.017.949 3.094.008 1.081-.283 2.13-.871 3.15-.589 1.019-1.352 1.793-2.289 2.323-.94.534-1.991.776-3.154.725-1.162-.044-2.37-.428-3.624-1.152zm1.224-2.12c.883.51 1.707.801 2.473.875.768.079 1.447-.034 2.037-.34.595-.303 1.075-.771 1.44-1.404.366-.633.531-1.282.497-1.949-.031-.664-.272-1.311-.722-1.94-.449-.623-1.115-1.189-1.997-1.699-.883-.509-1.708-.804-2.476-.883-.766-.074-1.446.041-2.041.345-.59.305-1.068.774-1.434 1.407-.365.633-.532 1.282-.502 1.946.035.667.276 1.311.725 1.934.45.629 1.117 1.198 2 1.708z"/><path d="m242.513 213.631-10.575-3.512-.082.11 6.401 9.119-1.599 2.147-7.951-11.827 1.794-2.411 13.607 4.231z"/><path d="m224.137 215.199 1.784-1.891 6.529 12.666-2.063 2.186-13.028-5.777 1.783-1.89 10.235 4.721.073-.077zm3.775 3.678-4.864 5.156-1.423-1.342 4.864-5.156z"/><path d="m224.542 231.135 1.312 1.563-8.215 6.893-1.312-1.563 3.182-2.67-7.327-8.733 1.85-1.553 7.327 8.733z"/><path d="m209.598 245.101-7.386-11.23 2.034-1.338 7.386 11.23z"/><path d="m189.539 248.397c-.65-1.294-.965-2.524-.943-3.69.019-1.161.323-2.194.91-3.101.583-.905 1.401-1.622 2.453-2.15s2.117-.757 3.195-.687c1.076.077 2.087.452 3.034 1.128.944.681 1.74 1.667 2.388 2.957.65 1.294.965 2.521.946 3.682-.022 1.166-.324 2.202-.907 3.107-.588.907-1.407 1.624-2.459 2.152-1.052.529-2.115.756-3.189.684-1.078-.07-2.09-.446-3.034-1.127-.946-.676-1.744-1.661-2.394-2.955zm2.187-1.098c.458.911.986 1.607 1.586 2.089.598.489 1.227.767 1.889.837.663.073 1.321-.055 1.974-.383s1.148-.779 1.486-1.355c.339-.572.494-1.245.463-2.017-.033-.767-.278-1.606-.735-2.517-.458-.911-.986-1.611-1.583-2.099-.6-.482-1.231-.76-1.895-.833-.661-.069-1.318.06-1.971.388s-1.15.778-1.489 1.35c-.337.576-.49 1.247-.457 2.014.031.773.275 1.615.732 2.526z"/><path d="m180.128 258.946-4.597-12.63 2.035-.741 9.083 6.437.105-.038-3.132-8.603 2.288-.833 4.597 12.631-2.047.745-9.079-6.446-.111.041 3.134 8.609z"/><path d="m162.426 250.334c.396-.046.751.054 1.066.299s.494.567.536.968c.05.39-.05.741-.3 1.052-.25.312-.573.49-.968.536-.382.045-.731-.055-1.046-.3-.319-.245-.504-.562-.554-.953-.027-.266.014-.515.124-.748.105-.232.258-.427.46-.582.199-.151.426-.242.682-.272z"/></g></svg>