<svg fill="none" viewBox="0 0 13 12"><path fill="#000" d="M3.448 10.766L2.01 9.328l7.792-7.85 1.43 1.438-7.784 7.85zm6.354 0L2.01 2.916 3.448 1.48l7.784 7.85-1.43 1.437zm-9-4.687a1.21 1.21 0 01.346-.862c.225-.235.548-.353.97-.353.427 0 .755.118.985.353.23.23.345.517.345.862 0 .34-.115.623-.345.848-.23.226-.558.338-.985.338-.422 0-.745-.112-.97-.338a1.175 1.175 0 01-.345-.848zm4.457 4.507c0-.34.113-.625.338-.855.225-.235.546-.353.963-.353.417 0 .743.118.978.353.235.23.352.515.352.855 0 .33-.117.613-.352.848-.235.23-.56.345-.978.345-.417 0-.738-.115-.963-.345a1.181 1.181 0 01-.338-.848zm0-8.913c0-.34.113-.625.338-.855.225-.235.546-.353.963-.353.417 0 .743.118.978.353.235.23.352.515.352.855 0 .33-.117.613-.352.848-.235.23-.56.345-.978.345-.417 0-.738-.115-.963-.345a1.181 1.181 0 01-.338-.848zm4.414 4.406c0-.345.117-.632.352-.862.235-.235.563-.353.985-.353.417 0 .742.118.977.353.235.23.35.517.345.862.005.34-.11.623-.345.848-.235.226-.56.338-.977.338-.422 0-.75-.112-.985-.338a1.126 1.126 0 01-.352-.848z"/></svg>