<svg fill="none" viewBox="0 0 131 131"><path fill="#fff" d="M100.814 79.381V50.104c0-3.673-1.938-7.039-5.1-8.824L70.21 26.59c-1.581-.918-3.315-1.377-5.1-1.377s-3.52.46-5.101 1.377L34.507 41.23a10.237 10.237 0 00-5.1 8.875V79.38c0 3.672 1.938 7.039 5.1 8.824l25.503 14.69c1.581.918 3.315 1.377 5.1 1.377s3.52-.459 5.101-1.377l25.503-14.69c3.162-1.785 5.1-5.152 5.1-8.824zM60.01 91.112L39.608 79.381V55.765L60.01 67.65zm5.1-32.286L44.913 47.043l20.199-11.629 20.198 11.63zM90.614 79.38L70.211 91.112V67.65l20.402-11.885z"/><path stroke="#fff" stroke-linecap="round" stroke-width="8" d="M37.794 12.632H15.632a3 3 0 00-3 3v22.162m104.839 0V15.632a3 3 0 00-3-3H92.31m0 104.839h22.161a3 3 0 003-3V92.31m-104.839 0v22.161a3 3 0 003 3h22.162"/></svg>