<svg fill="none" height="131" viewBox="0 0 131 131" width="131" xmlns="http://www.w3.org/2000/svg"><path d="m100.814 79.381v-29.2772c0-3.6724-1.9377-7.0388-5.1001-8.824l-25.5028-14.6896c-1.5812-.9181-3.3153-1.3772-5.1005-1.3772s-3.5194.4591-5.1006 1.3772l-25.5028 14.6386c-3.1624 1.8362-5.1006 5.2026-5.1006 8.875v29.2772c0 3.6724 1.9382 7.0388 5.1006 8.824l25.5028 14.69c1.5812.918 3.3154 1.377 5.1006 1.377s3.5193-.459 5.1005-1.377l25.5028-14.69c3.1624-1.7852 5.1001-5.1516 5.1001-8.824zm-40.804 11.7313-20.4023-11.7313v-23.6156l20.4023 11.8843zm5.1006-32.2865-20.1983-11.7824 20.1983-11.6292 20.1982 11.6292zm25.5028 20.5552-20.4023 11.7313v-23.4626l20.4023-11.8843z" fill="#fff"/><g stroke="#fff" stroke-linecap="round" stroke-width="8"><path d="m37.7937 12.6324h-22.1613c-1.6568 0-3 1.3431-3 3v22.1613"/><path d="m117.471 37.7937v-22.1613c0-1.6568-1.343-3-3-3h-22.1612"/><path d="m92.3098 117.471h22.1612c1.657 0 3-1.343 3-3v-22.1612"/><path d="m12.6324 92.3098v22.1612c0 1.657 1.3432 3 3 3h22.1613"/></g></svg>