<svg fill="none" viewBox="0 0 94 94"><mask id="a" width="94" height="94" x="0" y="0" maskUnits="userSpaceOnUse"><path stroke="#fff" stroke-linecap="round" stroke-linejoin="round" stroke-width="8.863" d="M82.547 62.607V29.372L54.852 13.794m-15.51 0L11.646 29.372v33.235m6.647 10.387l28.804 16.201 17.725-9.97L75.9 72.992"/><path fill="#fff" stroke="#fff" stroke-linecap="round" stroke-linejoin="round" stroke-width="8.863" d="M40.45 37.681l-6.647 3.878v15.51l6.647 3.877 6.647 3.877 6.647-3.877 6.647-3.878v-15.51l-6.647-3.877-6.647-3.877z"/><path stroke="#fff" stroke-linecap="round" stroke-linejoin="round" stroke-width="8.863" d="M47.097 33.804v-15.51M60.391 55.96l15.51 8.863M33.803 55.96l-15.51 8.863"/><path fill="#fff" stroke="#fff" stroke-linecap="round" stroke-linejoin="round" stroke-width="8.863" d="M47.098 18.294a6.647 6.647 0 100-13.294 6.647 6.647 0 000 13.294zM11.647 75.901a6.647 6.647 0 100-13.294 6.647 6.647 0 000 13.294zm70.899 0a6.647 6.647 0 100-13.294 6.647 6.647 0 000 13.294z"/></mask><g mask="url(#a)"><path fill="#fff" d="M-6.078-3.863h106.351V102.49H-6.078z"/></g></svg>