<svg fill="none" height="94" viewBox="0 0 94 94" width="94" xmlns="http://www.w3.org/2000/svg" xmlns:xlink="http://www.w3.org/1999/xlink"><mask id="a" height="94" maskUnits="userSpaceOnUse" width="94" x="0" y="0"><path d="m82.5473 62.6072v-33.2349l-27.6957-15.5782m-15.5096 0-27.6956 15.5782v33.2349m6.6469 10.3869 28.8035 16.2009 17.7253-9.9704 11.0782-6.2327" fill="none" stroke="#fff" stroke-linecap="round" stroke-linejoin="round" stroke-width="8.863"/><path d="m40.4504 37.6812-6.6469 3.8774v15.5096l6.6469 3.8774 6.647 3.8774 6.647-3.8774 6.6469-3.8774v-15.5096l-6.6469-3.8774-6.647-3.8774z" fill="#fff" stroke="#fff" stroke-linecap="round" stroke-linejoin="round" stroke-width="8.863"/><path d="m47.0971 33.8037v-15.5095m13.2939 37.6661 15.5096 8.8626m-42.0974-8.8626-15.5096 8.8626" fill="none" stroke="#fff" stroke-linecap="round" stroke-linejoin="round" stroke-width="8.863"/><path d="m47.0976 18.294c3.6711 0 6.647-2.976 6.647-6.647 0-3.67099-2.9759-6.64694-6.647-6.64694-3.671 0-6.6469 2.97595-6.6469 6.64694 0 3.671 2.9759 6.647 6.6469 6.647z" fill="#fff" stroke="#fff" stroke-linecap="round" stroke-linejoin="round" stroke-width="8.863"/><path d="m11.6467 75.9012c3.671 0 6.647-2.976 6.647-6.647s-2.976-6.6469-6.647-6.6469-6.64694 2.9759-6.64694 6.6469 2.97594 6.647 6.64694 6.647z" fill="#fff" stroke="#fff" stroke-linecap="round" stroke-linejoin="round" stroke-width="8.863"/><path d="m82.5458 75.9012c3.671 0 6.6469-2.976 6.6469-6.647s-2.9759-6.6469-6.6469-6.6469-6.647 2.9759-6.647 6.6469 2.976 6.647 6.647 6.647z" fill="#fff" stroke="#fff" stroke-linecap="round" stroke-linejoin="round" stroke-width="8.863"/></mask><g mask="url(#a)"><path d="m-6.07849-3.86267h53.17569 53.1758v106.35167h-106.35149z" fill="#fff"/></g></svg>