<svg fill="none" height="130" viewBox="0 0 131 130" width="131" xmlns="http://www.w3.org/2000/svg"><g stroke="#fff" stroke-linecap="round" stroke-linejoin="round" stroke-width="10.257"><path d="m27.7669 60.217c-5.123 1.2891-9.5989 4.4046-12.5869 8.7611-2.988 4.3566-4.2823 9.6542-3.6397 14.8977.6425 5.2436 3.1777 10.072 7.1292 13.5781 3.9514 3.5061 9.0472 5.4491 14.3299 5.4631h59.5834c3.8244-.003 7.6052-.816 11.0922-2.385 3.488-1.5685 6.604-3.8583 9.143-6.7183 2.539-2.8599 4.443-6.2252 5.588-9.8742 1.145-3.6491 1.504-7.4992 1.053-11.297-.45-3.7977-1.7-7.457-3.667-10.7369s-4.606-6.1062-7.743-8.2927c-3.138-2.1865-6.703-3.6837-10.4612-4.393-3.7581-.7094-7.6237-.6148-11.3425.2775l-7.2042 1.9609"/><path d="m86.2453 49.4976c-1.8514-7.3311-6.4211-13.6839-12.7827-17.7707s-14.0392-5.6017-21.4764-4.2377-14.0775 5.5048-18.5748 11.5832c-4.4973 6.0783-6.5152 13.6393-5.6445 21.1502 0 0 .8288 4.7775 2.5242 7.4858"/></g></svg>