<svg fill="none" height="130" viewBox="0 0 131 130" width="131" xmlns="http://www.w3.org/2000/svg"><g fill="#fff"><path d="m122.375 65v-8.125h-8.125v-16.25c-.005-4.3081-1.719-8.4382-4.765-11.4845-3.047-3.0464-7.177-4.7601-11.485-4.7655h-8.125v-16.25h-8.125v16.25h-32.5v-16.25h-8.125v16.25h-8.125c-4.3081.0054-8.4382 1.7191-11.4845 4.7655-3.0464 3.0463-4.7601 7.1764-4.7655 11.4845v16.25h-8.125v8.125h8.125v20.3125h-8.125v8.125h8.125v12.1875c.0054 4.308 1.7191 8.438 4.7655 11.485 3.0463 3.046 7.1764 4.76 11.4845 4.765h65c4.308-.005 8.438-1.719 11.485-4.765 3.046-3.047 4.76-7.177 4.765-11.485v-12.1875h8.125v-8.125h-8.125v-20.3125zm-16.25 40.625c-.002 2.154-.859 4.22-2.382 5.743s-3.589 2.38-5.743 2.382h-65c-2.1542-.002-4.2196-.859-5.7429-2.382-1.5232-1.523-2.3799-3.589-2.3821-5.743v-65c.0022-2.1542.8589-4.2196 2.3821-5.7429 1.5233-1.5232 3.5887-2.3799 5.7429-2.3821h65c2.154.0022 4.22.8589 5.743 2.3821 1.523 1.5233 2.38 3.5887 2.382 5.7429z"/><circle cx="82.5" cy="59" r="9"/><circle cx="49.5" cy="59" r="9"/></g><path d="m48.5 89c0 2.8161 7.4757 10.2083 18.3495 10.2083s16.6505-7.3922 16.6505-10.2083" stroke="#fff" stroke-linecap="round" stroke-width="6.563"/></svg>