<svg fill="none" viewBox="0 0 131 130"><g fill="#fff"><path d="M122.375 65v-8.125h-8.125v-16.25A16.27 16.27 0 0098 24.375h-8.125V8.125H81.75v16.25h-32.5V8.125h-8.125v16.25H33a16.27 16.27 0 00-16.25 16.25v16.25H8.625V65h8.125v20.313H8.625v8.124h8.125v12.188A16.273 16.273 0 0033 121.875h65a16.272 16.272 0 0016.25-16.25V93.437h8.125v-8.124h-8.125V65zm-16.25 40.625A8.134 8.134 0 0198 113.75H33a8.134 8.134 0 01-8.125-8.125v-65A8.134 8.134 0 0133 32.5h65a8.134 8.134 0 018.125 8.125z"/><circle cx="82.5" cy="59" r="9"/><circle cx="49.5" cy="59" r="9"/></g><path stroke="#fff" stroke-linecap="round" stroke-width="6.563" d="M48.5 89c0 2.816 7.476 10.208 18.35 10.208S83.5 91.816 83.5 89"/></svg>