<svg width="132" height="131" viewBox="0 0 132 131" fill="none" xmlns="http://www.w3.org/2000/svg">
    <path
        d="M122.92 77.249H106.657V60.9861H98.526V97.5777H33.4742V32.5259H70.0659V24.3945H53.8029V8.13152H45.6714V24.3945H33.4742C31.3183 24.3966 29.2513 25.254 27.7268 26.7785C26.2023 28.303 25.3449 30.37 25.3428 32.5259V44.7231H9.07983V52.8546H25.3428V77.249H9.07983V85.3805H25.3428V97.5777C25.3449 99.7336 26.2023 101.801 27.7268 103.325C29.2513 104.85 31.3183 105.707 33.4742 105.709H45.6714V121.972H53.8029V105.709H78.1973V121.972H86.3288V105.709H98.526C100.682 105.706 102.748 104.848 104.272 103.324C105.797 101.8 106.654 99.7333 106.657 97.5777V85.3805H122.92V77.249Z"
        fill="white" />
    <rect x="49.3699" y="48.4216" width="32.2811" height="32.2811" stroke="white"
        stroke-width="8.80392" />
    <circle cx="107.329" cy="24.2108" r="13.2059" stroke="white" stroke-width="7.3366" />
    <line x1="81.9917" y1="48.7624" x2="99.5995" y2="31.1545" stroke="white" stroke-width="7.3366" />
</svg>