<svg fill="none" viewBox="0 0 132 131"><path fill="#fff" d="M122.92 77.249h-16.263V60.986h-8.131v36.592H33.474V32.526h36.592v-8.132H53.803V8.132H45.67v16.262H33.474a8.14 8.14 0 00-8.131 8.132v12.197H9.08v8.132h16.263v24.394H9.08v8.132h16.263v12.197a8.138 8.138 0 008.131 8.131h12.197v16.263h8.132v-16.263h24.394v16.263h8.132v-16.263h12.197a8.142 8.142 0 008.131-8.131V85.38h16.263z"/><g stroke="#fff"><path stroke-width="8.804" d="M49.37 48.422h32.281v32.281H49.37z"/><circle cx="107.329" cy="24.211" r="13.206" stroke-width="7.337"/><path stroke-width="7.337" d="M81.992 48.762L99.6 31.154"/></g></svg>