<svg fill="none" height="114" viewBox="0 0 120 114" width="120" xmlns="http://www.w3.org/2000/svg"><path d="m47.2764 92.0591v-.6282c0-4.6671-3.0664-8.7354-6.9056-11.6472-5.011-3.7948-8.6559-8.9749-10.4302-14.8233-1.7743-5.8483-1.5903-12.0758.5267-17.8205 2.1169-5.7447 6.062-10.7225 11.2893-14.2444 5.2272-3.5219 11.4781-5.4138 17.8875-5.4138s12.6603 1.8919 17.8876 5.4138 9.1724 8.4997 11.2893 14.2444 2.301 11.9722.5267 17.8205c-1.7743 5.8484-5.4192 11.0285-10.4302 14.8233-3.8454 2.9176-6.9118 6.9801-6.9118 11.6472v.6282m-24.7293 0v11.7409c0 1.557.6514 3.05 1.8108 4.151s2.7319 1.72 4.3715 1.72h12.3647c1.6396 0 3.2121-.619 4.3715-1.72s1.8108-2.594 1.8108-4.151v-11.7409m-24.7293 0h24.7293m37.0943-35.2237h6.182m-105.0995 0h-6.18232m55.64092-46.96479v-5.87061m34.9733 19.6254 4.3709-4.1505m-74.3114 4.1505-4.3771-4.1505m39.3443 54.9724v-11.7412" stroke="#fff" stroke-linecap="round" stroke-linejoin="round" stroke-width="7.793"/></svg>