<svg fill="none" viewBox="0 0 120 114"><path stroke="#fff" stroke-linecap="round" stroke-linejoin="round" stroke-width="7.793" d="M47.276 92.06v-.63c0-4.666-3.066-8.735-6.905-11.646-5.011-3.795-8.656-8.975-10.43-14.824a27.948 27.948 0 01.526-17.82c2.117-5.745 6.062-10.723 11.29-14.245 5.227-3.521 11.478-5.413 17.887-5.413s12.66 1.892 17.888 5.413 9.172 8.5 11.289 14.245 2.301 11.972.527 17.82c-1.775 5.849-5.42 11.029-10.43 14.824-3.846 2.917-6.912 6.98-6.912 11.647v.628m-24.73 0V103.8c0 1.557.652 3.05 1.811 4.151s2.732 1.72 4.372 1.72h12.364c1.64 0 3.213-.619 4.372-1.72s1.81-2.594 1.81-4.151V92.06m-24.729 0h24.73M109.1 56.834h6.182m-105.1 0H4M59.641 9.871V4m34.973 19.625l4.371-4.15m-74.311 4.15l-4.377-4.15M59.64 74.447v-11.74"/></svg>