<svg width="120" height="114" viewBox="0 0 120 114" fill="none" xmlns="http://www.w3.org/2000/svg">
    <path
        d="M47.2764 92.0591V91.4309C47.2764 86.7638 44.21 82.6955 40.3708 79.7837C35.3598 75.9889 31.7149 70.8088 29.9406 64.9604C28.1663 59.1121 28.3503 52.8846 30.4673 47.1399C32.5842 41.3952 36.5293 36.4174 41.7566 32.8955C46.9838 29.3736 53.2347 27.4817 59.6441 27.4817C66.0535 27.4817 72.3044 29.3736 77.5317 32.8955C82.759 36.4174 86.7041 41.3952 88.821 47.1399C90.9379 52.8846 91.122 59.1121 89.3477 64.9604C87.5734 70.8088 83.9285 75.9889 78.9175 79.7837C75.0721 82.7013 72.0057 86.7638 72.0057 91.4309V92.0591M47.2764 92.0591V103.8C47.2764 105.357 47.9278 106.85 49.0872 107.951C50.2466 109.052 51.8191 109.671 53.4587 109.671H65.8234C67.463 109.671 69.0355 109.052 70.1949 107.951C71.3543 106.85 72.0057 105.357 72.0057 103.8V92.0591M47.2764 92.0591H72.0057M109.1 56.8354H115.282M10.1825 56.8354H4.00018M59.6411 9.87061V4M94.6144 23.6254L98.9853 19.4749M24.6739 23.6254L20.2968 19.4749M59.6411 74.4473V62.7061"
        stroke="white" stroke-width="7.79284" stroke-linecap="round" stroke-linejoin="round" />
</svg>