<svg fill="none" viewBox="0 0 131 130"><path fill="#fff" d="M110.556 21.57L67.417 6.867c-.52-.178-1.219-.266-1.917-.266s-1.397.088-1.917.266L20.444 21.57c-1.053.356-1.917 1.575-1.917 2.692v61.242c0 1.117.724 2.59 1.6 3.288l43.76 34.1c.445.342 1.016.52 1.6.52s1.168-.178 1.6-.52l43.761-34.1c.876-.685 1.599-2.158 1.599-3.288V24.26c.026-1.117-.838-2.323-1.891-2.692zm-7.224 61.495L65.5 112.544 27.668 83.065V28.78L65.5 15.882l37.832 12.898zM51.649 67.133l-9.839 9.839a1.02 1.02 0 000 1.434l4.317 4.317a1.02 1.02 0 001.434 0l9.84-9.84c7.07 4.457 16.516 3.606 22.673-2.551 7.148-7.147 7.148-18.726 0-25.873-7.147-7.147-18.725-7.147-25.873 0-6.157 6.157-7.008 15.615-2.552 22.674zm8.303-16.923c3.974-3.974 10.41-3.974 14.371 0 3.974 3.974 3.974 10.41 0 14.371-3.973 3.974-10.41 3.974-14.37 0-3.962-3.974-3.975-10.397 0-14.371z"/></svg>