<svg fill="none" height="130" viewBox="0 0 131 130" width="131" xmlns="http://www.w3.org/2000/svg"><path d="m110.556 21.5693-43.139-14.70114c-.5205-.17773-1.2188-.2666-1.917-.2666s-1.3965.08887-1.917.2666l-43.1387 14.70114c-1.0537.3555-1.917 1.5743-1.917 2.6914v61.2422c0 1.1172.7237 2.5899 1.5997 3.2881l43.7607 34.1c.4443.342 1.0156.52 1.5996.52s1.168-.178 1.5996-.52l43.7611-34.1c.876-.6855 1.599-2.1582 1.599-3.2881v-61.2422c.026-1.1171-.838-2.3232-1.891-2.6914zm-7.224 61.4961-37.832 29.4786-37.832-29.4786v-54.2851l37.832-12.8985 37.832 12.8985zm-51.6826-15.9326-9.8389 9.8389c-.189.1909-.295.4486-.295.7173 0 .2686.106.5264.295.7172l4.3165 4.3165c.3935.3935 1.041.3935 1.4345 0l9.8389-9.8389c7.0713 4.456 16.5166 3.6055 22.6738-2.5518 7.1475-7.1474 7.1475-18.7256 0-25.873-7.1474-7.1475-18.7256-7.1475-25.873 0-6.1573 6.1572-7.0078 15.6152-2.5518 22.6738zm8.3027-16.9228c3.9737-3.9737 10.4102-3.9737 14.3711 0 3.9737 3.9736 3.9737 10.4101 0 14.3711-3.9736 3.9736-10.4101 3.9736-14.3711 0-3.9609-3.9737-3.9736-10.3975 0-14.3711z" fill="#fff"/></svg>