<svg viewBox="0 0 153.24 44.9"><path fill="#66d9fb" d="M142.77 10.56V21h-6.94V10.56"/><path fill="#c28aeb" d="M142.77 27.87v10.47h-6.94V27.87"/><path fill="#7dfa8c" d="M142.66 20.92h10.58v7h-10.58"/><path fill="#ff9f1a" d="M125.25 20.92h10.58v7h-10.58"/><path fill="#ff3838" d="M135.83 20.92h6.94v6.95h-6.94z"/><path fill="#333" d="M8.08 44H0V0h8.08v16.59c1.95-2.31 5.23-3.28 8.08-3.28 7.6 0 11.12 5.28 11.12 11.85V44H19.2V26.55c0-3.34-1.64-5.95-5.53-5.95-3.4 0-5.41 2.55-5.59 5.83zm31.47-17.2l7.35-1.1c1.7-.24 2.25-1.09 2.25-2.12 0-2.13-1.64-3.89-5-3.89s-5.47 2.24-5.71 4.86L31.23 23c.48-4.68 4.8-9.84 12.82-9.84 9.47 0 13 5.34 13 11.36v14.7a33.86 33.86 0 00.36 4.78H50a20.48 20.48 0 01-.3-3.58 10 10 0 01-8.81 4.43c-6.38 0-10.27-4.31-10.27-9 0-5.35 3.95-8.33 8.93-9.05zm9.6 5.1v-1.34l-6.74 1c-2.07.31-3.71 1.46-3.71 3.77 0 1.77 1.27 3.47 3.89 3.47 3.41.03 6.56-1.61 6.56-6.9zM67.86 29c0 5.41 3.52 8.45 7.65 8.45a6.84 6.84 0 006.87-5l7.11 2.37c-1.34 5-6 10.08-14 10.08A15.47 15.47 0 0159.77 29c0-9.23 6.81-15.85 15.5-15.85 8.14 0 12.76 5 14 10.08l-7.19 2.47a6.53 6.53 0 00-6.63-5c-4.13-.04-7.59 2.94-7.59 8.3zm41.55-2.33L121.63 44h-9.91l-7.9-11.42-3.34 3.52V44H92.4V0h8.08v25.22l10.33-11.12h10.57z"/></svg>