<svg fill="none" viewBox="0 0 137 120"><path fill="#e37f45" d="M58.62 51.986c-1.549-.441-6.176-1.99-9.646-6.616-.9-1.2-3.22-4.603-3.574-9.45-.478-6.5 2.9-11.261 4.86-14.016 5.33-7.509 12.864-10.459 16.236-11.53 3.452 1.224 8.997 3.746 13.942 8.984 2.864 3.03 4.18 5.294 4.633 6.188.777 1.536 2.412 4.847 2.356 9.425-.018 1.622-.11 5.288-2.417 8.973-1.97 3.145-4.602 4.798-5.44 5.312-2.829 1.732-4.359 1.487-7.468 3.489a20.394 20.394 0 00-3.88 3.25c-.245-.117-.55-.307-.624-.606-.263-1.102 2.846-2.326 6.69-5.135 1.511-1.102 3.188-2.326 4.865-4.26 1.726-1.983 3.495-4.021 3.837-6.806.435-3.464-1.56-6.243-3.764-9.315-2.013-2.803-3.99-4.364-7.032-6.769-3.335-2.632-5.037-3.947-6.922-3.954-2.044-.006-3.758 1.39-7.185 4.18-3.378 2.749-5.062 4.126-6.463 6.77-.643 1.218-2.197 4.24-1.824 8.17.276 2.87 1.463 5.062 2.05 6.12.827 1.488 1.659 2.46 1.904 2.736a15.143 15.143 0 003.886 3.177c.325.557.649 1.12.98 1.677z"/><path fill="#c33834" d="M38.9 29.347c.318-5.716 2.54-10.484 6.035-14.928 3.494-4.608 8.103-8.103 13.023-10.802 2.381-1.273 4.768-2.38 7.308-3.494.318-.16.636-.16.955 0 5.557 2.221 10.802 5.08 15.404 9.051 5.24 4.45 9.211 9.848 10.644 16.678.477 2.38.636 4.92.477 7.308-.477 4.45-1.903 8.574-4.768 11.91-2.221 2.699-4.92 4.768-8.103 6.034-3.176 1.273-6.353 2.7-9.21 4.768-.32.318-.797.636-1.115.955-.477.318-.955.636-1.114-.16 0-.159-.159-.159-.318-.318.16-.954.955-1.432 1.591-2.062 1.904-1.432 4.131-2.54 6.512-3.336 2.381-.954 4.45-2.221 6.194-3.972 2.54-2.54 4.131-5.557 4.768-9.052.954-6.193-.955-11.75-4.921-16.518-3.972-4.92-9.37-8.103-15.086-10.484a1.446 1.446 0 00-1.592 0c-4.29 1.903-8.574 4.131-12.069 7.467-3.176 3.017-5.716 6.352-7.148 10.484-2.063 6.67-.955 12.705 3.813 17.95 1.59 1.904 3.812 3.177 6.193 4.131 1.273.478 2.381.955 3.336 1.904.954 1.273 1.744 2.54 2.54 3.813-.319.159-.478 0-.478-.16-2.221-1.903-4.767-3.176-7.466-4.29-3.654-1.432-6.99-3.335-9.53-6.353-2.858-3.335-4.767-6.989-5.398-11.438-.159-.796 0-1.432-.159-2.063-.318-1.114-.318-2.062-.318-3.017z"/><path fill="#f9db4a" d="M67.647 55.554a31.175 31.175 0 00-5.08-6.035c2.699.637 5.716 0 8.256 1.432 0-.159.16-.159 0-.318-.955-1.744-.955-3.654-1.114-5.557-.159-3.336-3.494-5.398-5.875-5.557-1.163 0-1.745-.582-1.745-1.745 0-2.38-.477-4.45-1.59-6.512-.319-.795-.637-1.432-.796-2.221 0-.478-.319-.796-.796-.796-.318 0-.636.16-.636.477-.16.478.159.796.477.955 2.54 2.063 2.699 4.921 3.017 7.785-.318 0-.318-.159-.477-.318a15.076 15.076 0 00-4.29-5.716c-.319-.319-.478-.637-.796-.955-.318-.318-.477-.796-1.114-.637-.318.16-.477.319-.637.637 0 .477.319.796.796.955 3.176.954 4.29 3.653 5.557 6.352v.319c-.318-.16-.477-.319-.795-.637-1.592-1.432-3.177-2.54-5.08-3.176-.796-.318-1.591-.478-2.063-.955 0 0-.159-.16-.318-.16-.318-.158-.636-.158-.955.16-.159.16-.318.477-.159.796.16.318.477.477.796.477 3.176-.318 5.239 1.591 7.467 3.336.477.477 1.272.954 1.272 1.59.16.796-.954.796-1.432 1.115-2.54 1.903-3.494 6.034-2.221 8.892.159.319.318.637.318.796-.318.477-.796.16-1.114 0-2.38-1.273-4.45-3.017-5.557-5.557-3.176-5.876-2.063-11.439 1.591-16.837 2.222-3.176 5.398-5.557 8.734-7.467 1.273-.795 2.699-1.273 3.972-1.903.477-.16.795-.16 1.273 0 5.398 2.222 10.325 5.239 13.66 10.325 2.063 3.017 3.177 6.512 2.858 10.166-.477 5.398-3.176 9.37-8.103 11.75-2.222 1.114-4.608 1.904-6.512 3.495.318.478 0 1.114-.795 1.273z"/><path fill="#c33834" d="M30.325 44.115c.478-4.131 1.745-8.103 4.132-11.75.477 2.062 1.113 3.812 1.903 5.556 1.744 4.29 4.131 7.944 7.626 10.962 2.38 2.221 5.08 3.813 7.944 5.08 2.699 1.272 5.557 1.903 8.256 3.017 1.114.477 2.063.955 2.858 1.744 1.273 1.114 1.432 2.54 1.592 3.972.636 3.654-.637 6.671-3.018 9.37-.318.318-.636.318-.954.318-2.381-.159-4.609-.636-6.83-1.273-4.921-1.273-9.53-3.335-13.502-6.512-4.45-3.335-7.626-7.625-9.21-12.864-.478-1.592-.637-3.018-.797-4.609V44.11zm71.314 1.744c0 6.512-2.54 12.07-7.148 16.519-3.654 3.654-7.944 6.034-12.706 7.785-3.336 1.273-6.83 1.903-10.325 2.54-.318 0-.424-.16-.318-.478.477-1.903.318-3.813.318-5.716 0-2.699-.795-5.239-1.903-7.785-.319-.636-.16-.796.318-1.114 1.591-.795 3.176-1.114 4.768-1.591 2.858-.637 5.557-1.744 8.103-3.017 2.699-1.432 5.239-3.336 7.307-5.717 2.7-2.858 4.609-6.352 6.035-10.006.477-1.592 1.114-3.018 1.432-4.609 0-.159 0-.318.16-.318s.317.159.317.318c1.745 2.858 3.018 6.035 3.495 9.37 0 1.432.159 2.54.159 3.813z"/><path fill="#c43936" d="M66.851 46.178c0 .795-.318 1.113-1.114 1.273-.795 0-1.114-.319-1.114-1.273 0-.796.478-1.273 1.114-1.273.796 0 1.114.477 1.114 1.272z"/><path fill="#000" d="M34.481 97.355c-.79-.128-1.352-.49-1.646-1.359-1.377-4.1-2.828-8.17-4.241-12.259-.196-.556-.33-1.132-.515-1.695-.17-.526-.373-.765-.954-.294-.74.606-1.377 1.108-1.726 2.155-1.096 3.33-2.381 6.603-3.721 9.847-.606 1.47-.667 3.495-2.95 3.69-.196.02-.337.215-.208.46.092.171.153.391.422.336 1.469-.293 2.932-.22 4.4.006.313.05.576-.06.619-.428.055-.447-.264-.385-.551-.434-1.194-.202-1.371-.527-.986-1.69.343-1.022.68-2.044 1.029-3.066.085-.257.116-.575.495-.6a31.99 31.99 0 014.125 0c.33.068.441.337.533.606.404 1.15.759 2.32 1.206 3.452.318.808.049 1.187-.735 1.285-.343.043-.563.11-.471.508.086.368.36.404.667.361a15.941 15.941 0 015 0c.306.05.582 0 .661-.367.086-.385-.104-.459-.453-.52zm-6.75-6.457a22.33 22.33 0 01-3.446 0c-.245-.177-.153-.36-.067-.594a211.908 211.908 0 001.597-4.29c.073-.196.11-.41.337-.422.238-.012.19.232.244.38.478 1.358.95 2.71 1.42 4.07.104.3.19.6-.092.856zM.012 103.053v-.483c.257-.196.557-.104.832-.104h135.142c.281 0 .575-.074.844.079v.514c-.293.159-.618.08-.924.08H.93c-.306 0-.63.092-.918-.092zm131.861-18.906c-.189-1.493-.452-1.505-1.389-1.536-.361-.012-.649-.196-.655-.514 0-.367.367-.342.649-.336.226 0 .453.018.673.024 1.494.092 2.981.092 4.474 0 .41-.018.826-.11 1.2.14v.515c-.184.177-.343.404-.594.477-.808.257-1.01.845-.906 1.61-.336 2.375-.287 4.761-.324 7.154-.018 1.237.361 2.424.318 3.648-.128.784.074 1.377.906 1.628.251.074.422.263.6.44v.686c-.49.22-.98.025-1.469.025-1.591 0-3.189-.22-4.774.135-.379.085-.722-.037-.765-.447-.043-.38.312-.386.6-.429 1.169-.177 1.365-.44 1.438-1.86.141-.937.061-1.88.055-2.816-.012-2.852.074-5.698-.049-8.55zM95.55 110.79c-.588.147-.398-.447-.429-.594-.453-2.087-1.713-2.815-3.776-2.674-.735.049-1.132.544-1.365 1.126-.25.618-.098 1.23.404 1.732.96.955 2.197 1.481 3.336 2.16 1.089.649 2.197 1.237 2.564 2.644.477 1.855-.832 3.562-2.265 3.899-.293.067-.569.208-.856.318h-1.377c-.612-.171-1.249-.196-1.873-.312-.374-.067-.771-.024-1.053.312h-.171c-.184-1.316-.05-2.638-.074-3.954 0-.128.104-.183.239-.165.324 1.769 1.236 2.987 3.097 3.366.844.172 2.356-.471 2.699-1.218.367-.801 0-1.927-.894-2.515-1.224-.802-2.497-1.53-3.727-2.332-1.493-.973-2.014-2.503-1.365-3.917.68-1.481 2.35-2.283 3.954-1.897.245.061.514.073.728.196.808.453 1.543.496 2.197-.263a16.078 16.078 0 010 4.094zm-92.148 4.15c-.257 2.307 1.188 3.966 3.715 3.556 2.16-.349 2.89-1.794 3.036-3.746a65.032 65.032 0 000-6.182c-.153-.783-.465-1.377-1.432-1.217-.202.036-.306-.092-.282-.307 1.273-.257 2.553-.067 3.832-.097.355-.007.367.195.073.385-.869-.049-1.346.343-1.39 1.23-.128 1.818-.018 3.636-.06 5.453-.006.306.067.625-.074.925-.018 2.601-1.016 3.8-3.586 4.321-.074.012-.135.085-.208.128h-1.72c-.716-.294-1.518-.343-2.148-.863-1.029-.844-1.567-1.897-1.481-3.244-.141-1.817-.025-3.641-.068-5.459-.012-.483.068-.967-.055-1.444-.08-.655-.416-1.028-1.114-1.022-.214 0-.49.055-.44-.325 1.652-.226 3.305-.067 5.03-.085-.195.471-.563.226-.77.385-.619.074-.858.459-.882 1.034-.08 2.185-.104 4.376.012 6.561zm128.068 2.741c.049.986.807 1.053 1.579 1.12-.668.3-4.303.325-5.239.074.789-.312 1.915-.092 1.811-1.359.123-1.157.104-2.319.012-3.476-1.107-1.732-2.215-3.458-3.311-5.196-.446-.71-.96-1.316-1.83-1.494-.195-.036-.195-.165-.183-.312a23.358 23.358 0 015.098.006c-1.683.753-1.708.894-.649 2.479.765 1.145 1.481 2.326 2.271 3.568.912-1.438 1.775-2.754 2.589-4.106.563-.931.385-1.304-.686-1.628-.189-.056-.202-.166-.189-.313 1.364-.189 2.729-.153 4.1-.024v.343c-.789-.068-1.42.33-1.811.912-1.231 1.842-2.375 3.739-3.556 5.612-.08 1.267-.098 2.528.012 3.794zM14.597 81.785c.287-.012.569-.03.856-.024.215 0 .472-.068.515.287.048.361-.215.429-.453.502-.19.055-.398.043-.594.086-1.187.275-2.179.881-3.03 1.763-1.107 1.156-2.227 2.307-3.409 3.384-.544.502-.49.881-.098 1.377 1.108 1.395 2.204 2.803 3.318 4.199.728.911 1.462 1.811 2.203 2.71.594.723 1.304 1.262 2.27 1.317.3.018.509.049.472.416-.043.373-.263.471-.6.422a19.201 19.201 0 00-5.429.006c-.306.043-.685.11-.808-.281-.153-.49.27-.539.6-.63.386-.105.729-.252.355-.704-1.646-2.02-3.054-4.236-4.871-6.115-.276-.281-.545-.526-.93-.165-.178 1.353-.031 2.711-.08 4.07-.019.422.055.85-.05 1.273-.06 1.15.313 1.598 1.445 1.72.276.03.618-.067.575.398-.042.49-.41.526-.752.453-1.549-.343-3.116-.086-4.676-.16-.263-.012-.496.062-.74.147-.331.117-.552-.06-.643-.367-.098-.349.146-.453.422-.465 1.09-.067 1.401-.771 1.432-1.714.129-2.448.037-4.896.049-7.344 0-1.395.08-2.79-.049-4.18-.16-1.328-.16-1.34-1.432-1.542-.373-.062-.484-.251-.471-.57.006-.36.293-.275.501-.281.227-.006.453.012.686.024 1.548.092 3.097.098 4.645 0 .3.05.76-.238.839.264.085.544-.423.483-.753.557-.832.17-1.108.556-1.083 1.566.08 1.543.085 3.091 0 4.633.293.612.679.392 1.01.068a90.624 90.624 0 002.643-2.669c.839-.887 1.635-1.817 2.442-2.736.288-.33.398-.691-.165-.826-.324-.08-.68-.085-.606-.52.086-.49.508-.343.833-.33 1.205.104 2.405.091 3.61 0zm42.15 2.889c-.141-1.17-.704-1.928-1.953-2.1-.232-.03-.697-.048-.63-.526.073-.495.49-.287.753-.287 1.169-.025 2.344-.013 3.519 0 .275 0 .545-.055.74.275 1.065 1.824 2.485 3.385 3.905 4.92 1.891 2.045 3.746 4.132 5.655 6.158.19.03.263-.08.257-.239-.03-2.338.098-4.67-.061-7.008.067-.74-.092-1.462-.184-2.19-.085-.643-.459-.998-1.126-1.072-.41-.043-1.052-.085-1.028-.514.03-.6.68-.318 1.059-.324 1.395-.037 2.797-.019 4.192-.006.202 0 .484-.098.508.275.019.294-.159.349-.391.447-1.586.649-1.763.98-1.628 2.883a255.49 255.49 0 010 11.004c-.013.398-.013.802-.037 1.2-.012.238.116.569-.233.654-.33.08-.691.098-.948-.208-1.224-1.42-2.436-2.852-3.666-4.266-1.475-1.695-2.944-3.396-4.456-5.061-.949-1.053-1.769-2.228-2.87-3.14-.037.043-.098.092-.098.14 0 2.7-.086 5.405.043 8.104.073.728.018 1.469.183 2.197.14.63.471 1.016 1.047 1.218.367.129 1.034 0 .979.514-.067.63-.728.288-1.144.343a23.81 23.81 0 00-3.795 0c-.288.018-.618.067-.661-.337-.043-.397.312-.41.57-.483 1.21-.343 1.254-.416 1.309-1.69.018-.477.128-.948.19-1.42.098-3.151.091-6.303 0-9.455zm33.84-3.232c.336-.012.758-.134.838.343.073.453-.373.429-.649.484-.777.153-.82.55-.557 1.218 1.322 3.304 2.59 6.634 4.131 10.03.65-1.438 1.261-2.735 1.836-4.051.778-1.793 1.524-3.605 2.283-5.41.013-.025.019-.055.03-.08.546-1.34.521-1.42-.899-1.701-.36-.074-.49-.233-.477-.57.012-.367.294-.269.508-.281.116 0 .226.012.343.018a27.63 27.63 0 003.966 0c.214 0 .483-.104.514.257.018.257-.068.508-.331.527-1.53.092-2.05 1.279-2.564 2.405a581.932 581.932 0 00-4.095 9.174c-.532 1.218-.973 2.479-1.444 3.727-.129.337-.3.68-.667.674-.337 0-.447-.343-.557-.655-1.61-4.645-3.703-9.095-5.52-13.654-.343-.863-.833-1.628-1.94-1.64-.331 0-.43-.276-.405-.545.043-.484.423-.233.667-.27 1.665.092 3.33.092 4.988 0zm28.562 1.647l-.189-.141a10.108 10.108 0 00-2.785 0c-1.328-.19-2.044.588-2.595 1.634-.147.282-.251.74-.71.57-.459-.172-.233-.54-.141-.87.257-.918.484-1.848.716-2.772.123-.484.355-.612.649-.141.22.349.563.343.887.41 1.249.129 2.504.055 3.752.049 2.76-.012 5.527.08 8.287-.049.386-.024.741-.14.961-.471.135-.202.269-.288.483-.202.276.11.135.343.117.52-.117 1.096-.245 2.191-.361 3.287-.019.195-.111.355-.27.397-.245.068-.342-.128-.404-.336-.03-.11-.085-.208-.116-.318-.477-1.5-.734-1.696-2.283-1.714-.912-.208-1.848.03-2.766-.129-.202 0-.165.178-.202.294-.123 2.307-.043 4.62-.049 6.928 0 1.824-.092 3.648.055 5.472-.343 1.26.563 1.897 1.463 1.885.257 0 .593-.16.759.19a.433.433 0 01-.074.483c-.251.275-.587.239-.869.116-.416-.177-.851-.049-1.267-.134a17.38 17.38 0 00-3.091 0c-.526.08-1.071-.019-1.597.177-.312.116-.71.08-.783-.404-.08-.532.318-.404.612-.434 1.499-.16 1.768-.447 1.781-1.867.116-.214.073-.447.073-.673V83.682c0-.202.025-.404-.049-.593zm-92.012 36.128c-.704.006-.87-.643-1.2-1.047-2.307-2.791-4.584-5.606-6.873-8.415-.196 1.071-.073 2.154-.073 3.231 0 1.506-.092 3.018.06 4.523-.299.759.209.992.772 1.175.239.08.55-.079.875.282h-4.155c.63-.392 1.628-.319 1.505-1.457.165-1.756.061-3.513.061-5.269 0-1.267.135-2.546-.091-3.807-.527-.618-1.114-1.12-1.996-1.096-.195 0-.202-.153-.195-.3 1.083-.202 2.166-.122 3.255-.042 1.58 1.958 3.14 3.929 4.744 5.875.808.979 1.53 2.026 2.46 2.901.19-1.01.073-2.032.08-3.048 0-1.45.08-2.895-.043-4.345-.061-.692-.416-1.059-1.132-1.016-.27.012-.502-.025-.594-.325a17.699 17.699 0 014.253 0c-.091.294-.324.355-.587.325-.55-.061-.863.226-1.059.697.08 3.642.025 7.29.03 10.931 0 .092-.054.159-.091.233zm38.882-4.646c-.41-1.309-.698-1.53-2.08-1.53-.741 0-1.482.013-2.222.019-.209 1.603-.105 3.207-.056 4.81.056.312.227.502.551.52.973.104 1.946.098 2.92 0 1.364.007 2.087-.875 2.686-1.934.098-.171.154-.422.41-.293.19.098 0 .3 0 .453 0 .079-.067.153-.091.232-.486 1.461-1.496 2.191-3.03 2.191h-6.169c-.263 0-.557.098-.881-.177.685-.319 1.738-.062 1.78-1.182a162.07 162.07 0 000-9.302c-.054-.692-.397-1.065-1.126-1.029-.25.013-.58.074-.483-.379 3.042-.043 6.09-.135 9.131.049-.024.655.055 1.297.153 1.94.031.184.16.514-.146.575-.3.055-.288-.244-.35-.465-.293-1.101-.58-1.334-1.7-1.389-1.084-.153-2.167-.025-3.25-.067-.258-.013-.466.042-.454.361.056 1.45-.134 2.907.098 4.351.876.006 1.75.025 2.626.019 1.102-.007 1.371-.221 1.646-1.28.055-.208-.03-.489.337-.428.226 1.279.061 2.571.086 3.856 0 .355-.208.343-.392.067zm-11.714-7.552c0 .055 0 .153-.018.165-1.647.588-1.806 2.197-2.363 3.495-1.138 2.656-2.197 5.349-3.293 8.024-.079.195-.091.483-.373.514-.36.036-.373-.312-.465-.521-1.328-3.066-2.638-6.144-3.972-9.211-.434-.997-.716-2.172-2.154-2.209-.025 0-.043-.153-.062-.233 1.653-.177 3.305-.159 4.952-.006 0 .423-.343.276-.563.349-.496.153-.949.398-.723 1.01.998 2.705 2.222 5.319 3.416 8.122 1.07-2.669 2.148-5.147 3.066-7.687.312-.869-.055-1.206-.753-1.451-.177-.061-.324-.11-.294-.337 1.2-.177 2.393-.146 3.593-.012zm65.983.031c.043.893.104 1.781-.025 2.686-.122-.036-.202-.043-.214-.067-.447-1.622-.777-1.873-2.656-1.952-.343-.013-.686.018-1.022.024-.178.294-.086.618-.086.924-.037 3.005.061 6.004-.055 9.009.018 1.126.967.949 1.634 1.273h-5.012c.844-.159 1.548-.446 1.646-1.444.128-2.846.031-5.692.049-8.538 0-.416.135-.851-.11-1.248-.484 0-.98-.055-1.457 0-1.512.202-1.732.024-2.54 2.013-.049-.912-.269-1.824.049-2.742 2.589-.134 5.178-.036 7.767-.049.673 0 1.358-.153 2.019.104zm-15.815 10.453c-.018 1.15.906 1.157 1.665 1.457h-5.013c.631-.374 1.628-.294 1.5-1.439.177-1.475.067-2.962.067-4.437 0-1.622.11-3.25-.073-4.866.024-.709-.49-.789-1.01-.856-.221-.031-.557.134-.521-.319 1.604-.226 3.214-.061 4.817-.085.123 0 .178.122.159.251-.073.153-.214.165-.355.159-.85-.043-1.236.379-1.236 1.205a135.84 135.84 0 000 8.936zm-70.096-8.954c.086-.826-.294-1.218-1.12-1.187-.226.006-.483.03-.428-.331 1.658-.196 3.317-.055 5.049-.085-.196.483-.57.238-.771.397-.594.098-.943.398-.875 1.047a151.526 151.526 0 000 9.29c.067.974.88.961 1.536 1.267h-5.056c.655-.373 1.775-.177 1.671-1.426.16-1.248.068-2.503.061-3.757-.006-1.739.104-3.477-.06-5.215zm17.957-11.108c-.704-.33-1.42-.649-1.903-1.273-1.291-1.659-2.344-3.47-3.427-5.258-.46-.752-.282-.967.428-1.358 2.479-1.359 2.717-4.015 1.45-5.882-1.046-1.536-2.766-1.873-4.529-1.928a26.274 26.274 0 00-4.498 0c-.783.086-1.591-.147-2.362.16-.208.079-.582-.086-.527.354.043.337.319.319.582.362.606.097 1.285.146 1.31 1.01.14 1.652.06 3.304.055 4.957 0 2.368.08 4.737-.05 7.1.05 1.1-.63 1.45-1.572 1.548-.245.024-.557.073-.465.44.06.245.214.447.544.41.306-.03.625-.012.937-.012a21.202 21.202 0 013.99 0c.312 0 .624 0 .936.012.325.007.582-.091.57-.459-.013-.324-.276-.367-.551-.404-1.132-.153-1.371-.41-1.457-1.536.092-.336.037-.68.05-1.016.048-1.273-.093-2.546.079-3.813 1.07-.336 1.652-.091 2.24.882.753 1.236 1.383 2.54 2.215 3.727 1.463 2.093 3.434 3.146 5.857 2.626.208-.043.429-.068.484-.276.08-.281-.239-.3-.38-.367zm-5.949-10.27c-.275 1.824-2.393 3.152-4.174 2.632-.116-.037-.202-.19-.3-.288-.104-2.191-.122-4.382.007-6.573.293-.551.814-.324 1.23-.318 1.824.036 3.243 1.517 3.25 3.341 0 .398.042.808-.013 1.2zm67.617 10.19c-.636-.128-1.279-.336-1.524-1.053a989.686 989.686 0 01-1.97-5.71c-.986-2.895-2.075-5.753-2.95-8.684-.086-.294-.294-.674-.753-.294-.802.673-1.885 1.138-1.842 2.448 0 .049-.043.104-.068.16-1.444 3.708-2.901 7.41-4.314 11.132-.404 1.065-.894 1.958-2.191 2.044-.251.018-.46.147-.368.44.074.252.227.52.551.362.471-.233.955-.135 1.432-.129.906.012 1.824-.122 2.724.147.294.086.655.061.74-.367.098-.471-.226-.496-.569-.508-.11 0-.208-.086-.318-.11-.894-.22-.992-.392-.698-1.304.355-1.108.722-2.21 1.09-3.317.085-.263.128-.575.502-.594a31.988 31.988 0 014.125 0c.434.11.52.514.636.839.386 1.065.673 2.172 1.102 3.219.342.832.036 1.175-.735 1.273-.33.043-.569.092-.477.502.086.367.361.41.667.367a15.97 15.97 0 015.006 0c.3.05.582.012.667-.361.086-.386-.116-.44-.465-.514zm-6.738-6.469a22.321 22.321 0 01-3.446 0c-.153-.08-.202-.226-.153-.361.631-1.665 1.279-3.323 2.118-5 .33.973.661 1.94.997 2.913.184.532.38 1.059.57 1.591.104.3.202.6-.086.863zm-19.212 6.463c-.79-.128-1.353-.49-1.647-1.359-1.377-4.1-2.827-8.17-4.24-12.259-.197-.556-.331-1.132-.515-1.695-.171-.526-.373-.765-.955-.294-.74.606-1.377 1.108-1.726 2.155-1.095 3.33-2.38 6.603-3.72 9.847-.607 1.47-.668 3.495-2.95 3.69-.197.02-.337.215-.209.46.092.171.153.391.422.336 1.47-.293 2.932-.22 4.401.006.312.05.575-.06.618-.428.055-.447-.263-.385-.55-.434-1.194-.202-1.372-.527-.986-1.69.343-1.022.68-2.044 1.028-3.066.086-.257.116-.575.496-.6a31.988 31.988 0 014.125 0c.33.068.44.337.532.606.404 1.15.76 2.32 1.206 3.452.318.808.049 1.187-.734 1.285-.343.043-.563.11-.472.508.086.368.361.404.667.361a15.941 15.941 0 015 0c.307.05.582 0 .662-.367.085-.385-.104-.459-.453-.52zm-6.75-6.457a22.33 22.33 0 01-3.447 0c-.244-.177-.153-.36-.067-.594a211.908 211.908 0 001.598-4.29c.073-.196.11-.41.336-.422.239-.012.19.232.245.38.477 1.358.949 2.71 1.42 4.07.104.3.19.6-.092.856zm.385 26.354c-.82-1.083-1.542-2.234-2.369-3.311-.465-.606-.49-.851.337-1.089 1.634-.484 2.368-2.1 1.836-3.74-.55-1.707-1.952-1.971-3.446-2.117-1.885.018-3.77.036-5.655.048 0 .147.019.325.196.294 1.126-.196 1.359.557 1.518 1.396.092 2.864.098 5.722 0 8.586-.025 1.09-.796 1.396-1.671 1.616h5.03c-.097-.171-.201-.22-.305-.226-1.096-.117-1.347-.392-1.359-1.518-.006-.943-.018-1.891.006-2.834.006-.269-.202-.734.251-.777.429-.037.924-.257 1.304.306.985 1.45 2.038 2.858 3.066 4.278.214.294.429.789.68.814 1.015.092 2.05.037 3.078.037.012-.074.018-.147.03-.221-1.046-.202-1.903-.734-2.527-1.554zm-4.107-4.578c-1.762.477-1.787.429-1.787-1.383v-.943c0-.312-.055-.642.012-.942.123-.563-.422-1.347.392-1.665.924-.361 2.448.067 2.9.765 1.005 1.549.644 3.581-1.517 4.168z"/></svg>