<svg xmlns="http://www.w3.org/2000/svg" width="137" height="120" fill="none" viewBox="0 0 137 120"><path fill="#E37F45" d="M58.6194 51.9856C57.071 51.545 52.4441 49.9965 48.9739 45.3696C48.0742 44.17 45.7546 40.7672 45.3997 35.9199C44.9223 29.4202 48.3007 24.6587 50.2592 21.9045C55.5899 14.395 63.1239 11.445 66.4962 10.374C69.948 11.598 75.493 14.1196 80.4382 19.3585C83.3024 22.388 84.6183 24.6525 85.0712 25.5461C85.8485 27.0823 87.4826 30.3933 87.4275 34.9713C87.4091 36.5932 87.3173 40.2592 85.01 43.9436C83.0393 47.0894 80.4076 48.7419 79.5691 49.256C76.7415 50.988 75.2115 50.7432 72.1024 52.7445C70.3091 53.8951 69.03 55.1314 68.2221 55.9944C67.9773 55.8781 67.6713 55.6884 67.5979 55.3885C67.3347 54.2868 70.4438 53.0628 74.2873 50.2536C75.799 49.1519 77.476 47.9279 79.1529 45.9939C80.8788 44.0109 82.6476 41.9729 82.9903 39.1881C83.4249 35.7241 81.4296 32.9455 79.2263 29.8731C77.2128 27.07 75.2359 25.5094 72.1942 23.1041C68.8586 20.4724 67.1572 19.1565 65.2722 19.1504C63.228 19.1443 61.5143 20.5397 58.087 23.3306C54.7086 26.0785 53.0255 27.4556 51.624 30.0996C50.9813 31.3175 49.4268 34.3409 49.8001 38.2701C50.0756 41.1405 51.2629 43.3316 51.8504 44.3904C52.6767 45.8776 53.509 46.8507 53.7538 47.1261C55.1554 48.7296 56.6242 49.7211 57.6402 50.3025C57.9646 50.8595 58.2889 51.4225 58.6194 51.9795V51.9856Z"/><path fill="#C33834" d="M38.8999 29.3468C39.2182 23.6305 41.4398 18.8628 44.9345 14.4195C48.4291 9.81095 53.0377 6.31628 57.9584 3.61725C60.3392 2.34423 62.7261 1.23647 65.266 0.12258C65.5842 -0.0365468 65.9025 -0.0365468 66.2207 0.12258C71.7779 2.34423 77.023 5.2024 81.6254 9.17445C86.8644 13.6239 90.8364 19.0219 92.2686 25.8522C92.746 28.2329 92.9051 30.7728 92.746 33.1597C92.2686 37.6092 90.8426 41.7342 87.9783 45.0698C85.7566 47.7688 83.0576 49.8375 79.875 51.1044C76.6986 52.3774 73.5222 53.8034 70.6641 55.872C70.3458 56.1903 69.8684 56.5085 69.5502 56.8268C69.0728 57.145 68.5954 57.4633 68.4363 56.6677C68.4363 56.5085 68.2772 56.5085 68.118 56.3494C68.2772 55.3947 69.0728 54.9173 69.7093 54.2869C71.6127 52.8547 73.8405 51.747 76.2213 50.9513C78.602 49.9966 80.6707 48.7297 82.415 46.9793C84.9549 44.4394 86.5461 41.4221 87.1826 37.9274C88.1374 31.7337 86.2279 26.1765 82.262 21.4088C78.2899 16.4882 72.8918 13.3056 67.1755 10.9248C66.6981 10.6066 66.0616 10.6066 65.5842 10.9248C61.2939 12.8282 57.0098 15.056 53.5151 18.3916C50.3387 21.4088 47.7988 24.7444 46.3666 28.8756C44.3041 35.5466 45.4119 41.5812 50.1795 46.8263C51.7708 48.7297 53.9925 50.0027 56.3732 50.9575C57.6463 51.4348 58.754 51.9122 59.7088 52.8609C60.6635 54.1339 61.4531 55.4008 62.2487 56.6738C61.9304 56.8329 61.7713 56.6738 61.7713 56.5147C59.5497 54.6113 57.0036 53.3382 54.3046 52.2244C50.6508 50.7922 47.3153 48.8888 44.7754 45.8715C41.9172 42.536 40.0077 38.8822 39.3773 34.4328C39.2182 33.6371 39.3773 33.0006 39.2182 32.3702C38.8999 31.2563 38.8999 30.3077 38.8999 29.3529V29.3468Z"/><path fill="#F9DB4A" d="M67.6467 55.5537C66.2146 53.3321 64.4703 51.2634 62.5669 49.5191C65.2659 50.1557 68.2832 49.5191 70.8231 50.9513C70.8231 50.7922 70.9823 50.7922 70.8231 50.633C69.8684 48.8888 69.8684 46.9792 69.7093 45.0758C69.5501 41.7403 66.2146 39.6778 63.8338 39.5186C62.671 39.5186 62.0895 38.9372 62.0895 37.7744C62.0895 35.3936 61.6121 33.3249 60.4983 31.2624C60.18 30.4668 59.8618 29.8303 59.7026 29.0408C59.7026 28.5634 59.3844 28.2451 58.907 28.2451C58.5887 28.2451 58.2705 28.4042 58.2705 28.7225C58.1114 29.1999 58.4296 29.5181 58.7479 29.6773C61.2878 31.7398 61.4469 34.598 61.7652 37.4622C61.4469 37.4622 61.4469 37.3031 61.2878 37.144C60.333 34.9223 58.907 33.0128 56.9975 31.4277C56.6792 31.1094 56.5201 30.7912 56.2018 30.4729C55.8836 30.1546 55.7245 29.6773 55.0879 29.8364C54.7697 29.9955 54.6106 30.1546 54.4514 30.4729C54.4514 30.9503 54.7697 31.2685 55.2471 31.4277C58.4235 32.3824 59.5374 35.0815 60.8043 37.7805V38.0987C60.486 37.9396 60.3269 37.7805 60.0086 37.4622C58.4174 36.0301 56.8322 34.9223 54.9288 34.2858C54.1332 33.9676 53.3376 33.8084 52.8663 33.3311C52.8663 33.3311 52.7072 33.1719 52.548 33.1719C52.2298 33.0128 51.9115 33.0128 51.5933 33.3311C51.4342 33.4902 51.275 33.8084 51.4342 34.1267C51.5933 34.4449 51.9115 34.6041 52.2298 34.6041C55.4062 34.2858 57.4687 36.1953 59.6965 37.9396C60.1739 38.417 60.9695 38.8944 60.9695 39.5309C61.1286 40.3265 60.0148 40.3265 59.5374 40.6448C56.9975 42.5482 56.0427 46.6793 57.3157 49.5375C57.4748 49.8558 57.634 50.174 57.634 50.3331C57.3157 50.8105 56.8383 50.4923 56.5201 50.3331C54.1393 49.0601 52.0707 47.3159 50.9629 44.7759C47.7865 38.9005 48.9004 33.3372 52.5542 27.9391C54.7758 24.7627 57.9522 22.3819 61.2878 20.4724C62.5608 19.6768 63.9868 19.1994 65.2598 18.569C65.7372 18.4099 66.0555 18.4099 66.5328 18.569C71.9309 20.7906 76.8577 23.8079 80.1933 28.8939C82.2558 31.9112 83.3697 35.4058 83.0514 39.0596C82.574 44.4577 79.875 48.4297 74.9482 50.8105C72.7265 51.9244 70.3396 52.7139 68.4362 54.3052C68.7545 54.7826 68.4362 55.4191 67.6406 55.5782L67.6467 55.5537Z"/><path fill="#C33834" d="M30.3254 44.115C30.8028 39.9838 32.0697 36.0118 34.4566 32.3641C34.934 34.4266 35.5705 36.177 36.36 37.9213C38.1043 42.2116 40.4912 45.8654 43.9859 48.8827C46.3666 51.1043 49.0657 52.6956 51.93 53.9625C54.629 55.2355 57.4872 55.8659 60.1862 56.9798C61.3001 57.4571 62.2487 57.9345 63.0444 58.724C64.3174 59.8379 64.4765 61.2639 64.6356 62.6961C65.2721 66.3499 63.9991 69.3672 61.6183 72.0662C61.3001 72.3845 60.9818 72.3845 60.6636 72.3845C58.2828 72.2253 56.055 71.748 53.8334 71.1114C48.9127 69.8384 44.3041 67.7759 40.3321 64.5995C35.8826 61.2639 32.7062 56.9736 31.1211 51.7347C30.6437 50.1434 30.4846 48.7174 30.3254 47.1261V44.1089V44.115Z"/><path fill="#C33834" d="M101.639 45.8593C101.639 52.3712 99.0992 57.9284 94.4906 62.3779C90.8368 66.0317 86.5465 68.4124 81.785 70.1628C78.4494 71.4358 74.9548 72.0662 71.4601 72.7027C71.1418 72.7027 71.0357 72.5436 71.1418 72.2254C71.6192 70.322 71.4601 68.4124 71.4601 66.509C71.4601 63.81 70.6645 61.2701 69.5567 58.7241C69.2384 58.0876 69.3976 57.9284 69.8749 57.6102C71.4662 56.8145 73.0514 56.4963 74.6426 56.0189C77.5008 55.3824 80.1998 54.2746 82.7458 53.0016C85.4449 51.5695 87.9848 49.6661 90.0534 47.2853C92.7525 44.4271 94.662 40.9325 96.088 37.2787C96.5654 35.6874 97.2019 34.2614 97.5202 32.6701C97.5202 32.511 97.5202 32.3519 97.6793 32.3519C97.8384 32.3519 97.9975 32.511 97.9975 32.6701C99.7418 35.5283 101.015 38.7047 101.492 42.0402C101.492 43.4724 101.651 44.5801 101.651 45.8532L101.639 45.8593Z"/><path fill="#C43936" d="M66.8513 46.1775C66.8513 46.9731 66.5331 47.2914 65.7374 47.4505C64.9418 47.4505 64.6235 47.1323 64.6235 46.1775C64.6235 45.3819 65.1009 44.9045 65.7374 44.9045C66.5331 44.9045 66.8513 45.3819 66.8513 46.1775Z"/><path fill="#000" d="M34.4813 97.3551C33.6918 97.2266 33.1287 96.8655 32.8349 95.9964C31.4579 91.8958 30.0074 87.8258 28.5936 83.7375C28.3977 83.1806 28.2631 82.6052 28.0795 82.0422C27.9081 81.5158 27.7062 81.2772 27.1247 81.7484C26.3842 82.3543 25.7477 82.8562 25.3988 83.9027C24.3033 87.2322 23.018 90.5065 21.6777 93.7502C21.0718 95.2191 21.0106 97.2449 18.7277 97.4408C18.5319 97.4591 18.3911 97.655 18.5196 97.8998C18.6115 98.0711 18.6727 98.2915 18.9419 98.2364C20.4108 97.9426 21.8736 98.0161 23.3424 98.2425C23.6545 98.2915 23.9177 98.1813 23.9606 97.8141C24.0156 97.3673 23.6974 97.4285 23.4097 97.3796C22.2163 97.1776 22.0388 96.8532 22.4244 95.6904C22.7671 94.6683 23.1037 93.6462 23.4526 92.6241C23.5383 92.3671 23.5689 92.0488 23.9483 92.0243C25.3254 91.9386 26.6963 91.9325 28.0734 92.0243C28.4039 92.0917 28.514 92.3609 28.6058 92.6302C29.0098 93.7808 29.3647 94.9498 29.8115 96.0821C30.1298 96.8899 29.8605 97.2694 29.0771 97.3673C28.7344 97.4102 28.514 97.4775 28.6058 97.8753C28.6915 98.2425 28.9669 98.2792 29.2729 98.2364C30.9438 97.9793 32.6085 97.9671 34.2732 98.2364C34.5792 98.2854 34.8546 98.2364 34.9342 97.8692C35.0199 97.4836 34.8301 97.4102 34.4813 97.349V97.3551ZM27.7306 90.8982C26.58 90.9839 25.4355 90.99 24.2849 90.8982C24.0401 90.7207 24.1319 90.5371 24.2176 90.3045C24.7623 88.8785 25.3009 87.4525 25.815 86.0142C25.8884 85.8184 25.9252 85.6042 26.1516 85.5919C26.3903 85.5797 26.3413 85.8245 26.3964 85.9714C26.8738 87.3301 27.3451 88.6827 27.8163 90.0414C27.9204 90.3413 28.0061 90.6412 27.7245 90.8982H27.7306Z"/><path fill="#000" d="M0.0119629 103.053C0.0119629 102.894 0.0119629 102.735 0.0119629 102.57C0.269014 102.374 0.568907 102.466 0.844318 102.466C45.8894 102.466 90.9407 102.466 135.986 102.466C136.267 102.466 136.561 102.392 136.83 102.545V103.059C136.537 103.218 136.212 103.139 135.906 103.139C128.366 103.139 120.826 103.139 113.286 103.139C80.7994 103.139 48.3131 103.139 15.8206 103.139C10.8571 103.139 5.89353 103.139 0.930002 103.139C0.623989 103.139 0.299615 103.231 0.0119629 103.047V103.053Z"/><path fill="#000" d="M131.873 84.1475C131.684 82.6542 131.421 82.6419 130.484 82.6113C130.123 82.5991 129.835 82.4155 129.829 82.0972C129.829 81.73 130.196 81.7545 130.478 81.7606C130.704 81.7606 130.931 81.779 131.151 81.7851C132.645 81.8769 134.132 81.8769 135.625 81.7851C136.035 81.7667 136.451 81.6749 136.825 81.9258V82.4399C136.641 82.6174 136.482 82.8439 136.231 82.9173C135.423 83.1744 135.221 83.7619 135.325 84.527C134.989 86.9016 135.038 89.2885 135.001 91.6815C134.983 92.9178 135.362 94.1052 135.319 95.3292C135.191 96.1126 135.393 96.7063 136.225 96.9572C136.476 97.0306 136.647 97.2204 136.825 97.3979V98.0833C136.335 98.3037 135.845 98.1078 135.356 98.1078C133.765 98.1078 132.167 97.8875 130.582 98.2425C130.203 98.3281 129.86 98.2057 129.817 97.7957C129.774 97.4162 130.129 97.4101 130.417 97.3673C131.586 97.1898 131.782 96.9266 131.855 95.5067C131.996 94.5703 131.916 93.6278 131.91 92.6914C131.898 89.8393 131.984 86.9934 131.861 84.1414L131.873 84.1475Z"/><path fill="#000" d="M95.5496 110.789C94.962 110.936 95.1517 110.342 95.1211 110.195C94.6682 108.108 93.4075 107.38 91.3449 107.521C90.6105 107.57 90.2127 108.065 89.9801 108.647C89.7292 109.265 89.8822 109.877 90.384 110.379C91.3449 111.334 92.5812 111.86 93.7196 112.539C94.809 113.188 95.9168 113.776 96.284 115.183C96.7614 117.038 95.4516 118.745 94.0195 119.082C93.7257 119.149 93.4503 119.29 93.1627 119.4H91.7856C91.1736 119.229 90.5371 119.204 89.9128 119.088C89.5395 119.021 89.1416 119.064 88.8601 119.4H88.6887C88.5051 118.084 88.6398 116.762 88.6153 115.446C88.6153 115.318 88.7193 115.263 88.854 115.281C89.1784 117.05 90.0903 118.268 91.9508 118.647C92.7954 118.819 94.3071 118.176 94.6499 117.429C95.0171 116.628 94.6499 115.502 93.7563 114.914C92.5323 114.112 91.2593 113.384 90.0291 112.582C88.5357 111.609 88.0155 110.079 88.6643 108.665C89.3436 107.184 91.0144 106.382 92.6179 106.768C92.8628 106.829 93.1321 106.841 93.3463 106.964C94.1541 107.417 94.8886 107.46 95.5434 106.701C95.7209 108.065 95.7148 109.43 95.5434 110.795L95.5496 110.789Z"/><path fill="#000" d="M3.40248 114.939C3.14543 117.246 4.58981 118.905 7.11748 118.495C9.27793 118.146 10.0062 116.701 10.1531 114.749C10.2511 112.686 10.2511 110.63 10.1531 108.567C10.0001 107.784 9.68799 107.19 8.72099 107.35C8.51902 107.386 8.41498 107.258 8.43946 107.043C9.71247 106.786 10.9916 106.976 12.2707 106.946C12.6257 106.939 12.638 107.141 12.3442 107.331C11.4751 107.282 10.9977 107.674 10.9549 108.561C10.8264 110.379 10.9365 112.197 10.8937 114.014C10.8876 114.32 10.961 114.639 10.8202 114.939C10.8019 117.54 9.80427 118.739 7.23377 119.26C7.16032 119.272 7.09912 119.345 7.02568 119.388H5.30588C4.58981 119.094 3.78806 119.045 3.15767 118.525C2.12947 117.681 1.59089 116.628 1.67657 115.281C1.5358 113.464 1.65209 111.64 1.60925 109.822C1.59701 109.339 1.67657 108.855 1.55416 108.378C1.4746 107.723 1.13799 107.35 0.440276 107.356C0.226067 107.356 -0.0493447 107.411 -0.000382614 107.031C1.65209 106.805 3.30456 106.964 5.03047 106.946C4.83462 107.417 4.46741 107.172 4.25932 107.331C3.64117 107.405 3.40248 107.79 3.378 108.365C3.29844 110.55 3.27396 112.741 3.39024 114.926L3.40248 114.939Z"/><path fill="#000" d="M131.47 117.68C131.519 118.666 132.277 118.733 133.049 118.8C132.381 119.1 128.746 119.125 127.81 118.874C128.599 118.562 129.725 118.782 129.621 117.515C129.744 116.358 129.725 115.196 129.633 114.039C128.526 112.307 127.418 110.581 126.322 108.843C125.876 108.133 125.362 107.527 124.492 107.349C124.297 107.313 124.297 107.184 124.309 107.037C126.01 106.86 127.706 106.848 129.407 107.043C127.724 107.796 127.699 107.937 128.758 109.522C129.523 110.667 130.239 111.848 131.029 113.09C131.941 111.652 132.804 110.336 133.618 108.984C134.181 108.053 134.003 107.68 132.932 107.356C132.743 107.3 132.73 107.19 132.743 107.043C134.107 106.854 135.472 106.89 136.843 107.019V107.362C136.054 107.294 135.423 107.692 135.032 108.274C133.801 110.116 132.657 112.013 131.476 113.886C131.396 115.153 131.378 116.414 131.488 117.68H131.47Z"/><path fill="#000" d="M14.5965 81.7851C14.8842 81.7729 15.1657 81.7545 15.4534 81.7606C15.6676 81.7606 15.9246 81.6933 15.9675 82.0483C16.0164 82.4094 15.7532 82.4767 15.5146 82.5502C15.3248 82.6052 15.1167 82.593 14.9209 82.6358C13.7336 82.9113 12.7421 83.5172 11.8914 84.3985C10.7836 85.5552 9.66359 86.7058 8.48238 87.783C7.93767 88.2848 7.99276 88.6643 8.38445 89.16C9.49222 90.5555 10.5877 91.9631 11.7016 93.3585C12.4299 94.2705 13.1644 95.1701 13.9049 96.0698C14.4986 96.792 15.2085 97.3306 16.1755 97.3857C16.4754 97.404 16.6835 97.4346 16.6468 97.8019C16.604 98.1752 16.3836 98.2731 16.047 98.2242C14.2354 97.9732 12.4299 97.9671 10.6183 98.2303C10.3123 98.2731 9.93288 98.3404 9.81047 97.9487C9.65747 97.4591 10.0798 97.4101 10.4103 97.3183C10.7958 97.2143 11.1386 97.0674 10.7652 96.6145C9.11888 94.5948 7.71122 92.3793 5.89351 90.5004C5.6181 90.2188 5.3488 89.974 4.96323 90.3351C4.78574 91.6877 4.93263 93.0464 4.88366 94.4051C4.8653 94.8274 4.93875 95.2558 4.8347 95.6781C4.7735 96.8287 5.14684 97.2755 6.27908 97.3979C6.5545 97.4285 6.89723 97.3306 6.85439 97.7957C6.81155 98.2853 6.44433 98.3221 6.1016 98.2486C4.55317 97.9059 2.98638 98.1629 1.42572 98.0895C1.16255 98.0773 0.929977 98.1507 0.685166 98.2364C0.354672 98.3527 0.134343 98.1752 0.042539 97.8692C-0.0553851 97.5203 0.189425 97.4163 0.464837 97.404C1.55424 97.3367 1.86638 96.6329 1.89698 95.6904C2.0255 93.2423 1.9337 90.7942 1.94594 88.3461C1.94594 86.9506 2.0255 85.5552 1.89698 84.1659C1.73785 82.8378 1.73785 82.8256 0.464837 82.6236C0.0915011 82.5624 -0.0186636 82.3727 -0.00642306 82.0544C-0.000302798 81.6933 0.287349 81.779 0.495438 81.7729C0.721888 81.7668 0.948337 81.7851 1.18091 81.7974C2.72933 81.8892 4.27776 81.8953 5.82618 81.7974C6.12608 81.8463 6.5851 81.5587 6.66466 82.0605C6.75034 82.6052 6.24236 82.544 5.91187 82.6175C5.07951 82.7889 4.8041 83.1744 4.82858 84.1843C4.90815 85.7266 4.91427 87.275 4.82858 88.8173C5.12235 89.4293 5.50793 89.209 5.83843 88.8846C6.73198 88.0094 7.62554 87.1281 8.48238 86.2162C9.32085 85.3288 10.1165 84.3985 10.9244 83.4804C11.212 83.1499 11.3222 82.7889 10.7591 82.6542C10.4347 82.5746 10.0798 82.5685 10.1532 82.134C10.2389 81.6444 10.6612 81.7913 10.9856 81.8035C12.1913 81.9075 13.3908 81.8953 14.5965 81.8035V81.7851Z"/><path fill="#000" d="M56.7466 84.6739C56.6058 83.5049 56.0427 82.746 54.7942 82.5747C54.5616 82.5441 54.0965 82.5257 54.1638 82.0483C54.2373 81.5526 54.6534 81.7607 54.9166 81.7607C56.0856 81.7362 57.2607 81.7484 58.4358 81.7607C58.7112 81.7607 58.9805 81.7056 59.1763 82.0361C60.2412 83.8599 61.6611 85.4206 63.081 86.9568C64.9722 89.0009 66.8266 91.0879 68.7362 93.1137C68.9259 93.1443 68.9993 93.0342 68.9932 92.8751C68.9626 90.5371 69.0911 88.2053 68.932 85.8674C68.9993 85.1268 68.8402 84.4046 68.7484 83.6763C68.6627 83.0337 68.2894 82.6787 67.6223 82.6053C67.2122 82.5624 66.5696 82.5196 66.5941 82.0912C66.6247 81.4914 67.2734 81.7729 67.6529 81.7668C69.0483 81.7301 70.4498 81.7484 71.8453 81.7607C72.0472 81.7607 72.3288 81.6627 72.3532 82.0361C72.3716 82.3298 72.1941 82.3849 71.9615 82.4829C70.3764 83.1316 70.1989 83.4621 70.3335 85.3655C70.407 89.0315 70.4192 92.7037 70.3335 96.3697C70.3213 96.7675 70.3213 97.1715 70.2968 97.5693C70.2846 97.808 70.4131 98.1385 70.0643 98.2242C69.7338 98.3037 69.3727 98.3221 69.1156 98.0161C67.8916 96.5962 66.6798 95.164 65.4496 93.7503C63.9746 92.0549 62.5057 90.3535 60.994 88.6888C60.0454 87.6361 59.2253 86.461 58.1236 85.5491C58.0869 85.5919 58.0257 85.6409 58.0257 85.6899C58.0257 88.3889 57.94 91.0941 58.0685 93.7931C58.142 94.5214 58.0869 95.262 58.2522 95.9903C58.3929 96.6207 58.7234 97.0062 59.2987 97.2082C59.6659 97.3367 60.333 97.2082 60.278 97.7223C60.2106 98.3527 59.5496 98.01 59.1335 98.065C57.8666 97.961 56.6058 97.9671 55.3389 98.065C55.0513 98.0834 54.7208 98.1324 54.6779 97.7284C54.6351 97.3306 54.9901 97.3184 55.2471 97.2449C56.4589 96.9022 56.5018 96.8287 56.5568 95.5557C56.5752 95.0784 56.6854 94.6071 56.7466 94.1358C56.8445 90.9839 56.8384 87.832 56.7466 84.68V84.6739Z"/><path fill="#000" d="M90.5864 81.4423C90.923 81.4301 91.3453 81.3077 91.4249 81.7851C91.4983 82.238 91.0516 82.2135 90.7762 82.2686C89.9989 82.4216 89.956 82.8194 90.2192 83.4865C91.5412 86.7914 92.8081 90.1209 94.3504 93.5176C94.9991 92.0793 95.6112 90.7818 96.1865 89.466C96.9637 87.6728 97.7104 85.8612 98.4693 84.0557C98.4816 84.0312 98.4877 84.0006 98.4999 83.9761C99.0446 82.6358 99.0201 82.5562 97.6002 82.2747C97.2391 82.2012 97.1106 82.0421 97.1229 81.7055C97.1351 81.3383 97.4166 81.4362 97.6308 81.424C97.7471 81.424 97.8573 81.4362 97.9736 81.4423C99.2956 81.5341 100.618 81.5403 101.94 81.4423C102.154 81.4423 102.423 81.3383 102.454 81.6994C102.472 81.9564 102.386 82.2074 102.123 82.2257C100.593 82.3175 100.073 83.5049 99.5587 84.631C98.1633 87.6789 96.8046 90.739 95.4643 93.8053C94.9318 95.0232 94.4911 96.284 94.0199 97.5325C93.8914 97.8691 93.72 98.2118 93.3528 98.2057C93.0162 98.2057 92.906 97.863 92.7958 97.5509C91.1862 92.9056 89.0931 88.4561 87.2754 83.8966C86.9326 83.0336 86.443 82.2686 85.3352 82.2563C85.0047 82.2563 84.9068 81.9809 84.9313 81.7116C84.9741 81.2281 85.3536 81.4791 85.5984 81.4423C87.2631 81.5341 88.9278 81.5341 90.5864 81.4423Z"/><path fill="#000" d="M119.149 83.0887L118.96 82.9479C118.029 82.8194 117.105 82.8194 116.175 82.9479C114.847 82.7582 114.131 83.5355 113.58 84.582C113.433 84.8636 113.329 85.3226 112.87 85.1512C112.411 84.9799 112.637 84.6127 112.729 84.2822C112.986 83.3641 113.213 82.4338 113.445 81.5097C113.568 81.0262 113.8 80.8976 114.094 81.3689C114.314 81.7178 114.657 81.7116 114.981 81.779C116.23 81.9075 117.485 81.834 118.733 81.8279C121.493 81.8157 124.26 81.9075 127.02 81.779C127.406 81.7545 127.761 81.6382 127.981 81.3077C128.116 81.1057 128.25 81.0201 128.464 81.1057C128.74 81.2159 128.599 81.4485 128.581 81.626C128.464 82.7215 128.336 83.817 128.22 84.9125C128.201 85.1084 128.109 85.2675 127.95 85.3104C127.705 85.3777 127.608 85.1818 127.546 84.9737C127.516 84.8636 127.461 84.7657 127.43 84.6555C126.953 83.156 126.696 82.9602 125.147 82.9418C124.235 82.7337 123.299 82.9724 122.381 82.8133C122.179 82.8133 122.216 82.9908 122.179 83.1071C122.056 85.4144 122.136 87.7279 122.13 90.0352C122.13 91.859 122.038 93.6829 122.185 95.5067C121.842 96.7675 122.748 97.404 123.648 97.3918C123.905 97.3918 124.241 97.2326 124.407 97.5815C124.48 97.7345 124.462 97.9242 124.333 98.065C124.082 98.3404 123.746 98.3037 123.464 98.1813C123.048 98.0038 122.613 98.1323 122.197 98.0466C121.169 97.9548 120.141 97.9548 119.106 98.0466C118.58 98.1262 118.035 98.0283 117.509 98.2241C117.197 98.3404 116.799 98.3037 116.726 97.8202C116.646 97.2877 117.044 97.4162 117.338 97.3856C118.837 97.2265 119.106 96.9389 119.119 95.519C119.235 95.3047 119.192 95.0722 119.192 94.8457C119.192 91.1246 119.192 87.4035 119.192 83.6824C119.192 83.4804 119.217 83.2784 119.143 83.0887H119.149Z"/><path fill="#000" d="M27.1368 119.217C26.433 119.223 26.2677 118.574 25.9372 118.17C23.6299 115.379 21.3532 112.564 19.0642 109.755C18.8683 110.826 18.9907 111.909 18.9907 112.986C18.9907 114.492 18.8989 116.004 19.0519 117.509C18.7521 118.268 19.26 118.501 19.8231 118.684C20.0618 118.764 20.3739 118.605 20.6983 118.966H16.5426C17.173 118.574 18.1706 118.647 18.0482 117.509C18.2135 115.753 18.1094 113.996 18.1094 112.24C18.1094 110.973 18.2441 109.694 18.0176 108.433C17.4913 107.815 16.9037 107.313 16.0224 107.337C15.8266 107.337 15.8205 107.184 15.8266 107.037C16.9099 106.835 17.9931 106.915 19.0825 106.995C20.6616 108.953 22.2222 110.924 23.8258 112.87C24.6336 113.849 25.3558 114.896 26.2861 115.771C26.4758 114.761 26.3595 113.739 26.3657 112.723C26.3657 111.273 26.4452 109.828 26.3228 108.378C26.2616 107.686 25.9066 107.319 25.1906 107.362C24.9213 107.374 24.6887 107.337 24.5969 107.037C26.0168 106.866 27.4306 106.866 28.8505 107.037C28.7587 107.331 28.5261 107.392 28.2629 107.362C27.7121 107.301 27.4 107.588 27.2041 108.059C27.2837 111.701 27.2286 115.349 27.2347 118.99C27.2347 119.082 27.1797 119.149 27.1429 119.223L27.1368 119.217Z"/><path fill="#000" d="M66.0191 114.571C65.609 113.262 65.3214 113.041 63.9382 113.041C63.1977 113.041 62.4571 113.054 61.7166 113.06C61.5085 114.663 61.6125 116.267 61.6615 117.87C61.7166 118.182 61.8879 118.372 62.2123 118.39C63.1854 118.494 64.1585 118.488 65.1317 118.39C66.4965 118.397 67.2187 117.515 67.8185 116.456C67.9164 116.285 67.9715 116.034 68.2285 116.163C68.4182 116.261 68.2285 116.463 68.2285 116.616C68.2285 116.695 68.1612 116.769 68.1367 116.848C67.6512 118.309 66.6413 119.039 65.1072 119.039C63.0508 119.039 60.9944 119.039 58.938 119.039C58.6748 119.039 58.381 119.137 58.0566 118.862C58.7421 118.543 59.7948 118.8 59.8376 117.68C59.9294 114.577 59.9233 111.481 59.8376 108.378C59.7826 107.686 59.4398 107.313 58.7115 107.349C58.4606 107.362 58.1301 107.423 58.228 106.97C61.2698 106.927 64.3177 106.835 67.3594 107.019C67.335 107.674 67.4145 108.316 67.5124 108.959C67.543 109.143 67.6716 109.473 67.3656 109.534C67.0657 109.589 67.0779 109.29 67.0167 109.069C66.7229 107.968 66.4353 107.735 65.3153 107.68C64.232 107.527 63.1487 107.655 62.0654 107.613C61.8084 107.6 61.6003 107.655 61.6125 107.974C61.6676 109.424 61.4779 110.881 61.7104 112.325C62.5856 112.331 63.4608 112.35 64.336 112.344C65.4377 112.337 65.707 112.123 65.9824 111.064C66.0375 110.856 65.9518 110.575 66.319 110.636C66.5454 111.915 66.3802 113.207 66.4047 114.492C66.4047 114.847 66.1966 114.835 66.013 114.559L66.0191 114.571Z"/><path fill="#000" d="M54.305 107.019C54.305 107.074 54.305 107.172 54.2866 107.184C52.6403 107.772 52.4812 109.381 51.9242 110.679C50.7859 113.335 49.7271 116.028 48.6315 118.703C48.552 118.898 48.5397 119.186 48.2582 119.217C47.8971 119.253 47.8849 118.905 47.793 118.696C46.465 115.63 45.1552 112.552 43.821 109.485C43.3865 108.488 43.1049 107.313 41.6667 107.276C41.6422 107.276 41.6238 107.123 41.6055 107.043C43.2579 106.866 44.9104 106.884 46.5568 107.037C46.5568 107.46 46.214 107.313 45.9937 107.386C45.498 107.539 45.0451 107.784 45.2715 108.396C46.2691 111.101 47.4932 113.715 48.6866 116.518C49.7577 113.849 50.8348 111.371 51.7529 108.831C52.065 107.962 51.6978 107.625 51.0001 107.38C50.8226 107.319 50.6757 107.27 50.7063 107.043C51.9059 106.866 53.0993 106.897 54.2989 107.031L54.305 107.019Z"/><path fill="#000" d="M120.288 107.05C120.331 107.943 120.392 108.831 120.263 109.736C120.141 109.7 120.061 109.693 120.049 109.669C119.602 108.047 119.272 107.796 117.393 107.717C117.05 107.704 116.707 107.735 116.371 107.741C116.193 108.035 116.285 108.359 116.285 108.665C116.248 111.67 116.346 114.669 116.23 117.674C116.248 118.8 117.197 118.623 117.864 118.947H112.852C113.696 118.788 114.4 118.501 114.498 117.503C114.626 114.657 114.529 111.811 114.547 108.965C114.547 108.549 114.682 108.114 114.437 107.717C113.953 107.717 113.457 107.662 112.98 107.717C111.468 107.919 111.248 107.741 110.44 109.73C110.391 108.818 110.171 107.906 110.489 106.988C113.078 106.854 115.667 106.952 118.256 106.939C118.929 106.939 119.614 106.786 120.275 107.043L120.288 107.05Z"/><path fill="#000" d="M104.473 117.503C104.455 118.653 105.379 118.66 106.138 118.96H101.125C101.756 118.586 102.753 118.666 102.625 117.521C102.802 116.046 102.692 114.559 102.692 113.084C102.692 111.462 102.802 109.834 102.619 108.218C102.643 107.509 102.129 107.429 101.609 107.362C101.388 107.331 101.052 107.496 101.088 107.043C102.692 106.817 104.302 106.982 105.905 106.958C106.028 106.958 106.083 107.08 106.064 107.209C105.991 107.362 105.85 107.374 105.709 107.368C104.859 107.325 104.473 107.747 104.473 108.573C104.375 111.554 104.375 114.528 104.473 117.509V117.503Z"/><path fill="#000" d="M34.3771 108.549C34.4628 107.723 34.0833 107.331 33.2571 107.362C33.0307 107.368 32.7736 107.392 32.8287 107.031C34.4873 106.835 36.1459 106.976 37.8779 106.946C37.6821 107.429 37.3087 107.184 37.1068 107.343C36.5131 107.441 36.1642 107.741 36.2316 108.39C36.1336 111.487 36.1397 114.584 36.2316 117.68C36.2989 118.654 37.1129 118.641 37.7677 118.947H32.7124C33.3673 118.574 34.4873 118.77 34.3832 117.521C34.5424 116.273 34.4506 115.018 34.4444 113.764C34.4383 112.025 34.5485 110.287 34.3832 108.549H34.3771Z"/><path fill="#000" d="M52.3342 97.4407C51.6304 97.1102 50.9143 96.792 50.4308 96.1677C49.1395 94.5091 48.0868 92.6975 47.0035 90.9104C46.5445 90.1576 46.722 89.9434 47.4319 89.5517C49.9106 88.193 50.1493 85.5368 48.8824 83.6702C47.8359 82.134 46.1161 81.7974 44.3534 81.7423C42.854 81.6137 41.3545 81.6137 39.855 81.7423C39.0716 81.828 38.2638 81.5954 37.4926 81.9014C37.2845 81.981 36.9112 81.8157 36.9663 82.2564C37.0091 82.593 37.2845 82.5746 37.5477 82.6175C38.1536 82.7154 38.8329 82.7644 38.8574 83.6273C38.9982 85.2798 38.9186 86.9323 38.9125 88.5847C38.9125 90.9533 38.9921 93.3218 38.8635 95.6842C38.9125 96.7859 38.2332 97.1347 37.2906 97.2326C37.0458 97.2571 36.7337 97.3061 36.8255 97.6733C36.8867 97.9181 37.0397 98.1201 37.3702 98.0834C37.6762 98.0528 37.9945 98.0711 38.3066 98.0711C39.6347 97.9426 40.9628 97.9487 42.297 98.0711C42.6091 98.0711 42.9213 98.0711 43.2334 98.0834C43.5578 98.0895 43.8148 97.9916 43.8026 97.6243C43.7904 97.3 43.5272 97.2571 43.2518 97.2204C42.1195 97.0674 41.8808 96.8103 41.7952 95.6842C41.887 95.3476 41.8319 95.0049 41.8441 94.6683C41.8931 93.3952 41.7523 92.1222 41.9237 90.8553C42.9947 90.5187 43.5762 90.7635 44.1637 91.7367C44.9165 92.9729 45.5469 94.2766 46.3792 95.4639C47.842 97.557 49.8127 98.6097 52.2363 98.0895C52.4444 98.0466 52.6647 98.0222 52.7198 97.8141C52.7994 97.5325 52.4811 97.5142 52.3404 97.4469L52.3342 97.4407ZM46.3853 87.1709C46.1099 88.9948 43.9923 90.3229 42.2113 89.8027C42.095 89.7659 42.0094 89.6129 41.9114 89.515C41.8074 87.3239 41.789 85.1329 41.9176 82.9418C42.2113 82.391 42.7316 82.6175 43.1477 82.6236C44.9716 82.6603 46.3915 84.1414 46.3976 85.9653C46.3976 86.3631 46.4404 86.7731 46.3853 87.1648V87.1709Z"/><path fill="#000" d="M114.002 97.3612C113.366 97.2326 112.723 97.0246 112.478 96.3085C111.817 94.4051 111.156 92.5017 110.508 90.5983C109.522 87.7034 108.433 84.8452 107.558 81.9136C107.472 81.6199 107.264 81.2404 106.805 81.6199C106.003 82.2931 104.92 82.7582 104.963 84.068C104.963 84.1169 104.92 84.172 104.895 84.2271C103.451 87.936 101.994 91.6387 100.581 95.3598C100.177 96.4248 99.6871 97.3183 98.3896 97.404C98.1386 97.4224 97.9305 97.5509 98.0223 97.8447C98.0958 98.0956 98.2488 98.3649 98.5732 98.2058C99.0444 97.9732 99.5279 98.0711 100.005 98.0772C100.911 98.0895 101.829 97.9548 102.729 98.2241C103.023 98.3098 103.384 98.2853 103.469 97.8569C103.567 97.3856 103.243 97.3612 102.9 97.3489C102.79 97.3489 102.692 97.2632 102.582 97.2388C101.688 97.0184 101.59 96.8471 101.884 95.9351C102.239 94.8274 102.606 93.7257 102.974 92.618C103.059 92.3548 103.102 92.0427 103.476 92.0243C104.853 91.9386 106.223 91.9325 107.601 92.0243C108.035 92.1345 108.121 92.5384 108.237 92.8628C108.623 93.9277 108.91 95.0355 109.339 96.082C109.681 96.9144 109.375 97.2571 108.604 97.3551C108.274 97.3979 108.035 97.4468 108.127 97.8569C108.213 98.2241 108.488 98.267 108.794 98.2241C110.465 97.9671 112.13 97.9548 113.8 98.2241C114.1 98.2731 114.382 98.2364 114.467 97.863C114.553 97.4774 114.351 97.4224 114.002 97.3489V97.3612ZM107.264 90.892C106.113 90.9777 104.969 90.9839 103.818 90.892C103.665 90.8125 103.616 90.6656 103.665 90.531C104.296 88.8662 104.944 87.2077 105.783 85.5307C106.113 86.5038 106.444 87.4708 106.78 88.4439C106.964 88.9764 107.16 89.5028 107.35 90.0352C107.454 90.3351 107.552 90.635 107.264 90.8982V90.892Z"/><path fill="#000" d="M88.0518 97.3551C87.2623 97.2266 86.6993 96.8655 86.4055 95.9964C85.0284 91.8958 83.5779 87.8258 82.1642 83.7375C81.9683 83.1806 81.8337 82.6052 81.6501 82.0422C81.4787 81.5158 81.2767 81.2772 80.6953 81.7484C79.9547 82.3543 79.3182 82.8562 78.9694 83.9027C77.8739 87.2322 76.5886 90.5065 75.2483 93.7502C74.6424 95.2191 74.5811 97.2449 72.2983 97.4408C72.1024 97.4591 71.9617 97.655 72.0902 97.8998C72.182 98.0711 72.2432 98.2915 72.5125 98.2364C73.9814 97.9426 75.4441 98.0161 76.913 98.2425C77.2251 98.2915 77.4883 98.1813 77.5311 97.8141C77.5862 97.3673 77.2679 97.4285 76.9803 97.3796C75.7868 97.1776 75.6094 96.8532 75.9949 95.6904C76.3377 94.6683 76.6743 93.6462 77.0231 92.6241C77.1088 92.3671 77.1394 92.0488 77.5189 92.0243C78.8959 91.9386 80.2669 91.9325 81.6439 92.0243C81.9744 92.0917 82.0846 92.3609 82.1764 92.6302C82.5803 93.7808 82.9353 94.9498 83.3821 96.0821C83.7003 96.8899 83.431 97.2694 82.6476 97.3673C82.3049 97.4102 82.0846 97.4775 82.1764 97.8753C82.2621 98.2425 82.5375 98.2792 82.8435 98.2364C84.5143 97.9793 86.179 97.9671 87.8438 98.2364C88.1498 98.2854 88.4252 98.2364 88.5047 97.8692C88.5904 97.4836 88.4007 97.4102 88.0518 97.349V97.3551ZM81.3012 90.8982C80.1506 90.9839 79.0061 90.99 77.8555 90.8982C77.6107 90.7207 77.7025 90.5371 77.7882 90.3045C78.3329 88.8785 78.8715 87.4525 79.3856 86.0142C79.459 85.8184 79.4957 85.6042 79.7222 85.5919C79.9609 85.5797 79.9119 85.8245 79.967 85.9714C80.4444 87.3301 80.9156 88.6827 81.3869 90.0414C81.4909 90.3413 81.5766 90.6412 81.2951 90.8982H81.3012Z"/><path fill="#000" d="M81.6868 117.252C80.8667 116.169 80.1445 115.018 79.3183 113.941C78.8531 113.335 78.8286 113.09 79.6549 112.852C81.289 112.368 82.0234 110.752 81.491 109.112C80.9401 107.405 79.5386 107.141 78.0453 106.995C76.1602 107.013 74.2752 107.031 72.3901 107.043C72.3901 107.19 72.4085 107.368 72.586 107.337C73.7121 107.141 73.9447 107.894 74.1038 108.733C74.1956 111.597 74.2017 114.455 74.1038 117.319C74.0793 118.409 73.3082 118.715 72.433 118.935H77.4638C77.3659 118.764 77.2619 118.715 77.1578 118.709C76.0623 118.592 75.8114 118.317 75.7991 117.191C75.793 116.248 75.7808 115.3 75.8052 114.357C75.8114 114.088 75.6033 113.623 76.0562 113.58C76.4846 113.543 76.9803 113.323 77.3598 113.886C78.3452 115.336 79.3978 116.744 80.426 118.164C80.6403 118.458 80.8545 118.953 81.1054 118.978C82.1214 119.07 83.1557 119.015 84.1839 119.015C84.1961 118.941 84.2022 118.868 84.2145 118.794C83.1679 118.592 82.3111 118.06 81.6868 117.24V117.252ZM77.5801 112.674C75.8175 113.151 75.793 113.103 75.793 111.291V110.348C75.793 110.036 75.7379 109.706 75.8052 109.406C75.9276 108.843 75.3829 108.059 76.1969 107.741C77.1211 107.38 78.645 107.808 79.0979 108.506C80.1017 110.055 79.7406 112.087 77.5801 112.674Z"/></svg>