<svg fill="none" height="120" viewBox="0 0 137 120" width="137" xmlns="http://www.w3.org/2000/svg"><path d="m58.6194 51.9856c-1.5484-.4406-6.1753-1.9891-9.6455-6.616-.8997-1.1996-3.2193-4.6024-3.5742-9.4497-.4774-6.4997 2.901-11.2612 4.8595-14.0154 5.3307-7.5095 12.8647-10.4595 16.237-11.5305 3.4518 1.224 8.9968 3.7456 13.942 8.9845 2.8642 3.0295 4.1801 5.294 4.633 6.1876.7773 1.5362 2.4114 4.8472 2.3563 9.4252-.0184 1.6219-.1102 5.2879-2.4175 8.9723-1.9707 3.1458-4.6024 4.7983-5.4409 5.3124-2.8276 1.732-4.3576 1.4872-7.4667 3.4885-1.7933 1.1506-3.0724 2.3869-3.8803 3.2499-.2448-.1163-.5508-.306-.6242-.6059-.2632-1.1017 2.8459-2.3257 6.6894-5.1349 1.5117-1.1017 3.1887-2.3257 4.8656-4.2597 1.7259-1.983 3.4947-4.021 3.8374-6.8058.4346-3.464-1.5607-6.2426-3.764-9.315-2.0135-2.8031-3.9904-4.3637-7.0321-6.769-3.3356-2.6317-5.037-3.9476-6.922-3.9537-2.0442-.0061-3.7579 1.3893-7.1852 4.1802-3.3784 2.7479-5.0615 4.125-6.463 6.769-.6427 1.2179-2.1972 4.2413-1.8239 8.1705.2755 2.8704 1.4628 5.0615 2.0503 6.1203.8263 1.4872 1.6586 2.4603 1.9034 2.7357 1.4016 1.6035 2.8704 2.595 3.8864 3.1764.3244.557.6487 1.12.9792 1.677z" fill="#e37f45"/><path d="m38.8999 29.3468c.3183-5.7163 2.5399-10.484 6.0346-14.9273 3.4946-4.60855 8.1032-8.10322 13.0239-10.80225 2.3808-1.27302 4.7677-2.38078 7.3076-3.49467.3182-.1591268.6365-.1591268.9547 0 5.5572 2.22165 10.8023 5.07982 15.4047 9.05187 5.239 4.44945 9.211 9.84745 10.6432 16.67775.4774 2.3807.6365 4.9206.4774 7.3075-.4774 4.4495-1.9034 8.5745-4.7677 11.9101-2.2217 2.699-4.9207 4.7677-8.1033 6.0346-3.1764 1.273-6.3528 2.699-9.2109 4.7676-.3183.3183-.7957.6365-1.1139.9548-.4774.3182-.9548.6365-1.1139-.1591 0-.1592-.1591-.1592-.3183-.3183.1592-.9547.9548-1.4321 1.5913-2.0625 1.9034-1.4322 4.1312-2.5399 6.512-3.3356 2.3807-.9547 4.4494-2.2216 6.1937-3.972 2.5399-2.5399 4.1311-5.5572 4.7676-9.0519.9548-6.1937-.9547-11.7509-4.9206-16.5186-3.9721-4.9206-9.3702-8.1032-15.0865-10.484-.4774-.3182-1.1139-.3182-1.5913 0-4.2903 1.9034-8.5744 4.1312-12.0691 7.4668-3.1764 3.0172-5.7163 6.3528-7.1485 10.484-2.0625 6.671-.9547 12.7056 3.8129 17.9507 1.5913 1.9034 3.813 3.1764 6.1937 4.1312 1.2731.4773 2.3808.9547 3.3356 1.9034.9547 1.273 1.7443 2.5399 2.5399 3.8129-.3183.1591-.4774 0-.4774-.1591-2.2216-1.9034-4.7677-3.1765-7.4667-4.2903-3.6538-1.4322-6.9893-3.3356-9.5292-6.3529-2.8582-3.3355-4.7677-6.9893-5.3981-11.4387-.1591-.7957 0-1.4322-.1591-2.0626-.3183-1.1139-.3183-2.0625-.3183-3.0173z" fill="#c33834"/><path d="m67.6467 55.5537c-1.4321-2.2216-3.1764-4.2903-5.0798-6.0346 2.699.6366 5.7163 0 8.2562 1.4322 0-.1591.1592-.1591 0-.3183-.9547-1.7442-.9547-3.6538-1.1138-5.5572-.1592-3.3355-3.4947-5.398-5.8755-5.5572-1.1628 0-1.7443-.5814-1.7443-1.7442 0-2.3808-.4774-4.4495-1.5912-6.512-.3183-.7956-.6365-1.4321-.7957-2.2216 0-.4774-.3182-.7957-.7956-.7957-.3183 0-.6365.1591-.6365.4774-.1591.4774.1591.7956.4774.9548 2.5399 2.0625 2.699 4.9207 3.0173 7.7849-.3183 0-.3183-.1591-.4774-.3182-.9548-2.2217-2.3808-4.1312-4.2903-5.7163-.3183-.3183-.4774-.6365-.7957-.9548-.3182-.3183-.4773-.7956-1.1139-.6365-.3182.1591-.4773.3182-.6365.6365 0 .4774.3183.7956.7957.9548 3.1764.9547 4.2903 3.6538 5.5572 6.3528v.3182c-.3183-.1591-.4774-.3182-.7957-.6365-1.5912-1.4321-3.1764-2.5399-5.0798-3.1764-.7956-.3182-1.5912-.4774-2.0625-.9547 0 0-.1591-.1592-.3183-.1592-.3182-.1591-.6365-.1591-.9547.1592-.1591.1591-.3183.4773-.1591.7956.1591.3182.4773.4774.7956.4774 3.1764-.3183 5.2389 1.5912 7.4667 3.3355.4774.4774 1.273.9548 1.273 1.5913.1591.7956-.9547.7956-1.4321 1.1139-2.5399 1.9034-3.4947 6.0345-2.2217 8.8927.1591.3183.3183.6365.3183.7956-.3183.4774-.7957.1592-1.1139 0-2.3808-1.273-4.4494-3.0172-5.5572-5.5572-3.1764-5.8754-2.0625-11.4387 1.5913-16.8368 2.2216-3.1764 5.398-5.5572 8.7336-7.4667 1.273-.7956 2.699-1.273 3.972-1.9034.4774-.1591.7957-.1591 1.273 0 5.3981 2.2216 10.3249 5.2389 13.6605 10.3249 2.0625 3.0173 3.1764 6.5119 2.8581 10.1657-.4774 5.3981-3.1764 9.3701-8.1032 11.7509-2.2217 1.1139-4.6086 1.9034-6.512 3.4947.3183.4774 0 1.1139-.7956 1.273z" fill="#f9db4a"/><path d="m30.3254 44.115c.4774-4.1312 1.7443-8.1032 4.1312-11.7509.4774 2.0625 1.1139 3.8129 1.9034 5.5572 1.7443 4.2903 4.1312 7.9441 7.6259 10.9614 2.3807 2.2216 5.0798 3.8129 7.9441 5.0798 2.699 1.273 5.5572 1.9034 8.2562 3.0173 1.1139.4773 2.0625.9547 2.8582 1.7442 1.273 1.1139 1.4321 2.5399 1.5912 3.9721.6365 3.6538-.6365 6.6711-3.0173 9.3701-.3182.3183-.6365.3183-.9547.3183-2.3808-.1592-4.6086-.6365-6.8302-1.2731-4.9207-1.273-9.5293-3.3355-13.5013-6.5119-4.4495-3.3356-7.6259-7.6259-9.211-12.8648-.4774-1.5913-.6365-3.0173-.7957-4.6086v-3.0172z" fill="#c33834"/><path d="m101.639 45.8593c0 6.5119-2.5398 12.0691-7.1484 16.5186-3.6538 3.6538-7.9441 6.0345-12.7056 7.7849-3.3356 1.273-6.8302 1.9034-10.3249 2.5399-.3183 0-.4244-.1591-.3183-.4773.4774-1.9034.3183-3.813.3183-5.7164 0-2.699-.7956-5.2389-1.9034-7.7849-.3183-.6365-.1591-.7957.3182-1.1139 1.5913-.7957 3.1765-1.1139 4.7677-1.5913 2.8582-.6365 5.5572-1.7443 8.1032-3.0173 2.6991-1.4321 5.239-3.3355 7.3076-5.7163 2.6991-2.8582 4.6086-6.3528 6.0346-10.0066.4774-1.5913 1.1139-3.0173 1.4322-4.6086 0-.1591 0-.3182.1591-.3182s.3182.1591.3182.3182c1.7443 2.8582 3.0175 6.0346 3.4945 9.3701 0 1.4322.159 2.5399.159 3.813z" fill="#c33834"/><path d="m66.8513 46.1775c0 .7956-.3182 1.1139-1.1139 1.273-.7956 0-1.1139-.3182-1.1139-1.273 0-.7956.4774-1.273 1.1139-1.273.7957 0 1.1139.4774 1.1139 1.273z" fill="#c43936"/><g fill="#000"><path d="m34.4813 97.3551c-.7895-.1285-1.3526-.4896-1.6464-1.3587-1.377-4.1006-2.8275-8.1706-4.2413-12.2589-.1959-.5569-.3305-1.1323-.5141-1.6953-.1714-.5264-.3733-.765-.9548-.2938-.7405.6059-1.377 1.1078-1.7259 2.1543-1.0955 3.3295-2.3808 6.6038-3.7211 9.8475-.6059 1.4689-.6671 3.4947-2.95 3.6906-.1958.0183-.3366.2142-.2081.459.0919.1713.1531.3917.4223.3366 1.4689-.2938 2.9317-.2203 4.4005.0061.3121.049.5753-.0612.6182-.4284.055-.4468-.2632-.3856-.5509-.4345-1.1934-.202-1.3709-.5264-.9853-1.6892.3427-1.0221.6793-2.0442 1.0282-3.0663.0857-.257.1163-.5753.4957-.5998 1.3771-.0857 2.748-.0918 4.1251 0 .3305.0674.4406.3366.5324.6059.404 1.1506.7589 2.3196 1.2057 3.4519.3183.8078.049 1.1873-.7344 1.2852-.3427.0429-.5631.1102-.4713.508.0857.3672.3611.4039.6671.3611 1.6709-.2571 3.3356-.2693 5.0003 0 .306.049.5814 0 .661-.3672.0857-.3856-.1041-.459-.4529-.5202zm-6.7507-6.4569c-1.1506.0857-2.2951.0918-3.4457 0-.2448-.1775-.153-.3611-.0673-.5937.5447-1.426 1.0833-2.852 1.5974-4.2903.0734-.1958.1102-.41.3366-.4223.2387-.0122.1897.2326.2448.3795.4774 1.3587.9487 2.7113 1.4199 4.07.1041.2999.1898.5998-.0918.8568z"/><path d="m.0119629 103.053c0-.159 0-.318 0-.483.2570511-.196.5569441-.104.8323551-.104h135.141682c.281 0 .575-.074.844.079v.514c-.293.159-.618.08-.924.08-7.54 0-15.08 0-22.62 0-32.4866 0-64.9729 0-97.4654 0-4.9635 0-9.92707 0-14.890598 0-.306013 0-.630387.092-.9180391-.092z"/><path d="m131.873 84.1475c-.189-1.4933-.452-1.5056-1.389-1.5362-.361-.0122-.649-.1958-.655-.5141 0-.3672.367-.3427.649-.3366.226 0 .453.0184.673.0245 1.494.0918 2.981.0918 4.474 0 .41-.0184.826-.1102 1.2.1407v.5141c-.184.1775-.343.404-.594.4774-.808.2571-1.01.8446-.906 1.6097-.336 2.3746-.287 4.7615-.324 7.1545-.018 1.2363.361 2.4237.318 3.6477-.128.7834.074 1.3771.906 1.628.251.0734.422.2632.6.4407v.6854c-.49.2204-.98.0245-1.469.0245-1.591 0-3.189-.2203-4.774.1347-.379.0856-.722-.0368-.765-.4468-.043-.3795.312-.3856.6-.4284 1.169-.1775 1.365-.4407 1.438-1.8606.141-.9364.061-1.8789.055-2.8153-.012-2.8521.074-5.698-.049-8.55z"/><path d="m95.5496 110.789c-.5876.147-.3979-.447-.4285-.594-.4529-2.087-1.7136-2.815-3.7762-2.674-.7344.049-1.1322.544-1.3648 1.126-.2509.618-.0979 1.23.4039 1.732.9609.955 2.1972 1.481 3.3356 2.16 1.0894.649 2.1972 1.237 2.5644 2.644.4774 1.855-.8324 3.562-2.2645 3.899-.2938.067-.5692.208-.8568.318h-1.3771c-.612-.171-1.2485-.196-1.8728-.312-.3733-.067-.7712-.024-1.0527.312h-.1714c-.1836-1.316-.0489-2.638-.0734-3.954 0-.128.104-.183.2387-.165.3244 1.769 1.2363 2.987 3.0968 3.366.8446.172 2.3563-.471 2.6991-1.218.3672-.801 0-1.927-.8936-2.515-1.224-.802-2.497-1.53-3.7272-2.332-1.4934-.973-2.0136-2.503-1.3648-3.917.6793-1.481 2.3501-2.283 3.9536-1.897.2449.061.5142.073.7284.196.8078.453 1.5423.496 2.1971-.263.1775 1.364.1714 2.729 0 4.094z"/><path d="m3.40248 114.939c-.25705 2.307 1.18733 3.966 3.715 3.556 2.16045-.349 2.88872-1.794 3.03562-3.746.098-2.063.098-4.119 0-6.182-.153-.783-.46511-1.377-1.43211-1.217-.20197.036-.30601-.092-.28153-.307 1.27301-.257 2.55214-.067 3.83124-.097.355-.007.3673.195.0735.385-.8691-.049-1.3465.343-1.3893 1.23-.1285 1.818-.0184 3.636-.0612 5.453-.0061.306.0673.625-.0735.925-.0183 2.601-1.01593 3.8-3.58643 4.321-.07345.012-.13465.085-.20809.128h-1.7198c-.71607-.294-1.51782-.343-2.14821-.863-1.0282-.844-1.56678-1.897-1.4811-3.244-.14077-1.817-.02448-3.641-.06732-5.459-.01224-.483.06732-.967-.05509-1.444-.07956-.655-.41617-1.028-1.113884-1.022-.214209 0-.4896207.055-.44065861-.325 1.65247261-.226 3.30494261-.067 5.03085261-.085-.19585.471-.56306.226-.77115.385-.61815.074-.85684.459-.88132 1.034-.07956 2.185-.10404 4.376.01224 6.561z"/><path d="m131.47 117.68c.049.986.807 1.053 1.579 1.12-.668.3-4.303.325-5.239.074.789-.312 1.915-.092 1.811-1.359.123-1.157.104-2.319.012-3.476-1.107-1.732-2.215-3.458-3.311-5.196-.446-.71-.96-1.316-1.83-1.494-.195-.036-.195-.165-.183-.312 1.701-.177 3.397-.189 5.098.006-1.683.753-1.708.894-.649 2.479.765 1.145 1.481 2.326 2.271 3.568.912-1.438 1.775-2.754 2.589-4.106.563-.931.385-1.304-.686-1.628-.189-.056-.202-.166-.189-.313 1.364-.189 2.729-.153 4.1-.024v.343c-.789-.068-1.42.33-1.811.912-1.231 1.842-2.375 3.739-3.556 5.612-.08 1.267-.098 2.528.012 3.794z"/><path d="m14.5965 81.7851c.2877-.0122.5692-.0306.8569-.0245.2142 0 .4712-.0673.5141.2877.0489.3611-.2143.4284-.4529.5019-.1898.055-.3979.0428-.5937.0856-1.1873.2755-2.1788.8814-3.0295 1.7627-1.1078 1.1567-2.22781 2.3073-3.40902 3.3845-.54471.5018-.48962.8813-.09793 1.377 1.10777 1.3955 2.20325 2.8031 3.31715 4.1985.7283.912 1.4628 1.8116 2.2033 2.7113.5937.7222 1.3036 1.2608 2.2706 1.3159.2999.0183.508.0489.4713.4162-.0428.3733-.2632.4712-.5998.4223-1.8116-.251-3.6171-.2571-5.4287.0061-.306.0428-.68542.1101-.80783-.2816-.153-.4896.26933-.5386.59983-.6304.3855-.104.7283-.2509.3549-.7038-1.64632-2.0197-3.05398-4.2352-4.87169-6.1141-.27541-.2816-.54471-.5264-.93028-.1653-.17749 1.3526-.0306 2.7113-.07957 4.07-.01836.4223.05509.8507-.04896 1.273-.0612 1.1506.31214 1.5974 1.44438 1.7198.27542.0306.61815-.0673.57531.3978-.04284.4896-.41006.5264-.75279.4529-1.54843-.3427-3.11522-.0857-4.67588-.1591-.26317-.0122-.495743.0612-.740554.1469-.330494.1163-.550823-.0612-.642627-.3672-.0979241-.3489.146886-.4529.422298-.4652 1.089403-.0673 1.401543-.7711 1.432143-1.7136.12852-2.4481.03672-4.8962.04896-7.3443 0-1.3955.07956-2.7909-.04896-4.1802-.15913-1.3281-.15913-1.3403-1.432143-1.5423-.3733359-.0612-.4835006-.2509-.47126006-.5692.00612026-.3611.29377206-.2754.50186106-.2815.22645-.0061.452899.0122.685472.0245 1.54842.0918 3.09685.0979 4.64527 0 .2999.0489.75892-.2387.83848.2631.08568.5447-.4223.4835-.75279.557-.83236.1714-1.10777.5569-1.08329 1.5668.07957 1.5423.08569 3.0907 0 4.633.29377.612.67935.3917 1.00985.0673.89355-.8752 1.78711-1.7565 2.64395-2.6684.83847-.8874 1.63412-1.8177 2.44202-2.7358.2876-.3305.3978-.6915-.1653-.8262-.3244-.0796-.6793-.0857-.6059-.5202.0857-.4896.508-.3427.8324-.3305 1.2057.104 2.4052.0918 3.6109 0z"/><path d="m56.7466 84.6739c-.1408-1.169-.7039-1.9279-1.9524-2.0992-.2326-.0306-.6977-.049-.6304-.5264.0735-.4957.4896-.2876.7528-.2876 1.169-.0245 2.3441-.0123 3.5192 0 .2754 0 .5447-.0551.7405.2754 1.0649 1.8238 2.4848 3.3845 3.9047 4.9207 1.8912 2.0441 3.7456 4.1311 5.6552 6.1569.1897.0306.2631-.0795.257-.2386-.0306-2.338.0979-4.6698-.0612-7.0077.0673-.7406-.0918-1.4628-.1836-2.1911-.0857-.6426-.459-.9976-1.1261-1.071-.4101-.0429-1.0527-.0857-1.0282-.5141.0306-.5998.6793-.3183 1.0588-.3244 1.3954-.0367 2.7969-.0184 4.1924-.0061.2019 0 .4835-.098.5079.2754.0184.2937-.1591.3488-.3917.4468-1.5851.6487-1.7626.9792-1.628 2.8826.0735 3.666.0857 7.3382 0 11.0042-.0122.3978-.0122.8018-.0367 1.1996-.0122.2387.1163.5692-.2325.6549-.3305.0795-.6916.0979-.9487-.2081-1.224-1.4199-2.4358-2.8521-3.666-4.2658-1.475-1.6954-2.9439-3.3968-4.4556-5.0615-.9486-1.0527-1.7687-2.2278-2.8704-3.1397-.0367.0428-.0979.0918-.0979.1408 0 2.699-.0857 5.4042.0428 8.1032.0735.7283.0184 1.4689.1837 2.1972.1407.6304.4712 1.0159 1.0465 1.2179.3672.1285 1.0343 0 .9793.5141-.0674.6304-.7284.2877-1.1445.3427-1.2669-.104-2.5277-.0979-3.7946 0-.2876.0184-.6181.0674-.661-.3366-.0428-.3978.3122-.41.5692-.4835 1.2118-.3427 1.2547-.4162 1.3097-1.6892.0184-.4773.1286-.9486.1898-1.4199.0979-3.1519.0918-6.3038 0-9.4558z"/><path d="m90.5864 81.4423c.3366-.0122.7589-.1346.8385.3428.0734.4529-.3733.4284-.6487.4835-.7773.153-.8202.5508-.557 1.2179 1.322 3.3049 2.5889 6.6344 4.1312 10.0311.6487-1.4383 1.2608-2.7358 1.8361-4.0516.7772-1.7932 1.5239-3.6048 2.2828-5.4103.0123-.0245.0184-.0551.0306-.0796.5447-1.3403.5202-1.4199-.8997-1.7014-.3611-.0735-.4896-.2326-.4773-.5692.0122-.3672.2937-.2693.5079-.2815.1163 0 .2265.0122.3428.0183 1.322.0918 2.6444.098 3.9664 0 .214 0 .483-.104.514.2571.018.257-.068.508-.331.5263-1.53.0918-2.05 1.2792-2.5643 2.4053-1.3954 3.0479-2.7541 6.108-4.0944 9.1743-.5325 1.2179-.9732 2.4787-1.4444 3.7272-.1285.3366-.2999.6793-.6671.6732-.3366 0-.4468-.3427-.557-.6548-1.6096-4.6453-3.7027-9.0948-5.5204-13.6543-.3428-.863-.8324-1.628-1.9402-1.6403-.3305 0-.4284-.2754-.4039-.5447.0428-.4835.4223-.2325.6671-.2693 1.6647.0918 3.3294.0918 4.988 0z"/><path d="m119.149 83.0887-.189-.1408c-.931-.1285-1.855-.1285-2.785 0-1.328-.1897-2.044.5876-2.595 1.6341-.147.2816-.251.7406-.71.5692-.459-.1713-.233-.5385-.141-.869.257-.9181.484-1.8484.716-2.7725.123-.4835.355-.6121.649-.1408.22.3489.563.3427.887.4101 1.249.1285 2.504.055 3.752.0489 2.76-.0122 5.527.0796 8.287-.0489.386-.0245.741-.1408.961-.4713.135-.202.269-.2876.483-.202.276.1102.135.3428.117.5203-.117 1.0955-.245 2.191-.361 3.2865-.019.1959-.111.355-.27.3979-.245.0673-.342-.1286-.404-.3367-.03-.1101-.085-.208-.116-.3182-.477-1.4995-.734-1.6953-2.283-1.7137-.912-.2081-1.848.0306-2.766-.1285-.202 0-.165.1775-.202.2938-.123 2.3073-.043 4.6208-.049 6.9281 0 1.8238-.092 3.6477.055 5.4715-.343 1.2608.563 1.8973 1.463 1.8851.257 0 .593-.1592.759.1897.073.153.055.3427-.074.4835-.251.2754-.587.2387-.869.1163-.416-.1775-.851-.049-1.267-.1347-1.028-.0918-2.056-.0918-3.091 0-.526.0796-1.071-.0183-1.597.1775-.312.1163-.71.0796-.783-.4039-.08-.5325.318-.404.612-.4346 1.499-.1591 1.768-.4467 1.781-1.8666.116-.2143.073-.4468.073-.6733 0-3.7211 0-7.4422 0-11.1633 0-.202.025-.404-.049-.5937z"/><path d="m27.1368 119.217c-.7038.006-.8691-.643-1.1996-1.047-2.3073-2.791-4.584-5.606-6.873-8.415-.1959 1.071-.0735 2.154-.0735 3.231 0 1.506-.0918 3.018.0612 4.523-.2998.759.2081.992.7712 1.175.2387.08.5508-.079.8752.282h-4.1557c.6304-.392 1.628-.319 1.5056-1.457.1653-1.756.0612-3.513.0612-5.269 0-1.267.1347-2.546-.0918-3.807-.5263-.618-1.1139-1.12-1.9952-1.096-.1958 0-.2019-.153-.1958-.3 1.0833-.202 2.1665-.122 3.2559-.042 1.5791 1.958 3.1397 3.929 4.7433 5.875.8078.979 1.53 2.026 2.4603 2.901.1897-1.01.0734-2.032.0796-3.048 0-1.45.0795-2.895-.0429-4.345-.0612-.692-.4162-1.059-1.1322-1.016-.2693.012-.5019-.025-.5937-.325 1.4199-.171 2.8337-.171 4.2536 0-.0918.294-.3244.355-.5876.325-.5508-.061-.8629.226-1.0588.697.0796 3.642.0245 7.29.0306 10.931 0 .092-.055.159-.0918.233z"/><path d="m66.0191 114.571c-.4101-1.309-.6977-1.53-2.0809-1.53-.7405 0-1.4811.013-2.2216.019-.2081 1.603-.1041 3.207-.0551 4.81.0551.312.2264.502.5508.52.9731.104 1.9462.098 2.9194 0 1.3648.007 2.087-.875 2.6868-1.934.0979-.171.153-.422.41-.293.1897.098 0 .3 0 .453 0 .079-.0673.153-.0918.232-.4855 1.461-1.4954 2.191-3.0295 2.191-2.0564 0-4.1128 0-6.1692 0-.2632 0-.557.098-.8814-.177.6855-.319 1.7382-.062 1.781-1.182.0918-3.103.0857-6.199 0-9.302-.055-.692-.3978-1.065-1.1261-1.029-.2509.013-.5814.074-.4835-.379 3.0418-.043 6.0897-.135 9.1314.049-.0244.655.0551 1.297.153 1.94.0306.184.1592.514-.1468.575-.2999.055-.2877-.244-.3489-.465-.2938-1.101-.5814-1.334-1.7014-1.389-1.0833-.153-2.1666-.025-3.2499-.067-.257-.013-.4651.042-.4529.361.0551 1.45-.1346 2.907.0979 4.351.8752.006 1.7504.025 2.6256.019 1.1017-.007 1.371-.221 1.6464-1.28.0551-.208-.0306-.489.3366-.428.2264 1.279.0612 2.571.0857 3.856 0 .355-.2081.343-.3917.067z"/><path d="m54.305 107.019c0 .055 0 .153-.0184.165-1.6463.588-1.8054 2.197-2.3624 3.495-1.1383 2.656-2.1971 5.349-3.2927 8.024-.0795.195-.0918.483-.3733.514-.3611.036-.3733-.312-.4652-.521-1.328-3.066-2.6378-6.144-3.972-9.211-.4345-.997-.7161-2.172-2.1543-2.209-.0245 0-.0429-.153-.0612-.233 1.6524-.177 3.3049-.159 4.9513-.006 0 .423-.3428.276-.5631.349-.4957.153-.9486.398-.7222 1.01.9976 2.705 2.2217 5.319 3.4151 8.122 1.0711-2.669 2.1482-5.147 3.0663-7.687.3121-.869-.0551-1.206-.7528-1.451-.1775-.061-.3244-.11-.2938-.337 1.1996-.177 2.393-.146 3.5926-.012z"/><path d="m120.288 107.05c.043.893.104 1.781-.025 2.686-.122-.036-.202-.043-.214-.067-.447-1.622-.777-1.873-2.656-1.952-.343-.013-.686.018-1.022.024-.178.294-.086.618-.086.924-.037 3.005.061 6.004-.055 9.009.018 1.126.967.949 1.634 1.273h-5.012c.844-.159 1.548-.446 1.646-1.444.128-2.846.031-5.692.049-8.538 0-.416.135-.851-.11-1.248-.484 0-.98-.055-1.457 0-1.512.202-1.732.024-2.54 2.013-.049-.912-.269-1.824.049-2.742 2.589-.134 5.178-.036 7.767-.049.673 0 1.358-.153 2.019.104z"/><path d="m104.473 117.503c-.018 1.15.906 1.157 1.665 1.457h-5.013c.631-.374 1.628-.294 1.5-1.439.177-1.475.067-2.962.067-4.437 0-1.622.11-3.25-.073-4.866.024-.709-.49-.789-1.01-.856-.221-.031-.557.134-.521-.319 1.604-.226 3.214-.061 4.817-.085.123 0 .178.122.159.251-.073.153-.214.165-.355.159-.85-.043-1.236.379-1.236 1.205-.098 2.981-.098 5.955 0 8.936z"/><path d="m34.3771 108.549c.0857-.826-.2938-1.218-1.12-1.187-.2264.006-.4835.03-.4284-.331 1.6586-.196 3.3172-.055 5.0492-.085-.1958.483-.5692.238-.7711.397-.5937.098-.9426.398-.8752 1.047-.098 3.097-.0919 6.194 0 9.29.0673.974.8813.961 1.5361 1.267h-5.0553c.6549-.373 1.7749-.177 1.6708-1.426.1592-1.248.0674-2.503.0612-3.757-.0061-1.739.1041-3.477-.0612-5.215z"/><path d="m52.3342 97.4407c-.7038-.3305-1.4199-.6487-1.9034-1.273-1.2913-1.6586-2.344-3.4702-3.4273-5.2573-.459-.7528-.2815-.967.4284-1.3587 2.4787-1.3587 2.7174-4.0149 1.4505-5.8815-1.0465-1.5362-2.7663-1.8728-4.529-1.9279-1.4994-.1286-2.9989-.1286-4.4984 0-.7834.0857-1.5912-.1469-2.3624.1591-.2081.0796-.5814-.0857-.5263.355.0428.3366.3182.3182.5814.3611.6059.0979 1.2852.1469 1.3097 1.0098.1408 1.6525.0612 3.305.0551 4.9574 0 2.3686.0796 4.7371-.049 7.0995.049 1.1017-.6303 1.4505-1.5729 1.5484-.2448.0245-.5569.0735-.4651.4407.0612.2448.2142.4468.5447.4101.306-.0306.6243-.0123.9364-.0123 1.3281-.1285 2.6562-.1224 3.9904 0 .3121 0 .6243 0 .9364.0123.3244.0061.5814-.0918.5692-.4591-.0122-.3243-.2754-.3672-.5508-.4039-1.1323-.153-1.371-.4101-1.4566-1.5362.0918-.3366.0367-.6793.0489-1.0159.049-1.2731-.0918-2.5461.0796-3.813 1.071-.3366 1.6525-.0918 2.24.8814.7528 1.2362 1.3832 2.5399 2.2155 3.7272 1.4628 2.0931 3.4335 3.1458 5.8571 2.6256.2081-.0429.4284-.0673.4835-.2754.0796-.2816-.2387-.2999-.3794-.3672zm-5.9489-10.2698c-.2754 1.8239-2.393 3.152-4.174 2.6318-.1163-.0368-.2019-.1898-.2999-.2877-.104-2.1911-.1224-4.3821.0062-6.5732.2937-.5508.814-.3243 1.2301-.3182 1.8239.0367 3.2438 1.5178 3.2499 3.3417 0 .3978.0428.8078-.0123 1.1995z"/><path d="m114.002 97.3612c-.636-.1286-1.279-.3366-1.524-1.0527-.661-1.9034-1.322-3.8068-1.97-5.7102-.986-2.8949-2.075-5.7531-2.95-8.6847-.086-.2937-.294-.6732-.753-.2937-.802.6732-1.885 1.1383-1.842 2.4481 0 .0489-.043.104-.068.1591-1.444 3.7089-2.901 7.4116-4.314 11.1327-.404 1.065-.8939 1.9585-2.1914 2.0442-.251.0184-.4591.1469-.3673.4407.0735.2509.2265.5202.5509.3611.4712-.2326.9547-.1347 1.4318-.1286.906.0123 1.824-.1224 2.724.1469.294.0857.655.0612.74-.3672.098-.4713-.226-.4957-.569-.508-.11 0-.208-.0857-.318-.1101-.894-.2204-.992-.3917-.698-1.3037.355-1.1077.722-2.2094 1.09-3.3171.085-.2632.128-.5753.502-.5937 1.377-.0857 2.747-.0918 4.125 0 .434.1102.52.5141.636.8385.386 1.0649.673 2.1727 1.102 3.2192.342.8324.036 1.1751-.735 1.2731-.33.0428-.569.0917-.477.5018.086.3672.361.4101.667.3672 1.671-.257 3.336-.2693 5.006 0 .3.049.582.0123.667-.3611.086-.3856-.116-.4406-.465-.5141zm-6.738-6.4692c-1.151.0857-2.295.0919-3.446 0-.153-.0795-.202-.2264-.153-.361.631-1.6648 1.279-3.3233 2.118-5.0003.33.9731.661 1.9401.997 2.9132.184.5325.38 1.0589.57 1.5913.104.2999.202.5998-.086.863z"/><path d="m88.0518 97.3551c-.7895-.1285-1.3525-.4896-1.6463-1.3587-1.3771-4.1006-2.8276-8.1706-4.2413-12.2589-.1959-.5569-.3305-1.1323-.5141-1.6953-.1714-.5264-.3734-.765-.9548-.2938-.7406.6059-1.3771 1.1078-1.7259 2.1543-1.0955 3.3295-2.3808 6.6038-3.7211 9.8475-.6059 1.4689-.6672 3.4947-2.95 3.6906-.1959.0183-.3366.2142-.2081.459.0918.1713.153.3917.4223.3366 1.4689-.2938 2.9316-.2203 4.4005.0061.3121.049.5753-.0612.6181-.4284.0551-.4468-.2632-.3856-.5508-.4345-1.1935-.202-1.3709-.5264-.9854-1.6892.3428-1.0221.6794-2.0442 1.0282-3.0663.0857-.257.1163-.5753.4958-.5998 1.377-.0857 2.748-.0918 4.125 0 .3305.0674.4407.3366.5325.6059.4039 1.1506.7589 2.3196 1.2057 3.4519.3182.8078.0489 1.1873-.7345 1.2852-.3427.0429-.563.1102-.4712.508.0857.3672.3611.4039.6671.3611 1.6708-.2571 3.3355-.2693 5.0003 0 .306.049.5814 0 .6609-.3672.0857-.3856-.104-.459-.4529-.5202zm-6.7506-6.4569c-1.1506.0857-2.2951.0918-3.4457 0-.2448-.1775-.153-.3611-.0673-.5937.5447-1.426 1.0833-2.852 1.5974-4.2903.0734-.1958.1101-.41.3366-.4223.2387-.0122.1897.2326.2448.3795.4774 1.3587.9486 2.7113 1.4199 4.07.104.2999.1897.5998-.0918.8568z"/><path d="m81.6868 117.252c-.8201-1.083-1.5423-2.234-2.3685-3.311-.4652-.606-.4897-.851.3366-1.089 1.6341-.484 2.3685-2.1 1.8361-3.74-.5509-1.707-1.9524-1.971-3.4457-2.117-1.8851.018-3.7701.036-5.6552.048 0 .147.0184.325.1959.294 1.1261-.196 1.3587.557 1.5178 1.396.0918 2.864.0979 5.722 0 8.586-.0245 1.09-.7956 1.396-1.6708 1.616h5.0308c-.0979-.171-.2019-.22-.306-.226-1.0955-.117-1.3464-.392-1.3587-1.518-.0061-.943-.0183-1.891.0061-2.834.0062-.269-.2019-.734.251-.777.4284-.037.9241-.257 1.3036.306.9854 1.45 2.038 2.858 3.0662 4.278.2143.294.4285.789.6794.814 1.016.092 2.0503.037 3.0785.037.0122-.074.0183-.147.0306-.221-1.0466-.202-1.9034-.734-2.5277-1.554zm-4.1067-4.578c-1.7626.477-1.7871.429-1.7871-1.383v-.943c0-.312-.0551-.642.0122-.942.1224-.563-.4223-1.347.3917-1.665.9242-.361 2.4481.067 2.901.765 1.0038 1.549.6427 3.581-1.5178 4.168z"/></g></svg>