<svg fill="none" height="115" viewBox="0 0 180 115" width="180" xmlns="http://www.w3.org/2000/svg"><path d="m77.4946 3.75465c0-1.57852-1.2782-2.858166-2.8551-2.858166-1.5768 0-2.8551 1.279646-2.8551 2.858166v65.93965c0 1.5785 1.2783 2.8582 2.8551 2.8582 1.5769 0 2.8551-1.2797 2.8551-2.8582z" fill="#d83b3f"/><path d="m107.68 3.75465c0-1.57852-1.278-2.858166-2.855-2.858166s-2.855 1.279646-2.855 2.858166v65.93965c0 1.5785 1.278 2.8582 2.855 2.8582s2.855-1.2797 2.855-2.8582z" fill="#d83b3f"/><path d="m176.557 33.2971h-38.931v-25.54592h38.931c1.892 0 3.428-1.53619 3.428-3.42735s-1.53-3.427346-3.428-3.427346h-41.262c-.092 0-.172.018361-.264.024481-.085-.00612-.171-.024481-.263-.024481-1.579 0-2.858 1.279136-2.858 2.858166v.06732c-.024.16525-.049.33049-.049.50186s.025.33661.049.50186v31.39081c-.024.1653-.049.3305-.049.5019 0 .1713.025.3366.049.5018v32.468c0 1.579 1.279 2.8582 2.858 2.8582s2.858-1.2792 2.858-2.8582v-29.5425h38.931c1.892 0 3.428-1.5362 3.428-3.4273 0-1.8912-1.536-3.4274-3.428-3.4274z" fill="#d83b3f"/><path d="m46.9363 67.4727-39.78172-30.0811 39.78172-30.0872c1.1322-.85684 1.3587-2.47259.5018-3.60484l-.3427-.4529c-.8568-1.13224-2.4726-1.35869-3.6048-.50186l-37.6886 28.5082v-27.49835c0-1.57903-1.27913-2.858166-2.85816-2.858166-1.57291 0-2.8520431 1.279136-2.8520431 2.858166v65.94575c0 1.5791 1.2791331 2.8582 2.8581631 2.8582s2.85816-1.2791 2.85816-2.8582v-26.1702l37.69468 28.5021c1.1323.8568 2.748.6304 3.6048-.5019l.3428-.4529c.8568-1.1322.6304-2.748-.5019-3.6048z" fill="#d83b3f"/><g fill="#000"><path d="m2.99868 92.0945-1.68307 1.7075v2.3808h-1.31585414v-9.1987h1.31585414v5.141l4.99413-5.141h1.49947l-3.92921 4.1434 4.18014 5.0614h-1.53619l-3.51915-4.0883z"/><path d="m14.9395 93.8816h-4.8901l-1.00981 2.3012h-1.35258l4.16789-9.1987h1.3036l4.1802 9.1987h-1.3771l-1.0098-2.3012zm-.459-1.0527-1.983-4.5045-1.9829 4.5045z"/><path d="m24.842 96.1767-1.9829-2.8275c-.1836.0122-.3795.0245-.5753.0245h-2.2768v2.7969h-1.3158v-9.1987h3.5864c2.3931 0 3.8374 1.2118 3.8374 3.207 0 1.4199-.7344 2.442-2.0258 2.9071l2.1788 3.0907h-1.4321zm-.0367-5.9917c0-1.3159-.8813-2.0625-2.5644-2.0625h-2.2339v4.1373h2.2339c1.6831 0 2.5644-.7589 2.5644-2.0748z"/><path d="m36.1523 86.978v9.1987h-1.0772l-5.5205-6.8608v6.8608h-1.3158v-9.1987h1.0771l5.5205 6.8608v-6.8608z"/><path d="m44.7694 93.8816h-4.8901l-1.0099 2.3012h-1.3526l4.1679-9.1987h1.3037l4.1801 9.1987h-1.3771l-1.0098-2.3012zm-.4591-1.0527-1.9829-4.5045-1.983 4.5045z"/><path d="m56.0247 86.978-4.0333 9.1987h-1.3036l-4.0455-9.1987h1.4199l3.3111 7.5585 3.3355-7.5585z"/><path d="m62.7633 93.8816h-4.8901l-1.0099 2.3012h-1.3526l4.1679-9.1987h1.3037l4.1801 9.1987h-1.3771l-1.0098-2.3012zm-.4591-1.0527-1.9829-4.5045-1.983 4.5045z"/><path d="m67.8858 88.1225h-3.1519v-1.1445h7.6075v1.1445h-3.152v8.0542h-1.3036z"/><path d="m73.7671 86.978h1.3158v9.1987h-1.3158z"/><path d="m81.3748 86.978h1.3158v9.1987h-1.3158z"/><path d="m93.3583 86.978v9.1987h-1.0771l-5.5205-6.8608v6.8608h-1.3159v-9.1987h1.0772l5.5205 6.8608v-6.8608z"/><path d="m104.026 86.978v9.1987h-1.077l-5.5208-6.8608v6.8608h-1.3159v-9.1987h1.0772l5.5205 6.8608v-6.8608z"/><path d="m106.028 91.5804c0-2.6929 2.074-4.7065 4.902-4.7065 2.827 0 4.878 1.9952 4.878 4.7065s-2.075 4.7065-4.878 4.7065-4.902-2.0136-4.902-4.7065zm8.464 0c0-2.0381-1.524-3.5375-3.562-3.5375s-3.587 1.4994-3.587 3.5375c0 2.038 1.524 3.5375 3.587 3.5375 2.062 0 3.562-1.4995 3.562-3.5375z"/><path d="m125.514 86.978-4.033 9.1987h-1.304l-4.045-9.1987h1.42l3.311 7.5585 3.335-7.5585z"/><path d="m132.253 93.8816h-4.89l-1.01 2.3012h-1.353l4.168-9.1987h1.304l4.18 9.1987h-1.377l-1.01-2.3012zm-.459-1.0527-1.983-4.5045-1.983 4.5045z"/><path d="m137.369 88.1225h-3.152v-1.1445h7.608v1.1445h-3.152v8.0542h-1.304z"/><path d="m143.257 86.978h1.315v9.1987h-1.315z"/><path d="m146.58 91.5804c0-2.6929 2.075-4.7065 4.902-4.7065 2.828 0 4.878 1.9952 4.878 4.7065s-2.075 4.7065-4.878 4.7065-4.902-2.0136-4.902-4.7065zm8.464 0c0-2.0381-1.524-3.5375-3.562-3.5375s-3.586 1.4994-3.586 3.5375c0 2.038 1.524 3.5375 3.586 3.5375 2.063 0 3.562-1.4995 3.562-3.5375z"/><path d="m166.269 86.978v9.1987h-1.077l-5.52-6.8608v6.8608h-1.316v-9.1987h1.077l5.52 6.8608v-6.8608z"/><path d="m179.287 96.3236-1.224-1.2241c-.802.7773-1.855 1.1812-3.079 1.1812-1.867 0-3.219-.9853-3.219-2.393 0-1.1322.643-1.9217 2.234-2.8275-.826-.8263-1.102-1.4199-1.102-2.0993 0-1.2363.973-2.0625 2.485-2.0625 1.395 0 2.289.7222 2.289 1.9217 0 .9364-.551 1.6035-1.959 2.4053l2.277 2.2584c.251-.4713.447-1.0282.563-1.6709l1.01.3305c-.159.814-.434 1.524-.802 2.1054l1.237 1.2363zm-1.971-1.9585-2.613-2.6011c-1.286.7222-1.696 1.2608-1.696 1.9952 0 .8813.827 1.4689 2.063 1.4689.881 0 1.658-.2877 2.246-.8691zm-3.244-5.4287c0 .4713.184.814.937 1.579 1.211-.6854 1.603-1.1016 1.603-1.683 0-.5815-.434-1.0099-1.224-1.0099-.826 0-1.316.4591-1.316 1.12z"/><path d="m-.00024414 104.776h1.31585414v9.198h-1.31585414z"/><path d="m11.8915 104.776v9.198h-1.0771l-5.52052-6.86v6.86h-1.31585v-9.198h1.07716l5.52051 6.86v-6.86z"/><path d="m13.8071 109.378c0-2.723 2.0748-4.706 4.8779-4.706 1.4199 0 2.6562.483 3.4946 1.432l-.8568.826c-.7099-.747-1.579-1.089-2.5889-1.089-2.0747 0-3.617 1.499-3.617 3.537s1.5362 3.538 3.617 3.538c1.0099 0 1.879-.355 2.5889-1.102l.8568.826c-.8384.949-2.0747 1.445-3.5069 1.445-2.7847 0-4.8656-1.983-4.8656-4.707z"/><path d="m23.8382 110.008v-5.232h1.3158v5.177c0 2.038.9303 2.956 2.5889 2.956s2.6011-.918 2.6011-2.956v-5.177h1.273v5.232c0 2.669-1.4566 4.077-3.8925 4.077-2.4358 0-3.8925-1.408-3.8925-4.077z"/><path d="m42.132 111.496c0 1.579-1.1934 2.485-3.5253 2.485h-4.3882v-9.199h4.1251c2.1176 0 3.2988.893 3.2988 2.381 0 .997-.5141 1.695-1.2363 2.05 1.0404.288 1.7198 1.065 1.7198 2.289zm-6.5976-5.649v2.944h2.6929c1.3403 0 2.1053-.502 2.1053-1.469s-.765-1.475-2.1053-1.475zm5.2695 5.545c0-1.065-.7895-1.537-2.2461-1.537h-3.0234v3.061h3.0234c1.4566 0 2.2461-.459 2.2461-1.524z"/><path d="m49.9288 111.679h-4.8901l-1.0099 2.302h-1.3525l4.1679-9.199h1.3036l4.1801 9.199h-1.377l-1.0099-2.302zm-.459-1.052-1.983-4.505-1.983 4.505z"/><path d="m54.9598 105.92h-3.1519v-1.144h7.6074v1.144h-3.1519v8.054h-1.3036z"/><path d="m60.7495 104.776h1.3159v9.198h-1.3159z"/><path d="m63.981 109.378c0-2.693 2.0747-4.706 4.9023-4.706 2.8275 0 4.8778 1.995 4.8778 4.706s-2.0747 4.707-4.8778 4.707-4.9023-2.014-4.9023-4.707zm8.4643 0c0-2.038-1.524-3.537-3.562-3.537-2.0381 0-3.5865 1.499-3.5865 3.537s1.524 3.538 3.5865 3.538 3.562-1.5 3.562-3.538z"/><path d="m83.5844 104.776v9.198h-1.0772l-5.5204-6.86v6.86h-1.3159v-9.198h1.0772l5.5204 6.86v-6.86z"/><path d="m91.0019 105.92v3.207h4.6147v1.132h-4.6147v3.722h-1.3159v-9.199h6.4936v1.144h-5.1777z"/><path d="m97.0854 109.378c0-2.693 2.0748-4.706 4.9026-4.706 2.827 0 4.878 1.995 4.878 4.706s-2.075 4.707-4.878 4.707c-2.8033 0-4.9026-2.014-4.9026-4.707zm8.4646 0c0-2.038-1.524-3.537-3.562-3.537-2.0383 0-3.5867 1.499-3.5867 3.537s1.5239 3.538 3.5867 3.538c2.062 0 3.562-1.5 3.562-3.538z"/><path d="m108.696 110.008v-5.232h1.315v5.177c0 2.038.931 2.956 2.589 2.956 1.659 0 2.601-.918 2.601-2.956v-5.177h1.273v5.232c0 2.669-1.456 4.077-3.892 4.077s-3.893-1.408-3.893-4.077z"/><path d="m126.983 104.776v9.198h-1.077l-5.521-6.86v6.86h-1.315v-9.198h1.077l5.52 6.86v-6.86z"/><path d="m129.646 104.776h3.88c2.956 0 4.969 1.866 4.969 4.602s-2.007 4.603-4.969 4.603h-3.88v-9.199zm3.8 8.054c2.277 0 3.734-1.396 3.734-3.458 0-2.063-1.457-3.458-3.734-3.458h-2.485v6.91h2.485z"/><path d="m146.133 111.679h-4.89l-1.01 2.302h-1.352l4.168-9.199h1.303l4.18 9.199h-1.377l-1.01-2.302zm-.459-1.052-1.983-4.505-1.983 4.505z"/><path d="m151.164 105.92h-3.152v-1.144h7.608v1.144h-3.152v8.054h-1.304z"/><path d="m156.954 104.776h1.316v9.198h-1.316z"/><path d="m160.186 109.378c0-2.693 2.074-4.706 4.902-4.706 2.827 0 4.878 1.995 4.878 4.706s-2.075 4.707-4.878 4.707-4.902-2.014-4.902-4.707zm8.464 0c0-2.038-1.524-3.537-3.562-3.537s-3.587 1.499-3.587 3.537 1.524 3.538 3.587 3.538c2.062 0 3.562-1.5 3.562-3.538z"/><path d="m179.789 104.776v9.198h-1.078l-5.52-6.86v6.86h-1.316v-9.198h1.077l5.521 6.86v-6.86z"/></g></svg>