<svg fill="none" viewBox="0 0 180 115"><path fill="#d83b3f" d="M77.495 3.755A2.857 2.857 0 0074.64.896a2.857 2.857 0 00-2.856 2.859v65.94a2.857 2.857 0 002.855 2.858 2.857 2.857 0 002.856-2.859zm30.185 0c0-1.579-1.278-2.859-2.855-2.859s-2.855 1.28-2.855 2.859v65.94c0 1.578 1.278 2.858 2.855 2.858s2.855-1.28 2.855-2.859zm68.877 29.542h-38.931V7.751h38.931a3.426 3.426 0 100-6.855h-41.262c-.092 0-.172.019-.264.025-.085-.006-.171-.025-.263-.025a2.857 2.857 0 00-2.858 2.859v.067c-.024.165-.049.33-.049.502s.025.336.049.502v31.39c-.024.166-.049.331-.049.502 0 .172.025.337.049.502v32.468a2.857 2.857 0 105.716 0V40.146h38.931a3.43 3.43 0 003.428-3.428 3.43 3.43 0 00-3.428-3.427zM46.937 67.473L7.154 37.392 46.936 7.304a2.575 2.575 0 00.502-3.604l-.343-.453a2.575 2.575 0 00-3.604-.502L5.802 31.253V3.755a2.856 2.856 0 10-5.71 0V69.7a2.857 2.857 0 105.716 0V43.53l37.695 28.502a2.575 2.575 0 003.605-.502l.342-.453a2.575 2.575 0 00-.502-3.604z"/><g fill="#000"><path d="M2.999 92.094l-1.683 1.708v2.38H0v-9.198h1.316v5.141l4.994-5.14h1.5l-3.93 4.142 4.18 5.062H6.524L3.004 92.1z"/><path d="M14.94 93.882h-4.89l-1.01 2.3H7.687l4.168-9.198h1.304l4.18 9.199h-1.377l-1.01-2.301zm-.46-1.053l-1.982-4.505-1.983 4.505zm10.362 3.348l-1.983-2.828c-.184.012-.38.025-.575.025h-2.277v2.797h-1.316v-9.2h3.587c2.393 0 3.837 1.213 3.837 3.208 0 1.42-.734 2.442-2.026 2.907l2.179 3.09h-1.432zm-.037-5.992c0-1.316-.881-2.063-2.564-2.063h-2.234v4.138h2.234c1.683 0 2.564-.76 2.564-2.075zm11.347-3.207v9.199h-1.077l-5.52-6.861v6.86h-1.316v-9.198h1.077l5.52 6.86v-6.86zm8.617 6.904h-4.89l-1.01 2.3h-1.352l4.168-9.198h1.303l4.18 9.199h-1.377l-1.01-2.301zm-.459-1.053l-1.983-4.505-1.983 4.505zm11.715-5.851l-4.034 9.199h-1.303l-4.046-9.199h1.42l3.311 7.559 3.336-7.559zm6.738 6.904h-4.89l-1.01 2.3h-1.352l4.168-9.198h1.303l4.18 9.199h-1.377l-1.01-2.301zm-.459-1.053l-1.983-4.505-1.983 4.505zm5.582-4.706h-3.152v-1.145h7.607v1.145H69.19v8.054h-1.303zm5.881-1.145h1.316v9.199h-1.316zm7.608 0h1.316v9.199h-1.316zm11.983 0v9.199h-1.077l-5.52-6.861v6.86h-1.316v-9.198h1.077l5.52 6.86v-6.86zm10.668 0v9.199h-1.077l-5.52-6.861v6.86h-1.317v-9.198h1.078l5.52 6.86v-6.86zm2.002 4.602c0-2.693 2.074-4.706 4.902-4.706 2.827 0 4.878 1.995 4.878 4.706s-2.075 4.707-4.878 4.707-4.902-2.014-4.902-4.707zm8.464 0c0-2.038-1.524-3.537-3.562-3.537s-3.587 1.5-3.587 3.537c0 2.038 1.524 3.538 3.587 3.538 2.062 0 3.562-1.5 3.562-3.538zm11.022-4.602l-4.033 9.199h-1.304l-4.045-9.199h1.42l3.311 7.559 3.335-7.559zm6.739 6.904h-4.89l-1.01 2.3H125l4.168-9.198h1.304l4.18 9.199h-1.377l-1.01-2.301zm-.459-1.053l-1.983-4.505-1.983 4.505zm5.575-4.706h-3.152v-1.145h7.608v1.145h-3.152v8.054h-1.304zm5.888-1.145h1.315v9.199h-1.315zm3.323 4.602c0-2.693 2.075-4.706 4.902-4.706 2.828 0 4.878 1.995 4.878 4.706s-2.075 4.707-4.878 4.707-4.902-2.014-4.902-4.707zm8.464 0c0-2.038-1.524-3.537-3.562-3.537s-3.586 1.5-3.586 3.537c0 2.038 1.524 3.538 3.586 3.538 2.063 0 3.562-1.5 3.562-3.538zm11.225-4.602v9.199h-1.077l-5.52-6.861v6.86h-1.316v-9.198h1.077l5.52 6.86v-6.86zm13.018 9.346l-1.224-1.224c-.802.777-1.855 1.18-3.079 1.18-1.867 0-3.219-.985-3.219-2.392 0-1.132.643-1.922 2.234-2.828-.826-.826-1.102-1.42-1.102-2.1 0-1.235.973-2.062 2.485-2.062 1.395 0 2.289.723 2.289 1.922 0 .937-.551 1.604-1.959 2.405l2.277 2.259a5.693 5.693 0 00.563-1.671l1.01.33c-.159.814-.434 1.524-.802 2.106l1.237 1.236zm-1.971-1.959l-2.613-2.601c-1.286.722-1.696 1.26-1.696 1.995 0 .881.827 1.47 2.063 1.47.881 0 1.658-.289 2.246-.87zm-3.244-5.429c0 .472.184.814.937 1.58 1.211-.686 1.603-1.102 1.603-1.684 0-.581-.434-1.01-1.224-1.01-.826 0-1.316.46-1.316 1.12zM0 104.776h1.316v9.198H0zm11.892 0v9.198h-1.078l-5.52-6.86v6.86H3.978v-9.198h1.077l5.52 6.86v-6.86zm1.915 4.602c0-2.723 2.075-4.706 4.878-4.706 1.42 0 2.656.483 3.495 1.432l-.857.826c-.71-.747-1.58-1.089-2.59-1.089-2.074 0-3.616 1.499-3.616 3.537s1.536 3.538 3.617 3.538c1.01 0 1.879-.355 2.589-1.102l.857.826c-.839.949-2.075 1.445-3.507 1.445-2.785 0-4.866-1.983-4.866-4.707zm10.031.63v-5.232h1.316v5.177c0 2.038.93 2.956 2.589 2.956s2.601-.918 2.601-2.956v-5.177h1.273v5.232c0 2.669-1.457 4.077-3.893 4.077-2.435 0-3.892-1.408-3.892-4.077zm18.294 1.488c0 1.579-1.193 2.485-3.525 2.485h-4.389v-9.199h4.126c2.117 0 3.298.893 3.298 2.381 0 .997-.514 1.695-1.236 2.05 1.04.288 1.72 1.065 1.72 2.289zm-6.598-5.649v2.944h2.693c1.34 0 2.106-.502 2.106-1.469s-.765-1.475-2.106-1.475zm5.27 5.545c0-1.065-.79-1.537-2.246-1.537h-3.024v3.061h3.024c1.456 0 2.246-.459 2.246-1.524zm9.125.287h-4.89l-1.01 2.302h-1.353l4.168-9.199h1.304l4.18 9.199H50.95l-1.01-2.302zm-.46-1.052l-1.982-4.505-1.983 4.505zm5.49-4.707h-3.151v-1.144h7.607v1.144h-3.152v8.054H54.96zm5.79-1.144h1.316v9.198H60.75zm3.232 4.602c0-2.693 2.075-4.706 4.902-4.706 2.828 0 4.878 1.995 4.878 4.706s-2.075 4.707-4.878 4.707-4.902-2.014-4.902-4.707zm8.464 0c0-2.038-1.524-3.537-3.562-3.537s-3.586 1.499-3.586 3.537 1.524 3.538 3.586 3.538 3.562-1.5 3.562-3.538zm11.14-4.602v9.198h-1.078l-5.52-6.86v6.86H75.67v-9.198h1.077l5.52 6.86v-6.86zm7.417 1.144v3.207h4.615v1.132h-4.615v3.722h-1.316v-9.199h6.494v1.144h-5.178zm6.083 3.458c0-2.693 2.075-4.706 4.903-4.706 2.827 0 4.878 1.995 4.878 4.706s-2.075 4.707-4.878 4.707-4.903-2.014-4.903-4.707zm8.465 0c0-2.038-1.524-3.537-3.562-3.537s-3.587 1.499-3.587 3.537 1.524 3.538 3.587 3.538c2.062 0 3.562-1.5 3.562-3.538zm3.146.63v-5.232h1.315v5.177c0 2.038.931 2.956 2.589 2.956 1.659 0 2.601-.918 2.601-2.956v-5.177h1.273v5.232c0 2.669-1.456 4.077-3.892 4.077s-3.893-1.408-3.893-4.077zm18.287-5.232v9.198h-1.077l-5.521-6.86v6.86h-1.315v-9.198h1.077l5.52 6.86v-6.86zm2.663 0h3.88c2.956 0 4.969 1.866 4.969 4.602s-2.007 4.603-4.969 4.603h-3.88v-9.199zm3.8 8.054c2.277 0 3.734-1.396 3.734-3.458 0-2.063-1.457-3.458-3.734-3.458h-2.485v6.91h2.485zm12.687-1.151h-4.89l-1.01 2.302h-1.352l4.168-9.199h1.303l4.18 9.199h-1.377l-1.01-2.302zm-.459-1.052l-1.983-4.505-1.983 4.505zm5.49-4.707h-3.152v-1.144h7.608v1.144h-3.152v8.054h-1.304zm5.79-1.144h1.316v9.198h-1.316zm3.232 4.602c0-2.693 2.074-4.706 4.902-4.706 2.827 0 4.878 1.995 4.878 4.706s-2.075 4.707-4.878 4.707-4.902-2.014-4.902-4.707zm8.464 0c0-2.038-1.524-3.537-3.562-3.537s-3.587 1.499-3.587 3.537 1.524 3.538 3.587 3.538c2.062 0 3.562-1.5 3.562-3.538zm11.139-4.602v9.198h-1.078l-5.52-6.86v6.86h-1.316v-9.198h1.077l5.521 6.86v-6.86z"/></g></svg>