<svg viewBox="0 0 310.59 130.78" xmlns="http://www.w3.org/2000/svg"><g fill="#242425"><path d="m15.65 114.54a2.79 2.79 0 0 1 1.68 2.51v13.22a.45.45 0 0 1 -.45.44h-3.26a.39.39 0 0 1 -.3-.12.47.47 0 0 1 -.12-.32v-12h-2.63v12a.45.45 0 0 1 -.12.31.34.34 0 0 1 -.3.13h-3a.44.44 0 0 1 -.44-.44v-12h-2.58v12a.39.39 0 0 1 -.33.44h-3.35a.4.4 0 0 1 -.45-.31v-15.64a.39.39 0 0 1 .33-.44h14.24a2.52 2.52 0 0 1 1.08.22z"/><path d="m32 114.32a2.75 2.75 0 0 1 2.55 1.68 2.56 2.56 0 0 1 .23 1.06v13.22a.42.42 0 0 1 -.42.44h-3.28a.45.45 0 0 1 -.45-.44v-4.2a.44.44 0 0 0 -.11-.31.38.38 0 0 0 -.31-.13h-4.64a.45.45 0 0 0 -.45.44v4.2a.38.38 0 0 1 -.32.44h-3.35a.38.38 0 0 1 -.45-.32v-13.34a2.75 2.75 0 0 1 .21-1.06 2.6 2.6 0 0 1 .59-.91 2.91 2.91 0 0 1 .91-.59 2.58 2.58 0 0 1 1.06-.22zm-1.41 7.81v-4.13h-5.5v4.12z"/><path d="m49.52 114.45a.37.37 0 0 1 .13.31v13.24a2.58 2.58 0 0 1 -.22 1.06 3 3 0 0 1 -.59.91 2.47 2.47 0 0 1 -.9.59 2.8 2.8 0 0 1 -1.07.21h-7a2.8 2.8 0 0 1 -1.07-.21 2.74 2.74 0 0 1 -1.68-2.56v-5a.4.4 0 0 1 .33-.45h3.35a.41.41 0 0 1 .45.33v3.47a.41.41 0 0 0 .12.31.46.46 0 0 0 .32.11h3.4a.44.44 0 0 0 .31-.11.38.38 0 0 0 .13-.31v-11.59a.45.45 0 0 1 .12-.31.37.37 0 0 1 .31-.13h3.26a.39.39 0 0 1 .3.13z"/><path d="m64.35 114.32a2.58 2.58 0 0 1 1.06.22 2.64 2.64 0 0 1 1.45 1.46 2.56 2.56 0 0 1 .23 1.06v10.89a2.64 2.64 0 0 1 -.23 1.07 2.78 2.78 0 0 1 -.58.9 2.51 2.51 0 0 1 -.91.59 2.54 2.54 0 0 1 -1.06.21h-8.26a2.61 2.61 0 0 1 -1.05-.22 2.71 2.71 0 0 1 -1.68-2.5v-10.89a2.8 2.8 0 0 1 .21-1.07 2.45 2.45 0 0 1 .58-.9 2.91 2.91 0 0 1 .91-.59 2.55 2.55 0 0 1 1.06-.22zm-1.41 4h-5.5v8.44h5.56z"/><path d="m85.06 130.35a.22.22 0 0 1 0 .27.27.27 0 0 1 -.25.11h-3.72a.7.7 0 0 1 -.37-.11.75.75 0 0 1 -.29-.27l-2.43-4.45a.17.17 0 0 0 -.17-.09h-2.83a.1.1 0 0 0 -.12.08 0 0 0 0 0 0 0v4.36a.38.38 0 0 1 -.34.43h-3.33a.39.39 0 0 1 -.44-.32.24.24 0 0 1 0-.12v-15.48a.38.38 0 0 1 .32-.44h10.72a2.62 2.62 0 0 1 1.06.22 2.78 2.78 0 0 1 1.45 1.46 2.58 2.58 0 0 1 .22 1.06v6.16a2.66 2.66 0 0 1 -.53 1.61 2.58 2.58 0 0 1 -1.35 1h-.07c-.11 0-.14.08-.08.14zm-4.66-12.21h-5.65v4h5.65z"/><path d="m107.12 126.74a.39.39 0 0 1 .31.12.47.47 0 0 1 .12.32v3.1a.45.45 0 0 1 -.12.31.37.37 0 0 1 -.31.13h-10.12a.4.4 0 0 1 -.45-.32v-15.64a.39.39 0 0 1 .33-.44h3.35a.39.39 0 0 1 .44.33.2.2 0 0 1 0 .11v11.56a.4.4 0 0 0 .13.31.47.47 0 0 0 .32.12z"/><path d="m122.28 114.45a.4.4 0 0 1 .13.31v2.95a.37.37 0 0 1 -.13.31.45.45 0 0 1 -.31.12h-7.86a.09.09 0 0 0 -.11.08s0 0 0 0v2.55c0 .06 0 .09.11.09h6.7a.37.37 0 0 1 .3.13.45.45 0 0 1 .12.31v2.35a.45.45 0 0 1 -.12.31.37.37 0 0 1 -.3.13h-6.7a.1.1 0 0 0 -.11.08 0 0 0 0 0 0 0v2.53a.09.09 0 0 0 .07.12h7.93a.44.44 0 0 1 .44.43v3a.43.43 0 0 1 -.43.44h-11.69a.4.4 0 0 1 -.45-.32v-15.61a.45.45 0 0 1 .45-.44h11.68a.42.42 0 0 1 .28.13z"/><path d="m137.15 114.32a2.6 2.6 0 0 1 1.07.22 2.69 2.69 0 0 1 1.46 1.45 2.55 2.55 0 0 1 .22 1.06v13.22a.42.42 0 0 1 -.42.44h-3.31a.44.44 0 0 1 -.44-.44v-4.2a.45.45 0 0 0 -.12-.31.37.37 0 0 0 -.31-.13h-4.57a.45.45 0 0 0 -.45.44v4.2a.39.39 0 0 1 -.33.44h-3.35a.38.38 0 0 1 -.44-.32.24.24 0 0 1 0-.12v-13.21a2.75 2.75 0 0 1 .21-1.06 2.6 2.6 0 0 1 .59-.91 2.91 2.91 0 0 1 .91-.59 2.55 2.55 0 0 1 1.06-.22zm-1.4 7.81v-4.13h-5.51v4.12z"/><path d="m157.2 121.9a.41.41 0 0 1 .12.32v5.78a2.58 2.58 0 0 1 -.22 1.06 3.21 3.21 0 0 1 -.58.91 2.6 2.6 0 0 1 -.91.59 2.78 2.78 0 0 1 -1.06.21h-8.3a2.73 2.73 0 0 1 -2.74-2.74v-10.9a2.78 2.78 0 0 1 .21-1.06 2.44 2.44 0 0 1 .58-.91 3 3 0 0 1 .9-.59 2.81 2.81 0 0 1 1.07-.22h9.73a.45.45 0 0 1 .45.45v3.09a.45.45 0 0 1 -.45.45h-7.85a.47.47 0 0 0 -.32.12.44.44 0 0 0 -.13.31v7.59a.42.42 0 0 0 .13.3.43.43 0 0 0 .32.12h4.64a.4.4 0 0 0 .42-.38v-4.14a.42.42 0 0 1 .42-.44h3.28a.43.43 0 0 1 .29.08z"/><path d="m174.49 114.45a.44.44 0 0 1 .13.31v13.24a2.59 2.59 0 0 1 -.23 1.06 3 3 0 0 1 -.58.91 2.6 2.6 0 0 1 -.91.59 2.8 2.8 0 0 1 -1.07.21h-8.3a2.78 2.78 0 0 1 -1.06-.21 2.75 2.75 0 0 1 -1.47-1.46 2.8 2.8 0 0 1 -.21-1.07v-13.27a.39.39 0 0 1 .33-.44h3.35a.39.39 0 0 1 .44.33.2.2 0 0 1 0 .11v11.56a.4.4 0 0 0 .13.31.47.47 0 0 0 .32.12h4.64a.42.42 0 0 0 .3-.12.37.37 0 0 0 .12-.31v-11.56a.45.45 0 0 1 .45-.44h3.26a.39.39 0 0 1 .36.13z"/><path d="m190.73 114.45a.44.44 0 0 1 .13.31v2.95a.4.4 0 0 1 -.13.31.47.47 0 0 1 -.32.12h-7.85a.1.1 0 0 0 -.12.08v2.59c0 .06 0 .09.12.09h6.7a.39.39 0 0 1 .3.13.45.45 0 0 1 .12.31v2.35a.45.45 0 0 1 -.12.31.39.39 0 0 1 -.3.13h-6.7a.11.11 0 0 0 -.12.08v2.57a.1.1 0 0 0 .08.12h7.89a.45.45 0 0 1 .45.43v3a.44.44 0 0 1 -.43.44h-11.66a.39.39 0 0 1 -.45-.32.24.24 0 0 1 0-.12v-15.57a.45.45 0 0 1 .45-.44h11.64a.42.42 0 0 1 .32.13z"/><path d="m215.88 114.32a.42.42 0 0 1 .44.42v15.54a.43.43 0 0 1 -.43.44h-3.27a.45.45 0 0 1 -.45-.44v-5.45a.4.4 0 0 0 -.38-.42h-4.67a.45.45 0 0 0 -.32.12.37.37 0 0 0 -.13.31v5.45a.39.39 0 0 1 -.33.44.21.21 0 0 1 -.11 0h-3.23a.39.39 0 0 1 -.44-.33.2.2 0 0 1 0-.11v-15.53a.39.39 0 0 1 .33-.44h3.35a.39.39 0 0 1 .44.33.2.2 0 0 1 0 .11v5.24a.39.39 0 0 0 .33.44h4.75a.39.39 0 0 0 .31-.12.47.47 0 0 0 .12-.32v-5.25a.45.45 0 0 1 .45-.44h3.25z"/><path d="m231.06 114.32a2.6 2.6 0 0 1 1.07.22 2.69 2.69 0 0 1 1.46 1.45 2.55 2.55 0 0 1 .22 1.06v13.22a.42.42 0 0 1 -.42.44h-3.28a.44.44 0 0 1 -.44-.44v-4.2a.45.45 0 0 0 -.12-.31.37.37 0 0 0 -.31-.13h-4.65a.44.44 0 0 0 -.44.44v4.2a.39.39 0 0 1 -.33.44h-3.35a.39.39 0 0 1 -.45-.32v-13.33a2.75 2.75 0 0 1 .21-1.06 2.6 2.6 0 0 1 .59-.91 3 3 0 0 1 .91-.59 2.62 2.62 0 0 1 1.06-.22zm-1.4 7.81v-4.13h-5.51v4.12z"/><path d="m241.68 118.42a.39.39 0 0 0 -.12.31v7.59a.39.39 0 0 0 .12.31.47.47 0 0 0 .32.12h7.53a.42.42 0 0 1 .44.42v3.12a.42.42 0 0 1 -.42.44h-9.37a2.71 2.71 0 0 1 -1.06-.21 2.6 2.6 0 0 1 -.91-.59 2.92 2.92 0 0 1 -.79-2v-10.86a2.71 2.71 0 0 1 .21-1.06 2.44 2.44 0 0 1 .58-.91 2.91 2.91 0 0 1 .91-.59 2.55 2.55 0 0 1 1.06-.22h9.35a.44.44 0 0 1 .44.43v3.11a.44.44 0 0 1 -.42.45h-7.55a.45.45 0 0 0 -.32.14z"/><path d="m263 121.23a.12.12 0 0 0 0 .16l5.44 9a.22.22 0 0 1 0 .27.27.27 0 0 1 -.25.11h-3.9a.7.7 0 0 1 -.37-.11.66.66 0 0 1 -.28-.27l-3.51-6.39c0-.09-.09-.09-.12 0l-1.94 2.13a.9.9 0 0 0 -.2.34 1.1 1.1 0 0 0 -.08.4v3.47a.41.41 0 0 1 -.33.45h-3.28a.39.39 0 0 1 -.44-.33.24.24 0 0 1 0-.12v-15.58a.39.39 0 0 1 .33-.44h3.35a.39.39 0 0 1 .44.33.2.2 0 0 1 0 .11v7l6.05-7.08a1 1 0 0 1 .26-.27.93.93 0 0 1 .4-.09h3.89c.13 0 .2 0 .23.09s0 .15-.08.24z"/><path d="m275.65 130.28a.38.38 0 0 1 -.32.44h-3.33a.39.39 0 0 1 -.45-.32v-15.64a.39.39 0 0 1 .33-.44h3.35a.39.39 0 0 1 .44.33.2.2 0 0 1 0 .11z"/><path d="m291.4 114.54a2.76 2.76 0 0 1 1.46 1.45 2.57 2.57 0 0 1 .21 1.06v13.22a.42.42 0 0 1 -.42.44h-3.24a.39.39 0 0 1 -.31-.12.47.47 0 0 1 -.12-.32v-11.55a.37.37 0 0 0 -.13-.31.45.45 0 0 0 -.31-.12h-4.64a.47.47 0 0 0 -.32.12.4.4 0 0 0 -.13.31v11.56a.39.39 0 0 1 -.33.44h-3.35a.39.39 0 0 1 -.44-.32.24.24 0 0 1 0-.12v-15.52a.39.39 0 0 1 .33-.44h10.71a2.45 2.45 0 0 1 1.03.22z"/><path d="m310.41 121.9a.42.42 0 0 1 .13.32v5.78a2.59 2.59 0 0 1 -.23 1.06 2.82 2.82 0 0 1 -.58.91 2.51 2.51 0 0 1 -.91.59 2.71 2.71 0 0 1 -1.06.21h-8.3a2.78 2.78 0 0 1 -1.06-.21 2.74 2.74 0 0 1 -1.64-2.56v-10.89a2.8 2.8 0 0 1 .24-1.11 2.45 2.45 0 0 1 .58-.9 2.91 2.91 0 0 1 .91-.59 2.55 2.55 0 0 1 1.06-.22h9.68a.44.44 0 0 1 .44.44v3.1a.44.44 0 0 1 -.44.44h-7.86a.45.45 0 0 0 -.31.12.37.37 0 0 0 -.13.31v7.59a.37.37 0 0 0 .13.31.4.4 0 0 0 .31.11h4.59a.4.4 0 0 0 .42-.38v-4.14a.42.42 0 0 1 .42-.44h3.28a.43.43 0 0 1 .33.15z"/></g><path d="m98.85 1.41a17.32 17.32 0 0 1 9.15 9.16 16.51 16.51 0 0 1 1.41 6.68v86.06a2.78 2.78 0 0 1 -2.75 2.8h-20.66a2.43 2.43 0 0 1 -1.92-.82 2.82 2.82 0 0 1 -.74-2v-78.17h-16.55v78.22a2.87 2.87 0 0 1 -.74 2 2.52 2.52 0 0 1 -1.93.82h-18.65a2.78 2.78 0 0 1 -2.82-2.74v-78.3h-16.58v78.22a2.49 2.49 0 0 1 -2.82 2.81h-20.43a2.49 2.49 0 0 1 -2.82-2.81v-100.53a2.49 2.49 0 0 1 2.82-2.81h89.29a16.46 16.46 0 0 1 6.74 1.41z" fill="#e73427"/><path d="m199.19 80.38a2.69 2.69 0 0 1 2 .83 2.89 2.89 0 0 1 .78 2.05v20a2.83 2.83 0 0 1 -.78 2 2.67 2.67 0 0 1 -2 .84h-70.5c-2 0-3-1-3-2.88v-100.34c0-1.92 1-2.88 3-2.88h21.64c2 0 3 1 3 2.88v74.77a2.49 2.49 0 0 0 .91 2 3.09 3.09 0 0 0 2.11.77z" fill="#1d539f"/><path d="m307.54 0a2.94 2.94 0 0 1 2.14.84 2.76 2.76 0 0 1 .91 2.05v100.68a2.76 2.76 0 0 1 -.91 2.05 2.94 2.94 0 0 1 -2.14.84h-21.92a2.93 2.93 0 0 1 -2.13-.84 2.69 2.69 0 0 1 -.91-2.05v-35.13a2.63 2.63 0 0 0 -.79-2 2.82 2.82 0 0 0 -2.05-.76h-30.74a3.09 3.09 0 0 0 -2.13.76 2.5 2.5 0 0 0 -.91 2v35.13c0 1.92-1 2.89-3 2.89h-21.76c-2 0-3-1-3-2.89v-100.68c0-1.93 1-2.89 3-2.89h21.8c2 0 3 1 3 2.89v34.11c0 1.92 1 2.88 3 2.88h30.81a2.74 2.74 0 0 0 2.06-.83 2.93 2.93 0 0 0 .79-2v-34.16a2.71 2.71 0 0 1 .9-2.05 2.92 2.92 0 0 1 2.06-.84z" fill="#f8b92a"/></svg>