<svg viewBox="0 0 619.1 129" xmlns="http://www.w3.org/2000/svg"><g fill="#273339"><path d="m156 24h33.8a52.81 52.81 0 0 1 23.75 4.93 34.94 34.94 0 0 1 15.26 14.3 44.35 44.35 0 0 1 5.3 22.2 45 45 0 0 1 -5.25 22.34 34.63 34.63 0 0 1 -15.21 14.3 53.13 53.13 0 0 1 -23.84 4.93h-33.81zm31.67 65a24.59 24.59 0 0 0 18.08-6 24.41 24.41 0 0 0 6-18.08 24.18 24.18 0 0 0 -6-18.08 24.72 24.72 0 0 0 -18.08-5.84h-10.67v48z"/><path d="m298 82h-36a12.66 12.66 0 0 0 4.34 8.09 14.45 14.45 0 0 0 9.09 2.45 28.89 28.89 0 0 0 16.26-5.27l5.31 13.63a34 34 0 0 1 -10.45 5 42.52 42.52 0 0 1 -12.17 1.82 38.07 38.07 0 0 1 -17.22-3.63 26 26 0 0 1 -11.18-10.45 31.3 31.3 0 0 1 -3.98-15.96 32.21 32.21 0 0 1 3.68-15.54 26.58 26.58 0 0 1 10.32-10.67 29.39 29.39 0 0 1 15-3.81 25.44 25.44 0 0 1 19.53 8 32.07 32.07 0 0 1 7.47 21.34zm-36-10h18.2q-.68-10.31-9.09-10.31t-9.11 10.31z"/><path d="m345.58 49h20.55l-25.91 58h-17.34l-25.5-58h22l12.77 32.69z"/><path d="m403 50h13v15h-14v42h-21v-42h-10v-15h10.71a23.35 23.35 0 0 1 8-17.86 38.06 38.06 0 0 1 22.29-6.83l7.22-.45 1.2 14.87-5.56.22a19.37 19.37 0 0 0 -9.2 2 6.74 6.74 0 0 0 -2.66 6.05z"/><path d="m434.43 104a26.48 26.48 0 0 1 -11.13-10.49 31.3 31.3 0 0 1 -3.91-15.95 31 31 0 0 1 3.91-15.9 26.3 26.3 0 0 1 11.08-10.36 40.48 40.48 0 0 1 33.53 0 26.3 26.3 0 0 1 11.09 10.36 31 31 0 0 1 3.91 15.9 31.3 31.3 0 0 1 -3.91 15.95 26.58 26.58 0 0 1 -11.32 10.49 39.75 39.75 0 0 1 -33.43 0zm27.85-26.26q0-14.54-11.13-14.54t-11.15 14.54q0 14.54 11.13 14.54t11.14-14.54z"/><path d="m492 107v-83h21v83z"/><path d="m525 20h22v19h-22zm0 86.86v-57.86h21v58z"/><path d="m570.62 104a26.48 26.48 0 0 1 -11.13-10.49 31.3 31.3 0 0 1 -3.91-15.95 31 31 0 0 1 3.91-15.9 26.3 26.3 0 0 1 11.08-10.36 40.48 40.48 0 0 1 33.53 0 26.3 26.3 0 0 1 11.08 10.36 31 31 0 0 1 3.91 15.9 31.3 31.3 0 0 1 -3.91 15.95 26.58 26.58 0 0 1 -11.18 10.49 39.75 39.75 0 0 1 -33.43 0zm27.85-26q0-14.54-11.13-14.54t-11.13 14.54q0 14.54 11.13 14.54t11.08-14.54z"/></g><path d="m118 70.7c.26 29.53-21.71 54.87-50.95 58.2a16.34 16.34 0 0 1 -1.86.1c-5.82 0-37.28 0-48.9-.47a12.9 12.9 0 0 1 -10.36-7.81 15.81 15.81 0 0 0 5.5 1.32c4 .36 11.06 0 20.69 0 10.25 0 21.33.09 26.64.14a46.78 46.78 0 0 0 8.46-.65 60.65 60.65 0 0 0 34.78-19.3 63.6 63.6 0 0 0 16-35.07z" fill="#3770ff"/><path d="m113.34 58a58 58 0 0 1 -52.34 58h-49a14 14 0 0 1 -12-14v-88c0-7 5-14 12-14h50a57 57 0 0 1 51.34 58z" fill="#3770ff"/></svg>