<svg viewBox="0 0 619.1 129"><path fill="#273339" d="M156 24h33.8a52.81 52.81 0 0123.75 4.93 34.94 34.94 0 0115.26 14.3 44.35 44.35 0 015.3 22.2 45 45 0 01-5.25 22.34 34.63 34.63 0 01-15.21 14.3 53.13 53.13 0 01-23.84 4.93H156zm31.67 65a24.59 24.59 0 0018.08-6 24.41 24.41 0 006-18.08 24.18 24.18 0 00-6-18.08A24.72 24.72 0 00187.67 41H177v48zM298 82h-36a12.66 12.66 0 004.34 8.09 14.45 14.45 0 009.09 2.45 28.89 28.89 0 0016.26-5.27L297 100.9a34 34 0 01-10.45 5 42.52 42.52 0 01-12.17 1.82 38.07 38.07 0 01-17.22-3.63 26 26 0 01-11.18-10.45A31.3 31.3 0 01242 77.68a32.21 32.21 0 013.68-15.54A26.58 26.58 0 01256 51.47a29.39 29.39 0 0115-3.81 25.44 25.44 0 0119.53 8A32.07 32.07 0 01298 77zm-36-10h18.2q-.68-10.31-9.09-10.31T262 72zm83.58-23h20.55l-25.91 58h-17.34l-25.5-58h22l12.77 32.69zM403 50h13v15h-14v42h-21V65h-10V50h10.71a23.35 23.35 0 018-17.86A38.06 38.06 0 01412 25.31l7.22-.45 1.2 14.87-5.56.22a19.37 19.37 0 00-9.2 2A6.74 6.74 0 00403 48zm31.43 54a26.48 26.48 0 01-11.13-10.49 31.3 31.3 0 01-3.91-15.95 31 31 0 013.91-15.9 26.3 26.3 0 0111.08-10.36 40.48 40.48 0 0133.53 0A26.3 26.3 0 01479 61.66a31 31 0 013.91 15.9A31.3 31.3 0 01479 93.51 26.58 26.58 0 01467.68 104a39.75 39.75 0 01-33.43 0zm27.85-26.26q0-14.54-11.13-14.54T440 77.74q0 14.54 11.13 14.54t11.14-14.54zM492 107V24h21v83zm33-87h22v19h-22zm0 86.86V49h21v58zm45.62-2.86a26.48 26.48 0 01-11.13-10.49 31.3 31.3 0 01-3.91-15.95 31 31 0 013.91-15.9 26.3 26.3 0 0111.08-10.36 40.48 40.48 0 0133.53 0 26.3 26.3 0 0111.08 10.36 31 31 0 013.91 15.9 31.3 31.3 0 01-3.91 15.95A26.58 26.58 0 01604 104a39.75 39.75 0 01-33.43 0zm27.85-26q0-14.54-11.13-14.54T576.21 78q0 14.54 11.13 14.54T598.42 78z"/><path fill="#3770ff" d="M118 70.7c.26 29.53-21.71 54.87-50.95 58.2a16.34 16.34 0 01-1.86.1c-5.82 0-37.28 0-48.9-.47a12.9 12.9 0 01-10.36-7.81 15.81 15.81 0 005.5 1.32c4 .36 11.06 0 20.69 0 10.25 0 21.33.09 26.64.14a46.78 46.78 0 008.46-.65 60.65 60.65 0 0034.78-19.3 63.6 63.6 0 0016-35.07z"/><path fill="#3770ff" d="M113.34 58A58 58 0 0161 116H12a14 14 0 01-12-14V14C0 7 5 0 12 0h50a57 57 0 0151.34 58z"/></svg>