<svg fill="none" viewBox="0 0 24 24"><path stroke="#0E252D" stroke-width="1.3" d="M18.01 6.218a14.039 14.039 0 00-3.465-1.074.053.053 0 00-.055.026c-.15.266-.316.614-.432.886a12.961 12.961 0 00-3.891 0 8.97 8.97 0 00-.439-.886.055.055 0 00-.055-.026 14 14 0 00-3.465 1.074.05.05 0 00-.023.02c-2.207 3.297-2.812 6.513-2.515 9.689a.06.06 0 00.022.04 14.114 14.114 0 004.25 2.148.055.055 0 00.06-.02c.328-.447.62-.918.87-1.414a.054.054 0 00-.03-.075 9.29 9.29 0 01-1.327-.633.055.055 0 01-.006-.09 6.89 6.89 0 00.264-.207.053.053 0 01.055-.007c2.786 1.271 5.802 1.271 8.555 0a.052.052 0 01.056.006c.085.07.174.14.264.208.031.023.03.07-.004.09a8.716 8.716 0 01-1.329.632.054.054 0 00-.029.076c.256.495.548.967.87 1.414a.054.054 0 00.059.02 14.08 14.08 0 004.257-2.149.054.054 0 00.023-.039c.354-3.671-.595-6.86-2.517-9.688a.043.043 0 00-.023-.02zm-8.722 7.775c-.839 0-1.53-.77-1.53-1.716 0-.945.678-1.715 1.53-1.715.86 0 1.543.776 1.53 1.715 0 .946-.678 1.716-1.53 1.716zm5.657 0c-.839 0-1.53-.77-1.53-1.716 0-.945.678-1.715 1.53-1.715.859 0 1.543.776 1.53 1.715 0 .946-.671 1.716-1.53 1.716z"/></svg>