<svg width="24" height="24" viewBox="0 0 24 24" fill="none" xmlns="http://www.w3.org/2000/svg">
    <path
        d="M12.3426 15.4284C13.2519 15.4284 14.124 15.0672 14.767 14.4242C15.41 13.7812 15.7712 12.9092 15.7712 11.9999C15.7712 11.0905 15.41 10.2185 14.767 9.57549C14.124 8.93251 13.2519 8.57129 12.3426 8.57129C11.4333 8.57129 10.5612 8.93251 9.91827 9.57549C9.27529 10.2185 8.91406 11.0905 8.91406 11.9999C8.91406 12.9092 9.27529 13.7812 9.91827 14.4242C10.5612 15.0672 11.4333 15.4284 12.3426 15.4284Z"
        stroke="#ffffff" stroke-width="1.3" stroke-linecap="round" stroke-linejoin="round" />
    <path
        d="M4.62891 15.4285V8.57136C4.62891 7.43471 5.08044 6.34463 5.88416 5.5409C6.68789 4.73717 7.77798 4.28564 8.91462 4.28564H15.7718C16.9084 4.28564 17.9985 4.73717 18.8022 5.5409C19.6059 6.34463 20.0575 7.43471 20.0575 8.57136V15.4285C20.0575 16.5651 19.6059 17.6552 18.8022 18.459C17.9985 19.2627 16.9084 19.7142 15.7718 19.7142H8.91462C7.77798 19.7142 6.68789 19.2627 5.88416 18.459C5.08044 17.6552 4.62891 16.5651 4.62891 15.4285Z"
        stroke="#ffffff" stroke-width="1.3" />
    <path d="M17.0566 7.29473L17.0656 7.28491" stroke="#ffffff" stroke-width="1.3" stroke-linecap="round"
        stroke-linejoin="round" />
</svg>