<svg enable-background="new 0 0 487.8 133.7" viewBox="0 0 487.8 133.7" xmlns="http://www.w3.org/2000/svg" xmlns:xlink="http://www.w3.org/1999/xlink"><linearGradient id="a" gradientTransform="matrix(75.0781 0 0 -123.5743 57398.4609 69342.3203)" gradientUnits="userSpaceOnUse" x1="-765.283" x2="-764.284" y1="560.908" y2="560.908"><stop offset="0" stop-color="#d26a8d"/><stop offset=".096" stop-color="#da6a8d" stop-opacity=".9044"/><stop offset=".402" stop-color="#ef6a8d" stop-opacity=".598"/><stop offset=".705" stop-color="#fb6a8d" stop-opacity=".2947"/><stop offset="1" stop-color="#ff6a8d" stop-opacity="0"/></linearGradient><linearGradient id="b" gradientTransform="matrix(75.6363 0 0 -51.4258 57874.7969 28577.3438)" gradientUnits="userSpaceOnUse" x1="-765.166" x2="-764.375" y1="556.137" y2="555.886"><stop offset="0" stop-color="#7741d8"/><stop offset=".676" stop-color="#8d53f8" stop-opacity=".1599"/><stop offset=".804" stop-color="#9257ff" stop-opacity="0"/></linearGradient><linearGradient id="c" gradientTransform="matrix(82.1229 0 0 -110.6476 62902.9023 62054.0781)" gradientUnits="userSpaceOnUse" x1="-765.706" x2="-765.152" y1="560.057" y2="560.805"><stop offset="0" stop-color="#198fe1"/><stop offset=".101" stop-color="#1a9ee7" stop-opacity=".8986"/><stop offset=".33" stop-color="#1bbbf1" stop-opacity=".6703"/><stop offset=".557" stop-color="#1bd0f9" stop-opacity=".4428"/><stop offset=".782" stop-color="#1cdcfd" stop-opacity=".2182"/><stop offset="1" stop-color="#1ce0ff" stop-opacity="0"/></linearGradient><g transform="translate(57.286115 42.425238)"><path d="m-5.9 69.8c-10.4-16.9-15.8-42-6.8-67.7 4.1-12 11.5-24.3 22.9-35.5l-19.4 19.5-19.7 19.6-19.4 19.4c-16.8 16.9-8.9 45.8 14.3 51.8l51.8 13.4c-8.7-2.5-17.2-9.8-23.7-20.5z" fill="#ff6a8d"/><path d="m-5.9 69.8c-10.4-16.9-15.8-42-6.8-67.7 4.1-12 11.5-24.3 22.9-35.5l-19.4 19.5-19.7 19.6-19.4 19.4c-16.8 16.9-8.9 45.8 14.3 51.8l51.8 13.4c-8.7-2.5-17.2-9.8-23.7-20.5z" fill="url(#a)" opacity=".58"/><path d="m9.9-33.3c-11.5 11.5-18.6 23.5-22.9 35.5 25.3-8.7 50.4-3.6 67.6 6.8 10.9-12 10.6-30.8-.8-42.6-11.5-11.1-31.1-12.5-43.9.3z" fill="#9257ff"/><path d="m9.9-33.3c-11.5 11.5-18.6 23.5-22.9 35.5 25.3-8.7 50.4-3.6 67.6 6.8 10.9-12 10.6-30.8-.8-42.6-11.5-11.1-31.1-12.5-43.9.3z" fill="url(#b)" opacity=".51"/><path d="m75.1 32.5-13.4-51.9c2.5 9.8 0 20.5-7.1 28.4-.3.3-.5.8-1.1 1.1l-59.4 59.7c6.5 10.6 15 18 23.5 20.5 10.6 2.7 22.1-.3 30-8.2l19.6-19.6c7.6-7.7 10.9-19.1 7.9-30z" fill="#1ce0ff"/><path d="m75.1 32.5-13.4-51.9c2.5 9.8 0 20.5-7.1 28.4-.3.3-.5.8-1.1 1.1l-59.4 59.7c6.5 10.6 15 18 23.5 20.5 10.6 2.7 22.1-.3 30-8.2l19.6-19.6c7.6-7.7 10.9-19.1 7.9-30z" fill="url(#c)"/></g><g fill="#2c3042" transform="translate(217.011493 47.374474)"><path d="m67-8.8c-.5 0-1.4 0-1.9 0-5.5 0-10.1 1.4-13.6 4.4-3.5 2.7-6.3 6.3-7.9 9.8l-.6 1.1-1.4-9c-.5-3.8-3.8-6.8-7.9-6.8-4.4 0-7.9 3.5-7.9 7.9v57c0 5.2 4.4 9.5 9.5 9.5s9.5-4.4 9.5-9.5v-28.1c0-7.4 1.6-12.8 4.9-16.1s7.4-4.9 12.5-4.9c1.1 0 1.9 0 3 .3 4.1.5 7.6-2.2 8.5-6 .5-2.2 0-4.4-1.4-6.3-1.2-1.9-3.4-3-5.3-3.3z"/><path d="m90.2 64.9c5.2 0 9.5-4.4 9.5-9.5v-15.9l6.3-6.3 18.5 27.6c1.6 2.5 4.6 4.1 7.6 4.1 3.5 0 6.5-1.9 8.2-4.9 1.6-3 1.4-6.5-.5-9.5l-19.6-28.1 14.2-15.5c2.2-2.5 3-6 1.6-9s-4.4-4.9-7.6-4.9c-2.5 0-4.9 1.1-6.5 3l-22.1 25.5v-54.5c0-5.2-4.4-9.5-9.5-9.5s-9.5 4.4-9.5 9.5v88.7c-.1 5.1 4.2 9.2 9.4 9.2z"/><path d="m179.4-8.8c-5.2 0-10.1.8-14.4 2.8-4.4 1.9-8.2 4.4-11.2 7.6-3 3.3-5.5 7.1-7.1 11.7s-2.5 9.8-2.5 15.3c0 6.3 1.1 11.7 3 16.4 2.2 4.6 4.9 8.2 8.5 11.2s7.6 5.2 12.3 6.5c4.6 1.4 9.8 2.2 15 2.2 5.5 0 10.4-.5 14.5-1.4 1.4-.3 2.5-.5 3.5-.8 3.5-1.1 5.7-4.6 4.6-8.2-.5-1.9-1.6-3.3-3.3-4.4-1.6-.8-3.5-1.1-5.2-.5-.5 0-.8.3-1.4.3-3 .8-6.5 1.1-10.6 1.1-6.3 0-11.7-1.4-15.5-4.4-4.1-2.7-6.3-7.4-6.3-13.1v-.8h39c4.6 0 8.5-3.8 8.5-8.5v-.2c0-10.4-2.7-18.5-8.5-24.6-5.7-5.2-13.3-8.2-22.9-8.2zm11.7 28.7-27.6.3v-.5c.5-4.6 2.2-8.5 4.6-11.2 2.7-2.7 6-4.1 10.1-4.1 2.2 0 4.1.5 5.7 1.4s2.7 1.9 3.8 3.3 1.9 3 2.2 4.9c.5 1.9.8 3.8.8 5.7v.3h.4z"/><path d="m217.1 12.8c0 5.5 1.4 9.8 4.1 12.8 2.7 3.3 7.1 5.7 13.1 7.9l4.6 1.4c4.9 1.4 8.5 2.7 10.4 3.8s3 3 3 5.2-1.1 3.8-3 5.2-4.9 1.9-9 1.9c-3.3 0-6.5-.5-9.8-1.4-.5-.3-1.4-.3-1.9-.5-.8-.3-1.6-.3-2.5-.3-1.1 0-2.2.3-3.3.8-1.6.8-3 2.5-3.5 4.1v.3c-.5 1.9-.3 3.8.5 5.5.8 1.6 2.5 3 4.1 3.5 5.2 1.6 10.9 2.2 17.2 2.2 9.3 0 16.6-2.2 21.8-6.3s7.9-9.8 7.9-16.6c0-5.2-1.6-9.5-4.6-12.8s-7.9-6-13.9-7.6l-4.4-1.4c-4.6-1.4-7.9-2.7-9.5-3.8-1.6-1.4-2.5-3-2.5-4.9s.8-3.5 2.7-4.9c1.9-1.1 4.4-1.6 7.6-1.6 3.3 0 6.8.5 10.4 1.6 3.5 1.1 7.4-1.1 8.5-4.6.5-1.9.3-3.5-.5-5.2-.8-1.6-2.5-2.7-4.1-3.3-4.9-1.4-10.4-2.2-16.1-2.2-8.7 0-15.5 1.9-20.2 6-5 3.7-7.1 8.9-7.1 15.2z"/><path d="m12.7 43.3c1.9-4.6 2.7-9.8 2.7-15.8s-.8-11.2-2.7-15.8-4.3-8.5-7.6-11.2c-3.3-3-7.1-5.2-11.5-6.8s-9.3-2.5-14.2-2.5c-5.2 0-9.8.8-14.5 2.5-4.4 1.6-8.5 4.1-11.7 7.4s-6 7.1-7.6 11.7c-1.9 4.6-2.7 10.1-2.7 16.1 0 5.7.8 10.9 2.7 15.3s4.4 8.2 7.6 11.5c3.3 3 7.1 5.5 11.5 6.8 4.4 1.6 9.3 2.5 14.2 2.5 5.2 0 9.8-.8 14.5-2.7 4.4-1.6 8.5-4.1 11.7-7.4 3.3-3.1 5.7-7.2 7.6-11.6zm-18.2-4.3c-.8 3-2.2 5.2-3.5 7.1-1.6 1.9-3.3 3.3-5.2 3.8-1.9.8-4.1 1.1-6 1.1-2.2 0-4.4-.5-6.3-1.4-1.9-.8-3.8-2.2-5.5-4.1-1.6-1.9-2.7-4.1-3.8-7.1-.8-3-1.4-6.3-1.4-10.1 0-4.4.5-8.2 1.4-10.9.8-3 2.2-5.2 3.5-7.1 1.6-1.9 3.3-3 5.2-3.8 3.8-1.6 8.5-1.6 12.3.3 1.9.8 3.8 2.2 5.5 4.1s2.7 4.4 3.5 7.1c.8 3 1.4 6.5 1.4 10.6.2 3.8-.3 7.4-1.1 10.4z"/></g></svg>